<?xml version="1.0" encoding="UTF-8"?>
<svg version="1.1" xmlns="http://www.w3.org/2000/svg" width="550" height="550">
<path d="M0 0 C0.58885986 0.20584717 1.17771973 0.41169434 1.78442383 0.6237793 C1.97158524 8.02579697 2.05636675 15.42401539 2.07128906 22.82836914 C2.08828397 25.34458604 2.12839159 27.86076022 2.19238281 30.3762207 C2.68357725 50.57509425 2.68357725 50.57509425 -0.35861206 55.4586792 C-3.70214578 58.74502822 -7.88332933 60.09037536 -12.21557617 61.6237793 C-14.29665341 62.79107546 -16.35414379 64.00160421 -18.38354492 65.2565918 C-20.38910841 66.42228501 -22.39561433 67.58635832 -24.40307617 68.7487793 C-31.70765907 72.98590713 -38.98781131 77.25665205 -46.21557617 81.6237793 C-44.90154438 85.56587467 -43.42700965 85.92435462 -39.83666992 87.92456055 C-38.12954834 88.88628174 -38.12954834 88.88628174 -36.38793945 89.86743164 C-35.14306797 90.55719723 -33.89811162 91.24680969 -32.65307617 91.9362793 C-30.74366365 93.00594244 -28.83601756 94.07870686 -26.92852783 95.15179443 C-25.62616753 95.88430819 -24.32322296 96.61578405 -23.01971436 97.34625244 C-15.55971943 101.5338108 -8.20133349 105.8927476 -0.85791016 110.28125 C1.66809918 111.77219436 4.21495757 113.20950143 6.78442383 114.6237793 C8.28295898 115.47456055 8.28295898 115.47456055 9.81176758 116.3425293 C14.95930227 116.82954966 18.68542835 113.86434893 22.97192383 111.2487793 C23.96063477 110.66749268 24.9493457 110.08620605 25.96801758 109.48730469 C28.10933887 108.22471747 30.24504482 106.95256972 32.37573242 105.67211914 C35.92437778 103.53967862 39.48691169 101.4322455 43.05395508 99.33081055 C47.71084873 96.58485247 52.36016184 93.82674296 57.00317383 91.05737305 C61.23897336 88.53370108 65.49103368 86.04806425 69.78442383 83.6237793 C69.78442383 82.6337793 69.78442383 81.6437793 69.78442383 80.6237793 C69.09606445 80.36854492 68.40770508 80.11331055 67.69848633 79.8503418 C63.65860964 78.14991113 59.87550994 76.07007499 56.16137695 73.75146484 C51.45534606 70.87607997 47.00695633 69.00416782 41.72973633 67.36987305 C25.6763298 61.5102586 25.6763298 61.5102586 21.78442383 53.6237793 C17.42180428 36.57319249 20.16480807 16.93885508 21.78442383 -0.3762207 C25.80566889 0.34596465 28.64661663 1.47291863 32.18676758 3.5456543 C33.2304248 4.15223877 34.27408203 4.75882324 35.34936523 5.38378906 C36.46230957 6.04048584 37.57525391 6.69718262 38.72192383 7.3737793 C39.89264929 8.05786656 41.06371523 8.74137144 42.23510742 9.42431641 C45.75733056 11.4810593 49.27138207 13.55139172 52.78442383 15.6237793 C53.76846191 16.20337402 54.7525 16.78296875 55.76635742 17.38012695 C60.28137419 20.04091762 64.79193018 22.70913378 69.30004883 25.3815918 C75.07212753 28.79954337 80.8637553 32.18351906 86.65942383 35.5612793 C87.65441895 36.14127686 88.64941406 36.72127441 89.67456055 37.31884766 C94.75900315 40.2814201 99.84537138 43.24066228 104.93286133 46.19799805 C105.95524902 46.79298096 106.97763672 47.38796387 108.03100586 48.00097656 C109.92453318 49.10289187 111.81865709 50.20378323 113.71362305 51.30322266 C115.53878705 52.36568306 117.34508735 53.46115248 119.13198853 54.58677673 C121.90096564 56.24168895 124.68998925 57.3678312 127.71179199 58.48867798 C133.5858709 60.92367203 138.76785251 63.56946434 142.78442383 68.6237793 C146.18960718 77.91355012 145.17856056 88.56781535 144.81230259 98.31250858 C144.68639963 102.23154961 144.67546346 106.15096521 144.65179443 110.07171631 C144.58987142 117.47966019 144.42613399 124.88162987 144.22480464 132.28695369 C144.00045803 140.72394948 143.89110177 149.16124662 143.79089594 157.60048723 C143.58239909 174.94502857 143.2311418 192.28377058 142.78442383 209.6237793 C139.16304182 208.20585768 135.81878395 206.62223768 132.42504883 204.7175293 C131.38993164 204.13745117 130.35481445 203.55737305 129.28833008 202.9597168 C128.21454102 202.35385742 127.14075195 201.74799805 126.03442383 201.1237793 C125.00704102 200.54885742 123.9796582 199.97393555 122.92114258 199.3815918 C120.7439789 198.15810595 118.58550841 196.90091218 116.44433594 195.61547852 C113.77562003 194.06852494 111.12364163 192.98416947 108.22021484 191.94848633 C103.28431698 189.99030151 98.96405202 188.02033665 95.78442383 183.6237793 C93.02085437 174.96265355 93.80033086 165.48300634 94.15356445 156.51409912 C94.26792903 153.1424884 94.28448888 149.7704634 94.30981445 146.3972168 C94.37888888 139.8020945 94.54415586 133.21476761 94.78442383 126.6237793 C90.85895801 127.83517158 87.43196471 129.22984281 83.89770508 131.3190918 C82.50865967 132.13482666 82.50865967 132.13482666 81.09155273 132.96704102 C80.1033252 133.55501465 79.11509766 134.14298828 78.09692383 134.7487793 C77.06486816 135.35608887 76.0328125 135.96339844 74.96948242 136.58911133 C69.68991611 139.70035479 64.42514789 142.83614044 59.16416931 145.97866821 C56.68384666 147.45979054 54.20200464 148.93835936 51.7203064 150.41717529 C49.92596523 151.48889945 48.13500617 152.56611752 46.34423828 153.64379883 C44.70974731 154.62002197 44.70974731 154.62002197 43.04223633 155.6159668 C41.59034912 156.48777588 41.59034912 156.48777588 40.10913086 157.37719727 C37.78442383 158.6237793 37.78442383 158.6237793 35.78442383 158.6237793 C35.78442383 181.7237793 35.78442383 204.8237793 35.78442383 228.6237793 C39.32112302 227.20909962 42.32875607 225.85561462 45.60083008 224.0065918 C46.52065674 223.48718018 47.4404834 222.96776855 48.38818359 222.43261719 C49.36456787 221.87695068 50.34095215 221.32128418 51.34692383 220.7487793 C52.35746826 220.17957764 53.3680127 219.61037598 54.40917969 219.02392578 C59.52035892 216.12715167 64.56844711 213.16601852 69.53442383 210.02612305 C70.43088623 209.4645752 71.32734863 208.90302734 72.25097656 208.32446289 C73.94932984 207.25270981 75.63697637 206.16375074 77.31201172 205.0559082 C78.46044556 204.33346924 78.46044556 204.33346924 79.63208008 203.59643555 C80.29216064 203.16596924 80.95224121 202.73550293 81.63232422 202.29199219 C84.86750831 201.28748863 86.72155176 202.31191659 89.78442383 203.6237793 C91.64542491 204.62271127 93.47614067 205.67962783 95.27661133 206.78393555 C96.30471924 207.40905029 97.33282715 208.03416504 98.39208984 208.67822266 C99.47031006 209.34088135 100.54853027 210.00354004 101.65942383 210.6862793 C111.26705167 216.52700592 120.93261904 222.20602078 130.78442383 227.6237793 C129.51888727 231.42038897 128.38322826 231.71183628 124.94848633 233.63549805 C123.40257812 234.51238281 123.40257812 234.51238281 121.82543945 235.40698242 C120.6981543 236.03540039 119.57086914 236.66381836 118.40942383 237.3112793 C116.01394325 238.6653917 113.62211526 240.02591536 111.22973633 241.38549805 C110.30448151 241.90948685 110.30448151 241.90948685 109.36053467 242.44406128 C102.94813274 246.08109387 96.61550508 249.84698741 90.28442383 253.6237793 C81.5286584 258.83338411 72.74206015 263.98308573 63.90942383 269.0612793 C54.94610091 274.21487985 46.00137493 279.3986318 37.07977295 284.62405396 C35.81785416 285.36314459 34.55569496 286.10182493 33.29327393 286.84005737 C32.09859745 287.5388482 30.9043404 288.23835665 29.71054077 288.93864441 C28.04758555 289.91347768 26.38234857 290.88441529 24.71704102 291.85522461 C21.61532336 293.72575763 18.64737879 295.73439631 15.74780273 297.90454102 C12.54432795 299.07805963 10.06273074 298.36375251 6.78442383 297.6237793 C3.75610352 296.20361328 3.75610352 296.20361328 0.70629883 294.36987305 C0.14634216 294.03770279 -0.4136145 293.70553253 -0.99053955 293.36329651 C-2.82220718 292.27334831 -4.64365906 291.16743478 -6.46557617 290.0612793 C-7.75982063 289.28735886 -9.05475477 288.51459073 -10.3503418 287.74291992 C-13.01406484 286.15422051 -15.67397871 284.55942492 -18.33081055 282.95922852 C-24.10687487 279.48225799 -29.91311006 276.05646042 -35.71557617 272.6237793 C-37.94475289 271.30087957 -40.17391948 269.97796277 -42.40307617 268.6550293 C-50.0936387 264.09765891 -57.80742155 259.58026767 -65.52340698 255.06613159 C-72.32895615 251.08426559 -79.12712815 247.09068024 -85.90698242 243.06518555 C-86.53047577 242.69505341 -87.15396912 242.32492126 -87.7963562 241.943573 C-90.77858272 240.17255042 -93.75957627 238.39948984 -96.73901367 236.6237793 C-97.79475586 235.99600586 -98.85049805 235.36823242 -99.93823242 234.72143555 C-100.86385986 234.16979736 -101.7894873 233.61815918 -102.74316406 233.04980469 C-104.86977019 231.82323153 -107.00564285 230.69078847 -109.21557617 229.6237793 C-109.21557617 228.9637793 -109.21557617 228.3037793 -109.21557617 227.6237793 C-107.35277033 226.35542125 -105.42185005 225.18690728 -103.46948242 224.0612793 C-102.57170578 223.53938271 -102.57170578 223.53938271 -101.65579224 223.00694275 C-99.70046965 221.87229948 -97.73936377 220.74807462 -95.77807617 219.6237793 C-94.44601905 218.85312385 -93.11439447 218.08172028 -91.78320312 217.30957031 C-89.14632478 215.78098816 -86.50749088 214.25587709 -83.86694336 212.73364258 C-79.19544449 210.03812742 -74.54750902 207.30309819 -69.90307617 204.5612793 C-67.67414257 203.24838313 -65.44485292 201.93609279 -63.21557617 200.6237793 C-62.37389893 201.10484131 -61.53222168 201.58590332 -60.66503906 202.08154297 C-55.01170673 205.31247888 -49.35811501 208.54295527 -43.70272827 211.77029419 C-41.29204329 213.14603951 -38.88160758 214.52222126 -36.47119141 215.8984375 C-35.24310728 216.59946954 -34.01491442 217.30031113 -32.78662109 218.00097656 C-30.96967861 219.03749377 -29.15313727 220.07471094 -27.33666992 221.11206055 C-26.27891357 221.71574463 -25.22115723 222.31942871 -24.13134766 222.94140625 C-22.22143859 224.04340603 -20.32908743 225.17654957 -18.45800781 226.34326172 C-16.35649509 227.78907409 -16.35649509 227.78907409 -14.21557617 227.6237793 C-14.21557617 204.8537793 -14.21557617 182.0837793 -14.21557617 158.6237793 C-23.45557617 153.3437793 -32.69557617 148.0637793 -42.21557617 142.6237793 C-48.37277437 138.98209084 -54.51373257 135.32128065 -60.63354492 131.61791992 C-61.71249023 130.97145508 -62.79143555 130.32499023 -63.90307617 129.65893555 C-65.30106445 128.81407593 -65.30106445 128.81407593 -66.72729492 127.95214844 C-68.96441186 126.75786338 -70.77074201 126.17647605 -73.21557617 125.6237793 C-73.16006088 126.30457047 -73.10454559 126.98536163 -73.04734802 127.68678284 C-69.1826263 177.26645262 -69.1826263 177.26645262 -75.34692383 186.60229492 C-80.84240687 192.08304477 -87.48113713 194.37810093 -94.82348633 196.50170898 C-100.30200019 198.31394806 -104.85205752 201.42149886 -109.65307617 204.5612793 C-111.27041991 205.55992537 -112.89355689 206.54929354 -114.52416992 207.52612305 C-115.19246826 207.93338623 -115.8607666 208.34064941 -116.54931641 208.76025391 C-118.21557617 209.6237793 -118.21557617 209.6237793 -120.21557617 209.6237793 C-120.84854204 191.51792839 -121.32344415 173.41497337 -121.61450481 155.30042267 C-121.75330111 146.88734059 -121.94213492 138.48115783 -122.25244141 130.07250977 C-122.52305497 122.73590679 -122.69606211 115.40429632 -122.75596553 108.06284189 C-122.79096909 104.17829277 -122.87192826 100.30800955 -123.0702877 96.42808533 C-124.03123093 76.88703904 -124.03123093 76.88703904 -120.21557617 68.6237793 C-113.66423714 61.55931624 -105.10239137 57.66462497 -96.33674812 53.96598816 C-92.47114366 52.30364829 -88.99429678 50.30858472 -85.40307617 48.1237793 C-83.34159742 46.95530905 -81.27912958 45.78858173 -79.21557617 44.6237793 C-68.87216425 38.74988678 -58.618885 32.73992741 -48.40185547 26.64794922 C-38.83570579 20.9579027 -29.18591282 15.42269361 -19.50073242 9.93823242 C-17.85331055 9.00333984 -17.85331055 9.00333984 -16.17260742 8.04956055 C-14.62694092 7.17485107 -14.62694092 7.17485107 -13.05004883 6.2824707 C-10.52192585 4.80305059 -8.09718742 3.23387815 -5.66479492 1.60424805 C-2.21557617 -0.3762207 -2.21557617 -0.3762207 0 0 Z " fill="#currentColor" transform="translate(263.215576171875,125.376220703125)"/>
</svg>
