<?xml version="1.0" encoding="UTF-8"?>
<svg version="1.1" xmlns="http://www.w3.org/2000/svg" width="512" height="512">
<path d="M0 0 C0.67417969 0.5775 1.34835937 1.155 2.04296875 1.75 C13.20071778 12.05653931 21.01477319 26.34030764 28.88037109 39.19580078 C31.11720732 42.80029701 33.47232906 46.33048589 35.8203125 49.86328125 C37 52 37 52 37 55 C34.9703399 56.60364449 32.96757933 58.02132109 30.8125 59.4375 C19.21110842 67.40743516 9.4673954 76.72684045 1 88 C0.09701172 89.19689453 0.09701172 89.19689453 -0.82421875 90.41796875 C-22.54901381 120.34448419 -30.98005816 156.70975786 -25.40161133 193.18676758 C-21.56469416 216.18509318 -12.82240739 237.81836007 2 256 C2.48597656 256.60118652 2.97195313 257.20237305 3.47265625 257.82177734 C8.53207958 264.76158895 8.53207958 264.76158895 15 270 C15 270.66 15 271.32 15 272 C15.59167969 272.268125 16.18335938 272.53625 16.79296875 272.8125 C19.01914755 274.0103024 20.49236475 275.25936491 22.3125 277 C46.37312097 298.3526913 81.49035492 310.51402097 113.6171875 308.86572266 C122.42066766 308.25939231 131.06097415 307.32974518 139.67797852 305.39575195 C142.15895398 304.9729088 144.48802382 304.93415127 147 305 C145.54257101 302.56195521 144.08409532 300.12454725 142.625 297.6875 C142.2125 296.99720703 141.8 296.30691406 141.375 295.59570312 C140.97539062 294.92861328 140.57578125 294.26152344 140.1640625 293.57421875 C139.79748535 292.96151123 139.4309082 292.34880371 139.05322266 291.7175293 C138.0740333 290.12072885 137.03902076 288.55853114 136 287 C135.17242187 287.144375 134.34484375 287.28875 133.4921875 287.4375 C99.97036549 292.65039673 67.79038183 286.36386414 40.09375 266.4140625 C14.8549203 246.72012721 -2.96702637 219.13908361 -7 187 C-7.31952186 181.81209488 -7.3900611 176.63373313 -7.375 171.4375 C-7.37445618 170.73101318 -7.37391235 170.02452637 -7.37335205 169.29663086 C-7.3337987 158.10904481 -6.51787069 147.67676432 -3 137 C-2.78569336 136.32130859 -2.57138672 135.64261719 -2.35058594 134.94335938 C6.35900225 107.88912183 24.62724829 86.62793457 48 71 C51.92423829 74.64097461 54.75119189 78.46352152 57.5 83.0625 C58.3798194 84.50103561 59.26141431 85.9384864 60.14453125 87.375 C60.60811035 88.13039063 61.07168945 88.88578125 61.54931641 89.6640625 C64.03623771 93.66858338 66.61134781 97.61500609 69.1875 101.5625 C70.00710205 102.81957764 70.00710205 102.81957764 70.84326172 104.10205078 C71.98107956 105.84604805 73.11943512 107.58969461 74.25830078 109.33300781 C76.00633611 112.00970222 77.75159468 114.68818727 79.49609375 117.3671875 C86.52110312 128.15242406 93.56815135 138.92308544 100.625 149.6875 C110.3667995 164.54799105 120.05592084 179.44196292 129.70166016 194.36499023 C134.2180411 201.34698783 138.76311833 208.31021037 143.30761719 215.27392578 C149.01823521 224.02509334 154.71472052 232.78538361 160.40722656 241.54833984 C163.10404753 245.69939383 165.80207797 249.84966159 168.5 254 C171.72714451 258.96446586 174.95407354 263.92907075 178.1796875 268.89453125 C189.85677507 286.86850889 201.56626401 304.82113901 213.3125 322.75 C213.73299622 323.39186249 214.15349243 324.03372498 214.58673096 324.69503784 C215.78290752 326.52076402 216.97929269 328.34635328 218.17578125 330.171875 C219.21085815 331.7511377 219.21085815 331.7511377 220.2668457 333.36230469 C221.50453653 335.24595192 222.74976858 337.12465286 224 339 C223.81845093 341.03190613 223.81845093 341.03190613 223 343 C220.63058356 344.90573746 218.3216573 346.57779066 215.7890625 348.23828125 C215.06512299 348.72330612 214.34118347 349.20833099 213.5953064 349.70805359 C212.064031 350.72971115 210.52889115 351.74559679 208.99023438 352.75610352 C206.63065473 354.30877901 204.28757595 355.88424834 201.9453125 357.46289062 C200.45666101 358.45192483 198.96710701 359.43960226 197.4765625 360.42578125 C196.77334869 360.89961746 196.07013489 361.37345367 195.34561157 361.86164856 C193.61367811 362.98851595 191.81098364 364.00513222 190 365 C185.95421976 363.65140659 184.75185014 361.00477314 182.5625 357.5625 C181.67218733 356.19510909 180.78154788 354.8279309 179.890625 353.4609375 C179.42205078 352.73616211 178.95347656 352.01138672 178.47070312 351.26464844 C175.95052403 347.38397425 173.38057283 343.53657848 170.8125 339.6875 C170.30630127 338.92719482 169.80010254 338.16688965 169.27856445 337.38354492 C165.59790131 331.86525791 161.85310852 326.39977885 158 321 C156.74123047 321.70962891 156.74123047 321.70962891 155.45703125 322.43359375 C148.08933727 326.51456467 140.6006931 330.20645366 132.875 333.5625 C132.10905518 333.90144287 131.34311035 334.24038574 130.55395508 334.58959961 C120.88279786 338.71444845 111.05611178 341.64796274 101 345 C100.67 361.83 100.34 378.66 100 396 C85.81 396 71.62 396 57 396 C57 381.48 57 366.96 57 352 C54.03 352.33 51.06 352.66 48 353 C45.64041443 353.08433342 43.27905976 353.13048122 40.91796875 353.1328125 C39.65662109 353.13410156 38.39527344 353.13539063 37.09570312 353.13671875 C35.80599609 353.13285156 34.51628906 353.12898438 33.1875 353.125 C31.22393555 353.13080078 31.22393555 353.13080078 29.22070312 353.13671875 C27.96580078 353.13542969 26.71089844 353.13414062 25.41796875 353.1328125 C23.71290161 353.13112061 23.71290161 353.13112061 21.97338867 353.12939453 C19 353 19 353 15 352 C15 366.52 15 381.04 15 396 C0.48 396 -14.04 396 -29 396 C-29.33 377.52 -29.66 359.04 -30 340 C-33.3 338.35 -36.6 336.7 -40 335 C-76.07648271 314.50929127 -96.74028097 275.06259561 -107.48266602 236.43530273 C-110.77801504 224.09792699 -113.03604301 211.61057839 -115 199 C-116.25490234 198.5978125 -116.25490234 198.5978125 -117.53515625 198.1875 C-146.09597848 188.57233947 -172.32819056 168.34361887 -186 141 C-203.325 140.505 -203.325 140.505 -221 140 C-219.44885085 119.8350611 -214.31271168 106.31271168 -200 92 C-199.9039452 89.94015814 -199.8150956 87.87974236 -199.76147461 85.81835938 C-198.79065056 51.2916267 -185.67152996 21.54608203 -160.6875 -2.25 C-143.04547439 -17.66462496 -121.2750427 -27.87992494 -98 -31 C-97.21496094 -31.12246094 -96.42992187 -31.24492188 -95.62109375 -31.37109375 C-60.51076994 -35.82169818 -26.2016281 -22.81945838 0 0 Z M-131 63 C-134.19509043 68.39860107 -135.78167598 73.5947663 -134.66796875 79.8359375 C-132.45561778 87.00343714 -128.28038703 91.1619857 -122 95 C-116.31978516 96.89340495 -110.25898331 96.92131907 -104.75 94.4375 C-99.77271655 91.59621674 -96.4667567 87.53348885 -93.625 82.625 C-92.04536686 75.99054083 -92.5749304 70.21725111 -95.6015625 64.078125 C-99.18876624 58.74741999 -104.77945453 55.38234344 -111 54 C-118.64577401 52.9939771 -126.21831983 57.25232384 -131 63 Z " fill="currentColor" transform="translate(263,74)"/>
</svg>
