<?xml version="1.0" encoding="UTF-8"?>
<svg version="1.1" xmlns="http://www.w3.org/2000/svg" width="550" height="550">
<path d="M0 0 C47.52 0 95.04 0 144 0 C144.495 16.17 144.99 32.34 145.5 49 C145.71849609 54.05441406 145.93699219 59.10882813 146.16210938 64.31640625 C147.05106204 99.9383563 147.05106204 99.9383563 137.20703888 111.00105286 C132.81199983 115.49569602 127.84912135 119.14357732 122.72094727 122.76269531 C118.60113918 126.15021629 116.26241051 130.22745836 114 135 C109.6822542 134.49202991 105.96697886 133.80317221 102 132 C103.02961127 129.9170537 104.0793085 127.85316149 105.18359375 125.80859375 C108.41041928 119.70677726 110.43014892 113.71334689 112 107 C112.66386719 106.91363281 113.32773437 106.82726562 114.01171875 106.73828125 C119.83349466 105.81189647 123.31979692 104.94527289 127 100 C129.40226367 96.06902308 129.18143403 92.57273357 128.52734375 88.1484375 C127.71762902 84.84959971 126.55826782 83.23028477 124 81 C121.36059423 79.75347375 118.79654166 78.88557153 116 78 C116.66040452 75.15320771 117.543659 72.48659707 118.5625 69.75 C121.42561893 61.04725237 119.93465654 54.14566018 116 46 C115.01890754 44.98144339 114.02317888 43.97627096 113 43 C113 42.34 113 41.68 113 41 C112.44570313 40.73316406 111.89140625 40.46632812 111.3203125 40.19140625 C108.76501222 38.87934129 106.32985555 37.42873315 103.875 35.9375 C100.48988716 33.87361481 100.48988716 33.87361481 97 32 C97 31.34 97 30.68 97 30 C97.99 29.505 97.99 29.505 99 29 C99 26.69 99 24.38 99 22 C86.36845084 15.97662239 73.25105646 13.47871811 59.5625 17.5625 C51.55296339 20.64894287 45.81840035 25.68705136 40.53515625 32.32421875 C38.81236841 34.20481922 36.99225001 35.45960082 34.875 36.875 C30.34488146 40.19882261 28.24481618 43.51184815 27 49 C26.0437015 58.72786408 27.34911834 67.64301891 30 77 C29.39671875 77.24234375 28.7934375 77.4846875 28.171875 77.734375 C21.88044829 80.34714726 21.88044829 80.34714726 17 85 C15.33183387 90.00449839 15.1021033 95.03317865 17.3125 99.875 C20.5924814 104.00534694 22.32197182 105.36688981 27.6875 106.1875 C28.68136719 106.34605469 29.67523438 106.50460937 30.69921875 106.66796875 C31.45847656 106.77753906 32.21773437 106.88710938 33 107 C33.17015625 107.7734375 33.3403125 108.546875 33.515625 109.34375 C35.78569399 119.82267259 35.78569399 119.82267259 41.625 128.58984375 C43 130 43 130 43 132 C42.154375 132.29132813 41.30875 132.58265625 40.4375 132.8828125 C28.29746658 137.26977912 19.88443461 142.63718752 14.25 154.5 C10.7594133 162.18812766 10.79031108 169.62837952 10.75 177.9375 C10.729375 178.99646484 10.70875 180.05542969 10.6875 181.14648438 C10.65738455 187.18086837 10.80924996 191.79075374 14 197 C18.63896526 200.91334459 23.55064773 200.41748453 29.31054688 200.37231445 C30.86504295 200.37779045 30.86504295 200.37779045 32.45094299 200.38337708 C35.87371245 200.39147744 39.29600775 200.37787629 42.71875 200.36328125 C45.09859212 200.36276258 47.47843467 200.36328054 49.85827637 200.36479187 C54.84487304 200.36470217 59.83130797 200.35427686 64.81787109 200.33618164 C71.21038349 200.31349476 77.60265954 200.31295068 83.99520111 200.31969929 C88.90909934 200.32304047 93.82294366 200.31640632 98.73683167 200.30657005 C101.09395567 200.30272036 103.45108567 200.30156888 105.80821228 200.3031559 C109.10207547 200.30352667 112.39563547 200.29090251 115.68945312 200.2746582 C117.15149925 200.27837433 117.15149925 200.27837433 118.64308167 200.28216553 C125.06726442 200.27726614 125.06726442 200.27726614 131 198 C133.2698753 194.15739183 133.24559529 190.55011501 133.23046875 186.16015625 C133.22853516 184.84982422 133.22660156 183.53949219 133.22460938 182.18945312 C133.21840576 181.51148682 133.21220215 180.83352051 133.20581055 180.13500977 C133.1875866 178.07230201 133.18530098 176.01004545 133.18554688 173.94726562 C133.16000162 168.1712001 133.08580069 162.68786264 132 157 C133.4160599 156.20724852 134.83287553 155.41584688 136.25 154.625 C137.03890625 154.18414062 137.8278125 153.74328125 138.640625 153.2890625 C140.73495054 152.14481179 142.86542573 151.06728714 145 150 C144.67 171.78 144.34 193.56 144 216 C96.48 216 48.96 216 0 216 C0 144.72 0 73.44 0 0 Z " fill="#currentColor" transform="translate(186,167)"/>
<path d="M0 0 C1.31081039 -0.00990463 2.62162079 -0.01980927 3.97215271 -0.03001404 C5.41792391 -0.02577623 6.86369421 -0.02121839 8.3094635 -0.01637268 C9.83739725 -0.02207712 11.36532674 -0.02904167 12.89324951 -0.03717041 C17.0379137 -0.055109 21.18236625 -0.05393214 25.3270576 -0.04822803 C28.78882069 -0.04513714 32.25054307 -0.05122752 35.71230036 -0.05726677 C43.87981368 -0.07131272 52.0472224 -0.06975018 60.21473694 -0.05836487 C68.63713005 -0.04688361 77.05920473 -0.06095918 85.48155588 -0.08776134 C92.71653292 -0.10992184 99.95141003 -0.11655494 107.18641859 -0.11068493 C111.50589692 -0.10731497 115.82517114 -0.10973295 120.1446209 -0.12693596 C124.20688881 -0.14240866 128.26868522 -0.13844627 132.33093452 -0.11963081 C133.82003311 -0.11594578 135.30916666 -0.11905099 136.79823303 -0.1295166 C138.83428416 -0.14273183 140.87045718 -0.12876763 142.90649414 -0.11352539 C144.04486693 -0.11331611 145.18323973 -0.11310682 146.35610867 -0.1128912 C152.92088114 0.92681802 156.74386397 5.32124801 160.51673889 10.38768005 C161.7658885 14.13512889 161.7208455 17.66468536 161.77308655 21.57176208 C161.78768921 22.40630417 161.80229187 23.24084625 161.81733704 24.10067749 C161.94334684 31.79915237 162.01210152 39.49864842 162.06517982 47.19793892 C162.10092709 52.36709685 162.15420495 57.53469665 162.25062561 62.70310974 C162.34366651 67.70584903 162.39213519 72.70721036 162.4095726 77.71076584 C162.42362925 79.61261159 162.453184 81.51441125 162.49887466 83.41576004 C162.83875918 98.28800077 162.83875918 98.28800077 159.48616028 103.61271667 C157.27329622 105.86932167 155.19240569 107.7139784 152.51673889 109.38768005 C152.18673889 109.38768005 151.85673889 109.38768005 151.51673889 109.38768005 C151.51087265 108.21892334 151.50500641 107.05016663 151.4989624 105.84599304 C151.4417858 94.83942661 151.3690507 83.83305871 151.28102398 72.82669449 C151.23626851 67.16800099 151.19702375 61.50938036 151.17030334 55.85057068 C151.14432212 50.39099555 151.10395635 44.93170005 151.05355263 39.47229767 C151.03684884 37.38790613 151.02535649 35.30346618 151.01912498 33.21901703 C151.00952214 30.30260807 150.98150847 27.38692018 150.94911194 24.47068787 C150.95054703 23.60609955 150.95198212 22.74151123 150.95346069 21.85072327 C150.89891824 18.3861601 150.82898209 16.00022009 149.23971558 12.88249207 C145.8530663 9.94431881 141.92003021 10.26084684 137.60256958 10.25396729 C135.78770302 10.24756981 135.78770302 10.24756981 133.93617249 10.24104309 C132.59852597 10.24139259 131.26087948 10.24185411 129.92323303 10.24241638 C128.51205354 10.23942365 127.10087486 10.23602086 125.68969727 10.23223877 C121.85913768 10.22340693 118.02860044 10.22106102 114.19803166 10.22042298 C111.80458993 10.2197121 109.41115387 10.21757708 107.01771355 10.21492577 C98.66720596 10.2056756 90.31671433 10.20159054 81.96620178 10.20237732 C74.18294272 10.20297828 66.39975293 10.19242201 58.6165114 10.17663366 C51.93275281 10.16355884 45.24901686 10.15819339 38.56524557 10.15883273 C34.57391928 10.1590877 30.58265457 10.15623685 26.59134102 10.14565468 C22.83782581 10.13597449 19.08443109 10.13589394 15.33091164 10.14317131 C13.95427016 10.1442172 12.57762119 10.141854 11.20099258 10.13581085 C9.31997422 10.12808904 7.43891481 10.13393598 5.55789185 10.14044189 C4.50579057 10.13989713 3.45368929 10.13935236 2.36970615 10.13879108 C-0.72199002 10.40850644 -2.79018633 10.83343836 -5.48326111 12.38768005 C-8.12075745 16.61257203 -7.76341037 21.32883866 -7.73722839 26.15550232 C-7.74034837 27.03829392 -7.74346836 27.92108553 -7.74668288 28.8306284 C-7.75465975 31.78851563 -7.7483404 34.74619754 -7.74205017 37.7040863 C-7.74476017 39.8247642 -7.74832115 41.94544116 -7.75267029 44.06611633 C-7.76179549 49.82632628 -7.75824946 55.58646466 -7.75191212 61.34667587 C-7.74685283 67.371495 -7.75154337 73.39630795 -7.75468445 79.42112732 C-7.75832429 89.53922121 -7.75352449 99.65728591 -7.7440033 109.77537537 C-7.73311873 121.47753901 -7.73664429 133.17963297 -7.74765611 144.88179493 C-7.75672843 154.92435967 -7.75801452 164.96690342 -7.75277877 175.00947094 C-7.74965878 181.0095045 -7.74925055 187.00950528 -7.75585175 193.00953674 C-7.76162376 198.65002331 -7.75763088 204.29041992 -7.74606323 209.93089676 C-7.74341589 212.00254797 -7.744183 214.07420673 -7.74858856 216.14585495 C-7.75404242 218.97062521 -7.74721169 221.79510603 -7.73722839 224.61985779 C-7.74168984 225.44232781 -7.74615128 226.26479784 -7.75074792 227.1121912 C-7.72211272 231.28097786 -7.52570861 234.69939165 -5.48326111 238.38768005 C-1.93358602 240.41947032 1.18853219 240.63295412 5.22499084 240.61473083 C6.3457753 240.61457977 7.46655975 240.61442871 8.62130737 240.61427307 C10.41999519 240.59878922 10.41999519 240.59878922 12.25502014 240.58299255 C13.49092392 240.58016266 14.7268277 240.57733276 16.00018311 240.57441711 C19.27338886 240.56513223 22.54639533 240.54718638 25.8195343 240.52500916 C29.16454737 240.50448823 32.50956915 240.49557273 35.85462952 240.4853363 C42.40874363 240.463298 48.96272497 240.42983666 55.51673889 240.38768005 C55.51673889 243.68768005 55.51673889 246.98768005 55.51673889 250.38768005 C47.57124409 250.52716163 39.62626707 250.63354146 31.67984772 250.69855309 C27.98929369 250.72976777 24.29958177 250.77205428 20.60951233 250.84031677 C17.04327209 250.90587005 13.47783783 250.94146015 9.91104126 250.95694351 C7.89908736 250.97330369 5.88745446 251.02008581 3.87599182 251.06745911 C-2.98974084 251.06996696 -7.62072186 250.71204284 -12.94456482 246.16786194 C-17.49515173 240.90309823 -17.9204342 236.91018065 -17.88439941 230.18447876 C-17.89119608 229.25480122 -17.89799275 228.32512369 -17.90499538 227.36727411 C-17.92399342 224.25050879 -17.92152884 221.13413556 -17.91905212 218.01731873 C-17.92802804 215.78327935 -17.93823589 213.54924464 -17.94958496 211.31521606 C-17.97610672 205.24489582 -17.98311937 199.1747024 -17.98503232 193.10432982 C-17.98788027 188.03723506 -17.99891598 182.97016987 -18.0095486 177.90308648 C-18.03258731 166.63092086 -18.04155441 155.35881518 -18.03953255 144.08663317 C-18.03941268 143.41052698 -18.03929281 142.73442079 -18.03916931 142.03782654 C-18.03898535 141.02242527 -18.03898535 141.02242527 -18.03879767 139.98651085 C-18.03757859 129.01840501 -18.06628062 118.05060829 -18.10858441 107.08259185 C-18.15170406 95.81389574 -18.17184432 84.54534568 -18.16980308 73.27655011 C-18.1690381 66.95268089 -18.17759309 60.62916147 -18.20933723 54.30536461 C-18.23838161 48.35689096 -18.238618 42.40910147 -18.21678734 36.46060371 C-18.21364984 34.27893449 -18.22073859 32.09722267 -18.23886871 29.91562653 C-18.26204354 26.93355834 -18.24809253 23.95385003 -18.22497559 20.97183228 C-18.24040628 20.11140939 -18.25583696 19.25098651 -18.27173525 18.36449021 C-18.16059973 11.86330058 -16.02599965 8.00191887 -11.48326111 3.38768005 C-7.67414221 0.34048818 -4.82193595 0.010296 0 0 Z " fill="#currentColor" transform="translate(186.48326110839844,149.61231994628906)"/>
<path d="M0 0 C9.30596126 3.05829713 20.47044376 2.83341038 29.53515625 -0.8203125 C36.6316103 -3.27514949 43.71423614 -0.87997563 50.5 1.5 C49.35672387 5.73012167 47.56862349 9.18143713 45.375 12.9375 C42.84828254 17.48930718 41.42568645 20.34329494 42.5 25.5 C43.94148975 27.68547684 43.94148975 27.68547684 46.5 28.5 C52.59918586 28.62447318 56.89196335 25.83717259 62.046875 22.77734375 C64.5 21.5 64.5 21.5 67.5 21.5 C67.54939115 25.59338652 67.58571501 29.68665798 67.60986328 33.78027344 C67.61992877 35.17320781 67.63358234 36.56612102 67.65087891 37.95898438 C67.6751022 39.9595436 67.68540814 41.96025615 67.6953125 43.9609375 C67.70578613 45.16540527 67.71625977 46.36987305 67.72705078 47.61083984 C67.5 50.5 67.5 50.5 65.5 52.5 C63.63528442 52.75447559 63.63528442 52.75447559 61.32470703 52.76069641 C60.449776 52.76778122 59.57484497 52.77486603 58.67340088 52.78216553 C57.71125671 52.77968811 56.74911255 52.77721069 55.7578125 52.7746582 C54.74636169 52.77976913 53.73491089 52.78488007 52.69281006 52.79014587 C49.33681382 52.80408922 45.98102182 52.80308168 42.625 52.80078125 C40.30094323 52.80466527 37.97688716 52.80899933 35.65283203 52.81376648 C30.77699484 52.82123869 25.90123004 52.82092994 21.02539062 52.81567383 C14.763608 52.80987475 8.50212072 52.82681615 2.24038696 52.8500185 C-2.56015773 52.86471789 -7.36063064 52.86563278 -12.16119385 52.86250877 C-14.47056667 52.8630238 -16.77994332 52.86829517 -19.08929443 52.87832069 C-22.31233171 52.89059571 -25.53478524 52.88394744 -28.7578125 52.87231445 C-29.71995667 52.87995819 -30.68210083 52.88760193 -31.67340088 52.89547729 C-32.54833191 52.88846298 -33.42326294 52.88144867 -34.32470703 52.8742218 C-35.08719757 52.87438954 -35.84968811 52.87455729 -36.63528442 52.87473011 C-38.5 52.5 -38.5 52.5 -40.5 49.5 C-40.97029564 45.51631929 -40.87037668 41.50841447 -40.875 37.5 C-40.91173828 35.86998047 -40.91173828 35.86998047 -40.94921875 34.20703125 C-40.98564241 24.04483033 -38.85881833 14.8369267 -31.69921875 7.2890625 C-22.65464595 -0.06868944 -11.2326306 -4.06368206 0 0 Z " fill="#currentColor" transform="translate(244.5,307.5)"/>
<path d="M0 0 C2.67788194 0.85748084 5.15825995 2.02885951 7.6875 3.25 C9.11322551 3.89623321 10.54032091 4.53945243 11.96875 5.1796875 C12.66097656 5.49260742 13.35320312 5.80552734 14.06640625 6.12792969 C25.06909832 11.09025495 35.2211417 11.69079829 47.14916992 11.8581543 C49 12 49 12 50 13 C50.13834386 15.4041301 50.21314699 17.77740382 50.23828125 20.18359375 C50.246353 20.91312759 50.25442474 21.64266144 50.26274109 22.39430237 C50.27660757 23.94700736 50.2873182 25.49974316 50.29516602 27.05249023 C50.31220522 29.39694071 50.35604137 31.73991549 50.40039062 34.08398438 C50.52910739 46.29299006 48.74042747 55.00849168 40.16015625 64.0859375 C31.81451301 71.48081125 21.75905225 71.75306172 11.16992188 71.23535156 C6.4449337 70.72287535 2.82054405 68.69085546 -1 66 C-1.9075 65.443125 -2.815 64.88625 -3.75 64.3125 C-11.47019726 56.37785281 -14.30023024 46.92914149 -14.3359375 36.0625 C-14.3425943 35.33812744 -14.3492511 34.61375488 -14.35610962 33.86743164 C-14.36615645 32.34817007 -14.37092914 30.82886507 -14.37060547 29.30957031 C-14.37499027 27.00511348 -14.41142214 24.70255828 -14.44921875 22.3984375 C-14.50795071 14.78842435 -14.54934509 8.43806236 -10 2 C-6.22665918 -0.51556055 -4.48617899 -0.38809375 0 0 Z " fill="#currentColor" transform="translate(240,231)"/>
<path d="M0 0 C1.10794922 -0.01836914 1.10794922 -0.01836914 2.23828125 -0.03710938 C7.1209987 -0.05002662 11.11741357 0.63717676 15.75 2.1875 C15.42 5.4875 15.09 8.7875 14.75 12.1875 C15.75160156 12.68378906 16.75320313 13.18007812 17.78515625 13.69140625 C36.39313068 23.11689204 36.39313068 23.11689204 39.75 33.1875 C40.28195066 38.50700657 40.32141729 43.36609258 37.75 48.1875 C33.875 47.3125 33.875 47.3125 32.75 46.1875 C28.91099421 46.16084024 25.08355372 46.21567295 21.24609375 46.31445312 C11.71054616 46.44129531 4.14117946 44.22452563 -4.4375 40.1875 C-15.34033411 34.82873786 -15.34033411 34.82873786 -27.25 34.1875 C-31.63333094 35.88145658 -34.61288617 38.30122699 -37.25 42.1875 C-37.91 42.1875 -38.57 42.1875 -39.25 42.1875 C-40.67819603 36.29619139 -41.13863268 30.62728646 -38.48828125 25 C-36.35379994 21.8757119 -33.4652373 19.63732316 -30.57421875 17.23046875 C-28.3793923 15.30123474 -26.636212 13.33672518 -24.8125 11.0625 C-18.16941183 3.17480515 -10.06804686 0.00860517 0 0 Z " fill="#currentColor" transform="translate(259.25,189.8125)"/>
<path d="M0 0 C3.60430766 1.68273685 5.85951096 3.68139687 8.625 6.5625 C11.51070681 9.69042054 11.51070681 9.69042054 15 12 C13.67798753 14.92527461 12.24813169 17.0026582 9.98381042 19.27015686 C9.05655403 20.20587273 9.05655403 20.20587273 8.11056519 21.16049194 C7.43365631 21.83335236 6.75674744 22.50621277 6.05932617 23.19946289 C4.98828896 24.27575706 4.98828896 24.27575706 3.89561462 25.37379456 C1.53307446 27.74513953 -0.83670995 30.10909088 -3.20703125 32.47265625 C-4.85158589 34.11855804 -6.49584353 35.76475663 -8.13981628 37.41123962 C-11.58744266 40.8618157 -15.03866334 44.30874569 -18.49243164 47.75317383 C-22.91777951 52.16713634 -27.3341011 56.59000356 -31.74776173 61.01564884 C-35.14219549 64.41731292 -38.54138263 67.81419484 -41.94202232 71.20965385 C-43.57216898 72.8384668 -45.2008325 74.4687655 -46.82798195 76.10057259 C-49.10422871 78.38190265 -51.38679632 80.65671567 -53.67114258 82.92993164 C-54.34197876 83.60481628 -55.01281494 84.27970093 -55.70397949 84.97503662 C-58.91436346 88.15652726 -61.88760125 90.99606057 -66 93 C-69.05281683 92.95858582 -70.04449729 91.96102804 -72.359375 89.93359375 C-73.14828125 89.10988281 -73.9371875 88.28617187 -74.75 87.4375 C-75.54921875 86.61121094 -76.3484375 85.78492188 -77.171875 84.93359375 C-77.77515625 84.29550781 -78.3784375 83.65742188 -79 83 C-74.84483016 71.0053687 -61.07499328 60.94506795 -52.24609375 52.1484375 C-50.73416044 50.63837296 -49.2224505 49.12808475 -47.71095276 47.61758423 C-43.76278768 43.67320821 -39.81162716 39.7318465 -35.85980225 35.7911377 C-31.81550329 31.75713114 -27.77409004 27.72023579 -23.73242188 23.68359375 C-15.82441173 15.78625713 -7.9132292 7.89210682 0 0 Z " fill="#currentColor" transform="translate(386,222)"/>
<path d="M0 0 C-0.0612437 11.23992802 -0.13837369 22.47962446 -0.23571491 33.71930122 C-0.28041812 38.93850278 -0.31967448 44.15762628 -0.34643555 49.37695312 C-0.37246883 54.4150982 -0.41287172 59.4529429 -0.46318626 64.49090195 C-0.47985475 66.41175471 -0.49136914 68.33265943 -0.49761391 70.25357437 C-0.50725511 72.94687544 -0.53531466 75.6394081 -0.56762695 78.33251953 C-0.56547432 79.52043343 -0.56547432 79.52043343 -0.5632782 80.73234558 C-0.6586683 86.36438421 -1.76391376 90.62446963 -5.75390625 94.86328125 C-6.64916016 95.58064453 -6.64916016 95.58064453 -7.5625 96.3125 C-8.46162109 97.04919922 -8.46162109 97.04919922 -9.37890625 97.80078125 C-12.61539378 100.19500214 -14.84038204 100.12172761 -18.82666016 100.11352539 C-20.04777496 100.11344986 -21.26888977 100.11337433 -22.52700806 100.11329651 C-23.86435995 100.10818952 -25.20171143 100.10297352 -26.5390625 100.09765625 C-27.90383859 100.0957914 -29.26861534 100.09436781 -30.63339233 100.09336853 C-34.22715093 100.08954863 -37.82086917 100.07972283 -41.41461182 100.06866455 C-45.08108982 100.05843911 -48.74757435 100.05386848 -52.4140625 100.04882812 C-59.60939341 100.0381001 -66.80469105 100.02102999 -74 100 C-74 96.7 -74 93.4 -74 90 C-72.3600708 90.01047363 -70.7201416 90.02094727 -69.03051758 90.03173828 C-62.94574161 90.06794055 -56.86097517 90.09090145 -50.77612305 90.10986328 C-48.14264322 90.1199203 -45.50917455 90.1335676 -42.87573242 90.15087891 C-39.090304 90.1751399 -35.30502324 90.1864862 -31.51953125 90.1953125 C-29.7536541 90.21079636 -29.7536541 90.21079636 -27.95210266 90.22659302 C-26.85133896 90.22674408 -25.75057526 90.22689514 -24.61645508 90.22705078 C-23.65048904 90.231492 -22.68452301 90.23593323 -21.68928528 90.24050903 C-18.73256301 89.97608249 -16.63568479 89.35994381 -14 88 C-11.49345718 84.24018577 -11.77679832 82.31841286 -11.82397461 77.82568359 C-11.82838562 77.09843079 -11.83279663 76.37117798 -11.83734131 75.62188721 C-11.84718725 74.04223179 -11.86104677 72.46259749 -11.87843132 70.88300705 C-11.91083496 67.51617659 -11.90840052 64.14965392 -11.90814304 60.78269386 C-11.9082866 54.51636118 -11.92323331 48.25080723 -11.99633789 41.98486328 C-12.04588018 37.62367049 -12.05121444 33.26430053 -12.02820015 28.90291214 C-12.02763384 27.24678766 -12.0431793 25.59057137 -12.07563591 23.93476486 C-12.31826968 11.02618132 -12.31826968 11.02618132 -8.99783325 5.92266846 C-3.24748024 0 -3.24748024 0 0 0 Z " fill="#currentColor" transform="translate(349,300)"/>
<path d="M0 0 C3.50292178 2.01093658 5.44519555 3.16460919 6.62109375 7.0546875 C6.93188257 10.720727 6.5822604 13.10372924 4.55859375 16.21875 C2.79447445 18.26101338 0.94696481 20.13293224 -1 22 C-1.721875 22.845625 -2.44375 23.69125 -3.1875 24.5625 C-5 26 -5 26 -7.0625 25.9375 C-9.22062052 24.89324813 -10.5040629 23.86992138 -12 22 C-12 21.34 -12 20.68 -12 20 C-12.5775 19.7525 -13.155 19.505 -13.75 19.25 C-16.3002997 17.83316683 -18.01785701 16.12372463 -20 14 C-18.5466378 10.65876526 -16.70404484 8.43458035 -14.125 5.875 C-13.44695312 5.19179687 -12.76890625 4.50859375 -12.0703125 3.8046875 C-8.22108461 0.44932281 -5.12940998 -0.7181174 0 0 Z " fill="#currentColor" transform="translate(413,203)"/>
<path d="M0 0 C1.03447266 0.00483398 1.03447266 0.00483398 2.08984375 0.00976562 C2.77949219 -0.00634766 3.46914063 -0.02246094 4.1796875 -0.0390625 C6.18359375 -0.04101562 6.18359375 -0.04101562 9.58984375 0.32226562 C11.58984375 3.32226562 11.58984375 3.32226562 11.27734375 5.94726562 C10.58984375 8.32226562 10.58984375 8.32226562 9.58984375 9.32226562 C7.09745806 9.4487976 4.64513934 9.50746387 2.15234375 9.50976562 C1.11110352 9.52813477 1.11110352 9.52813477 0.04882812 9.546875 C-1.77236526 9.55216404 -3.59302545 9.4439577 -5.41015625 9.32226562 C-7.41015625 7.32226562 -7.41015625 7.32226562 -7.66015625 4.82226562 C-7.16541608 -0.12513609 -4.3491477 0.04662829 0 0 Z " fill="#currentColor" transform="translate(256.41015625,390.677734375)"/>
<path d="M0 0 C0 4.95 0 9.9 0 15 C-7 14 -7 14 -8.9375 12.875 C-10.64550843 9.86086748 -10.36204814 7.37911601 -10 4 C-7.11197734 0.06178729 -4.9343497 0 0 0 Z " fill="#currentColor" transform="translate(219,252)"/>
<path d="M0 0 C7 1 7 1 9 2.625 C10.48410166 6.14974145 10.05654989 8.36810976 9 12 C5.73106489 14.73883753 4.3339145 15 0 15 C0 10.05 0 5.1 0 0 Z " fill="#currentColor" transform="translate(298,252)"/>
<path d="M0 0 C0.99 0 1.98 0 3 0 C7 4.34285714 7 4.34285714 7 7 C0.565 9.97 0.565 9.97 -6 13 C-5.12650515 9.50602058 -4.19458184 7.31362987 -2.4375 4.25 C-1.98246094 3.45078125 -1.52742188 2.6515625 -1.05859375 1.828125 C-0.53458984 0.92320312 -0.53458984 0.92320312 0 0 Z " fill="#currentColor" transform="translate(301,315)"/>
</svg>
