<?xml version="1.0" encoding="UTF-8"?>
<svg version="1.1" xmlns="http://www.w3.org/2000/svg" width="550" height="550">
<path d="M0 0 C9.8538124 -0.50435315 16.33299849 0.58349996 23.93359375 7.3046875 C24.53913086 7.83610352 25.14466797 8.36751953 25.76855469 8.91503906 C33.68924242 15.93116802 41.15410563 23.34896538 48.2109375 31.23046875 C48.83742188 31.9112146 48.83742188 31.9112146 49.4765625 32.60571289 C50.93359375 34.3046875 50.93359375 34.3046875 52.71875 36.79858398 C56.99629096 42.35428062 60.11036359 44.90396055 67.12890625 46.05078125 C69.77919363 46.3269079 72.40338428 46.55896967 75.05859375 46.7421875 C91.65208768 48.18936435 91.65208768 48.18936435 96.93359375 51.3046875 C99.6313339 55.35129773 99.80657702 58.55732135 98.93359375 63.3046875 C96.83448327 66.42154852 96.30123879 67.08974025 92.93359375 68.3046875 C87.91560645 68.95709525 82.96498365 68.62021856 77.93359375 68.3046875 C76.89235352 68.24861328 75.85111328 68.19253906 74.77832031 68.13476562 C71.28673706 67.94194833 67.79791009 67.7222815 64.30859375 67.4921875 C62.60074707 67.38765259 62.60074707 67.38765259 60.85839844 67.28100586 C59.77719727 67.19987549 58.69599609 67.11874512 57.58203125 67.03515625 C56.61442871 66.96707764 55.64682617 66.89899902 54.64990234 66.82885742 C50.23744025 65.97737835 47.05610773 63.62791485 43.8203125 60.60546875 C43.29501953 60.11884766 42.76972656 59.63222656 42.22851562 59.13085938 C41.4328418 58.3815918 41.4328418 58.3815918 40.62109375 57.6171875 C40.07130859 57.10607422 39.52152344 56.59496094 38.95507812 56.06835938 C37.61092995 54.81771716 36.27174775 53.56174126 34.93359375 52.3046875 C31.93359434 54.93545621 30.2097732 58.04648582 28.24609375 61.4921875 C27.62347656 62.57886719 27.00085938 63.66554687 26.359375 64.78515625 C25.88886719 65.61660156 25.41835938 66.44804687 24.93359375 67.3046875 C25.71863281 67.51222656 26.50367188 67.71976562 27.3125 67.93359375 C34.69553586 70.09868034 39.12889929 72.32675369 43.93359375 78.3046875 C44.57039062 79.08714844 45.2071875 79.86960937 45.86328125 80.67578125 C47.33689498 82.49215861 48.80532447 84.31274982 50.26953125 86.13671875 C53.9182235 90.56646361 57.90857428 94.69177971 61.88500977 98.82617188 C72.54693321 110.02339029 72.54693321 110.02339029 73.55859375 115.9921875 C72.80778024 119.97149908 71.94714993 121.60021401 68.93359375 124.3046875 C65.55859375 125.8046875 65.55859375 125.8046875 61.93359375 126.3046875 C57.41542089 124.46822962 54.25619206 122.02516698 50.74609375 118.6796875 C46.28387126 114.51373724 41.70687258 110.59959883 36.9296875 106.80078125 C33.93359375 104.3046875 33.93359375 104.3046875 32.04882812 102.16894531 C24.17584175 93.80603855 15.41751042 92.84872436 4.55859375 91.1796875 C2.80676556 90.87803962 1.05545434 90.57337316 -0.6953125 90.265625 C-2.36803355 89.98167538 -4.04119912 89.70032922 -5.71484375 89.421875 C-6.49403168 89.29183075 -7.2732196 89.1617865 -8.07601929 89.02780151 C-11.70745013 88.47341181 -14.57772982 88.10694403 -18.06640625 89.3046875 C-20.10267953 90.98248266 -21.98518788 92.66610193 -23.87890625 94.4921875 C-24.43642578 95.0166748 -24.99394531 95.54116211 -25.56835938 96.08154297 C-28.07732445 98.44426726 -30.56725993 100.82660944 -33.05615234 103.21044922 C-34.39903895 104.49496355 -35.74448382 105.77680894 -37.0925293 107.0559082 C-38.38557796 108.28338482 -39.67246732 109.51739021 -40.95239258 110.75854492 C-46.9596601 116.46133784 -46.9596601 116.46133784 -51.06640625 117.3046875 C-58.73289614 116.97645857 -66.19750075 115.09859628 -73.66040039 113.40332031 C-75.75795466 112.92877159 -77.85822927 112.46795693 -79.95898438 112.0078125 C-81.31138403 111.70395217 -82.66360433 111.39929221 -84.015625 111.09375 C-85.22565186 110.82256348 -86.43567871 110.55137695 -87.68237305 110.27197266 C-92.65167385 108.85155784 -96.1528766 107.67498197 -99.06640625 103.3046875 C-99.61242659 99.91361379 -99.61268549 96.69594574 -99.06640625 93.3046875 C-96.87617707 90.48044462 -95.23623418 88.88960147 -92.06640625 87.3046875 C-83.9759606 87.45137619 -76.03429549 88.57631428 -68.06640625 89.89453125 C-64.01565016 90.44834556 -60.14800375 90.44304674 -56.06640625 90.3046875 C-55.73640625 89.6446875 -55.40640625 88.9846875 -55.06640625 88.3046875 C-54.40640625 88.3046875 -53.74640625 88.3046875 -53.06640625 88.3046875 C-52.79723389 87.70084229 -52.52806152 87.09699707 -52.25073242 86.47485352 C-51.05336916 84.28079826 -50.01763075 83.16656427 -48.1171875 81.58203125 C-36.49057358 71.30690857 -29.92894492 59.25930995 -22.81787109 45.61279297 C-20.21885003 40.70385299 -17.43819537 35.90797916 -14.62890625 31.1171875 C-14.16194336 30.31571289 -13.69498047 29.51423828 -13.21386719 28.68847656 C-12.16718501 26.89243763 -11.117234 25.09830409 -10.06640625 23.3046875 C-15.063634 22.98710667 -19.37706886 22.95827717 -23.4140625 26.17578125 C-25.73744302 28.81119473 -27.89766365 31.54081857 -30.06640625 34.3046875 C-31.90512987 36.38042887 -33.79779596 38.40406221 -35.69140625 40.4296875 C-39.41467333 44.45760305 -43.04041789 48.54939727 -46.53125 52.78125 C-48.27440216 54.51109566 -49.78088081 55.41636804 -52.06640625 56.3046875 C-55.1017699 56.11884891 -57.28902872 55.74520143 -59.94140625 54.2421875 C-61.78475862 51.06752508 -61.63284714 47.82829453 -61.06640625 44.3046875 C-59.72031907 41.41507249 -57.88611226 39.00722758 -55.94140625 36.4921875 C-55.41095703 35.77514648 -54.88050781 35.05810547 -54.33398438 34.31933594 C-53.19371688 32.78110052 -52.04531676 31.24886665 -50.88964844 29.72216797 C-48.99961234 27.21612385 -47.14294608 24.68808032 -45.29296875 22.15234375 C-41.90798335 17.51829435 -38.50888019 12.89621609 -35.06640625 8.3046875 C-34.35484375 7.34046875 -33.64328125 6.37625 -32.91015625 5.3828125 C-30.52198399 2.69105902 -28.45577342 1.50715498 -24.87841797 0.98583984 C-23.69916748 0.9387085 -23.69916748 0.9387085 -22.49609375 0.890625 C-21.60833252 0.85130859 -20.72057129 0.81199219 -19.8059082 0.77148438 C-18.86062256 0.74119141 -17.91533691 0.71089844 -16.94140625 0.6796875 C-15.47610474 0.63038086 -15.47610474 0.63038086 -13.98120117 0.58007812 C-11.97604373 0.51621027 -9.97074456 0.45664854 -7.96533203 0.40136719 C-5.30528018 0.31265399 -2.65613237 0.16604132 0 0 Z " fill="#FFFFFF" transform="translate(275.06640625,179.6953125)"/>
<path d="M0 0 C2.38912365 3.58368547 2.27088134 5.22995899 2.31884766 9.4909668 C2.32889328 10.1448941 2.3389389 10.79882141 2.34928894 11.4725647 C2.38015014 13.63144054 2.39716381 15.79019221 2.4140625 17.94921875 C2.43277183 19.4470985 2.45234507 20.94496768 2.4727478 22.44282532 C2.52410001 26.3833697 2.56370905 30.32394827 2.60089111 34.26464844 C2.64091149 38.28654457 2.69201278 42.30829813 2.7421875 46.33007812 C2.83898331 54.21995473 2.92337626 62.10990183 3 70 C3.60328125 69.97679687 4.2065625 69.95359375 4.828125 69.9296875 C5.62734375 69.91164063 6.4265625 69.89359375 7.25 69.875 C8.43335938 69.84019531 8.43335938 69.84019531 9.640625 69.8046875 C12.24614317 70.02037609 13.79986977 70.6078822 16 72 C17.5635348 75.12706959 17.39958487 78.57982443 17 82 C15 85 15 85 13.18530273 85.52270508 C7.43464814 86.00689647 1.82279654 86.01730521 -3.9375 85.6875 C-5.21077148 85.63432617 -5.21077148 85.63432617 -6.50976562 85.58007812 C-7.31994141 85.53689453 -8.13011719 85.49371094 -8.96484375 85.44921875 C-9.6930835 85.41143311 -10.42132324 85.37364746 -11.17163086 85.3347168 C-13 85 -13 85 -15 83 C-15.2784729 81.20297241 -15.2784729 81.20297241 -15.31884766 79.00927734 C-15.33890869 78.17710693 -15.35896973 77.34493652 -15.37963867 76.48754883 C-15.39099854 75.61251709 -15.4023584 74.73748535 -15.4140625 73.8359375 C-15.43170654 73.03196533 -15.44935059 72.22799316 -15.4675293 71.3996582 C-15.5306741 68.39164359 -15.57680704 65.38329131 -15.625 62.375 C-15.74875 55.65125 -15.8725 48.9275 -16 42 C-50.155 48.93 -50.155 48.93 -85 56 C-85.33 67.22 -85.66 78.44 -86 90 C-81.71 90 -77.42 90 -73 90 C-71 92 -71 92 -70.76953125 94.56640625 C-70.78371094 95.55511719 -70.79789063 96.54382813 -70.8125 97.5625 C-70.81894531 98.55378906 -70.82539063 99.54507813 -70.83203125 100.56640625 C-71 103 -71 103 -72 104 C-76.1152898 104.24166663 -80.23391265 104.22849275 -84.35571289 104.24023438 C-86.42570099 104.24994465 -88.49469815 104.28095712 -90.56445312 104.3125 C-91.86189453 104.31765625 -93.15933594 104.3228125 -94.49609375 104.328125 C-96.29324829 104.34214355 -96.29324829 104.34214355 -98.12670898 104.35644531 C-99.07489502 104.23881836 -100.02308105 104.12119141 -101 104 C-103.42559683 100.36160475 -103.28909465 97.67608928 -103.2746582 93.47094727 C-103.2823246 92.32412979 -103.2823246 92.32412979 -103.29014587 91.15414429 C-103.30405502 88.62481882 -103.30308413 86.09576543 -103.30078125 83.56640625 C-103.30466748 81.80907591 -103.309002 80.05174651 -103.31376648 78.29441833 C-103.32123154 74.60990352 -103.32093536 70.92548453 -103.31567383 67.2409668 C-103.30987903 62.51850947 -103.32680894 57.79644433 -103.3500185 53.07405186 C-103.36474803 49.44436854 -103.36562861 45.81477985 -103.36250877 42.18507195 C-103.36302239 40.44394084 -103.36826765 38.7028045 -103.37832069 36.96170235 C-103.39065273 34.52702453 -103.38391328 32.09311275 -103.37231445 29.65844727 C-103.37995819 28.93883316 -103.38760193 28.21921906 -103.39547729 27.47779846 C-103.36556683 24.63834432 -103.1214542 22.29549442 -102.0381012 19.659729 C-98.76290086 16.99256753 -95.10456329 16.56051375 -91.01806641 15.78588867 C-90.09907059 15.59838043 -89.18007477 15.41087219 -88.23323059 15.21768188 C-85.19232713 14.60166936 -82.14733353 14.00940483 -79.1015625 13.41796875 C-76.98767508 12.99645611 -74.87402001 12.57377673 -72.7605896 12.14997864 C-68.32900092 11.26496656 -63.89540021 10.3911375 -59.45996094 9.52563477 C-53.77453379 8.41573755 -48.09395826 7.28302626 -42.41460609 6.14249706 C-38.04951396 5.26769109 -33.68253062 4.40266478 -29.3148613 3.5408268 C-27.21960046 3.12663022 -25.12483024 2.70994378 -23.03056717 2.29073143 C-20.10240297 1.70661106 -17.17205361 1.13512275 -14.24072266 0.56713867 C-13.37509201 0.39216354 -12.50946136 0.21718842 -11.61759949 0.03691101 C-3.78979946 -1.45384572 -3.78979946 -1.45384572 0 0 Z " fill="#FFFFFF" transform="translate(318,296)"/>
<path d="M0 0 C6.5036883 2.92344009 10.78253166 8.65650976 14.34765625 14.63671875 C16.50883684 22.26441495 16.55519442 30.13532441 12.86328125 37.28515625 C8.0588701 44.2334713 1.73430195 48.8501829 -6.58984375 50.38671875 C-13.35609699 51.13852467 -18.58615514 49.58039076 -24.58984375 46.38671875 C-27.46484375 43.94921875 -27.46484375 43.94921875 -29.58984375 41.38671875 C-30.29109375 40.66484375 -30.99234375 39.94296875 -31.71484375 39.19921875 C-35.81699951 33.04598511 -37.37489724 26.22402421 -36.28125 18.90234375 C-34.06410575 10.83544604 -29.6193984 5.69357724 -22.54296875 1.4453125 C-16.16218707 -2.01307117 -7.04776385 -1.66892749 0 0 Z " fill="#FFFFFF" transform="translate(335.58984375,150.61328125)"/>
</svg>
