<?xml version="1.0" encoding="UTF-8"?>
<svg version="1.1" xmlns="http://www.w3.org/2000/svg" width="550" height="550">
<path d="M0 0 C0.92804443 0.00563965 1.85608887 0.0112793 2.81225586 0.01708984 C22.05526565 0.35684056 36.39596602 8.83207112 49.75 22.25 C50.471875 23.00152344 51.19375 23.75304687 51.9375 24.52734375 C53.63628114 26.38439409 53.63628114 26.38439409 55.75 27.3125 C54.16568547 31.22101199 51.48364905 33.83617356 48.5234375 36.734375 C47.76191879 37.49164886 47.76191879 37.49164886 46.98501587 38.26422119 C45.36966158 39.86842096 43.74747791 41.46550856 42.125 43.0625 C41.02558302 44.15188107 39.92661941 45.2417199 38.828125 46.33203125 C36.1406398 48.99751885 33.44700979 51.65665143 30.75 54.3125 C27.47747571 52.76922414 25.50860536 51.18199812 23.0625 48.5 C16.70747488 41.9667966 9.76950842 38.25327356 0.625 38 C-7.014994 38.10186659 -13.36495792 40.27674999 -19.125 45.375 C-23.95625948 50.70880184 -26.35316351 57.66944309 -26.75 64.8125 C-26.35316351 71.95555691 -23.95625948 78.91619816 -19.125 84.25 C-12.77229727 89.87281774 -5.37890493 92.07375719 3.02734375 91.68359375 C18.09010169 89.63056361 28.20728697 75.97885623 38.32362175 65.72234726 C40.386335 63.63258663 42.45373826 61.54757239 44.52259827 59.46389771 C50.39765406 53.5464891 56.26983498 47.62631732 62.12573242 41.68994141 C65.72707155 38.03979429 69.33834791 34.3997326 72.95608711 30.76584244 C74.3211588 29.39095196 75.6825885 28.01243449 77.04008293 26.6300621 C91.36229982 12.05107537 106.98610854 0.38555548 128.19555664 -0.11889648 C147.25361546 -0.16334573 163.25927623 5.36008517 177.3671875 18.7421875 C185.18077219 27.17061164 190.27296514 36.3367996 193.75 47.3125 C194.29527344 48.92705078 194.29527344 48.92705078 194.8515625 50.57421875 C198.7593004 66.83380644 195.37486955 83.24106099 187.5 97.6875 C177.72292183 113.19235144 163.38766645 124.0140852 145.50390625 128.421875 C127.96982522 132.13684668 110.71972578 128.86862599 95.57080078 119.54833984 C91.47137729 116.76592073 87.96322866 113.38532412 84.43359375 109.92578125 C81.64699895 107.21219767 78.76329328 104.76826765 75.75 102.3125 C77.33431453 98.40398801 80.01635095 95.78882644 82.9765625 92.890625 C83.48424164 92.38577576 83.99192078 91.88092651 84.51498413 91.36077881 C86.13033842 89.75657904 87.75252209 88.15949144 89.375 86.5625 C90.47441698 85.47311893 91.57338059 84.3832801 92.671875 83.29296875 C95.3593602 80.62748115 98.05299021 77.96834857 100.75 75.3125 C104.02252429 76.85577586 105.99139464 78.44300188 108.4375 81.125 C114.79252512 87.6582034 121.73049158 91.37172644 130.875 91.625 C138.514994 91.52313341 144.86495792 89.34825001 150.625 84.25 C155.45625948 78.91619816 157.85316351 71.95555691 158.25 64.8125 C157.85316351 57.66944309 155.45625948 50.70880184 150.625 45.375 C144.27229727 39.75218226 136.87890493 37.55124281 128.47265625 37.94140625 C113.42127685 39.99288551 103.31574396 53.62286599 93.20694351 63.87208748 C91.14816126 65.95792718 89.08468113 68.03901245 87.01974487 70.11875916 C81.15571394 76.02512873 75.29452501 81.93422864 69.44970703 87.85961914 C65.8548772 91.50331703 62.25005909 95.13687777 58.63879013 98.76428032 C57.27732957 100.13554686 55.91950706 101.51043663 54.56564713 102.88920784 C45.05648029 112.56951567 35.5292044 121.956481 22.3125 126.25 C21.17941406 126.63027344 20.04632813 127.01054687 18.87890625 127.40234375 C2.83708945 132.06868996 -15.16286086 130.13774041 -30 122.625 C-45.52275431 113.42205948 -58.17694884 99.276142 -62.88378906 81.50708008 C-65.28550652 67.11438794 -65.44832865 49.30948228 -58.25 36.3125 C-57.71890625 35.33925781 -57.1878125 34.36601562 -56.640625 33.36328125 C-46.83282865 16.874486 -32.82630218 6.66546511 -14.53515625 1.203125 C-9.700496 0.04232645 -4.95323778 -0.03147768 0 0 Z " fill="#FFFFFF" transform="translate(209.25,197.6875)"/>
</svg>
