<?xml version="1.0" encoding="UTF-8"?>
<svg version="1.1" xmlns="http://www.w3.org/2000/svg" width="550" height="550">
<path d="M0 0 C3.57623788 1.9137306 5.69762236 4.09286708 7 8 C7.12095436 10.73375175 7.18812986 13.44121138 7.203125 16.17578125 C7.20882507 16.97856003 7.21452515 17.78133881 7.22039795 18.60844421 C7.22984039 20.30722743 7.23637893 22.0060289 7.24023438 23.70483398 C7.24992504 26.29248376 7.28094858 28.87933396 7.3125 31.46679688 C7.31903201 33.11978697 7.32428171 34.77278272 7.328125 36.42578125 C7.3404718 37.19473221 7.3528186 37.96368317 7.36553955 38.75593567 C7.34239267 44.39115291 6.20971287 48.5544477 2.31640625 52.86328125 C1.73761719 53.34152344 1.15882813 53.81976563 0.5625 54.3125 C-0.01371094 54.80363281 -0.58992188 55.29476562 -1.18359375 55.80078125 C-5.44974974 58.61736166 -10.31851923 58.11869779 -15.25 58.0625 C-19.08625 58.0315625 -19.08625 58.0315625 -23 58 C-23 66.25 -23 74.5 -23 83 C-17.01690867 82.88198846 -17.01690867 82.88198846 -11.03466797 82.72973633 C-4.33330994 82.66336505 -0.32850906 83.7641572 4.63793945 88.53295898 C7.87696283 92.53659253 7.6401879 96.36792303 7.48828125 101.3359375 C7.48120651 102.21528961 7.47413177 103.09464172 7.46684265 104.00064087 C7.43898536 106.79298103 7.37626555 109.58327209 7.3125 112.375 C7.28740582 114.2747105 7.26459461 116.17445262 7.24414062 118.07421875 C7.18918737 122.71692824 7.10297692 127.35811743 7 132 C7.9477832 132.13954102 8.89556641 132.27908203 9.87207031 132.42285156 C14.4571635 133.26886782 16.90100278 135.63934603 20 139 C22.30818958 142.91388668 22.48999518 146.50837751 22 151 C19.78857652 154.01671415 18.57758032 154.90201762 14.85546875 155.53344727 C13.64503906 155.54432373 12.43460937 155.5552002 11.1875 155.56640625 C10.53676514 155.57260483 9.88603027 155.57880341 9.21557617 155.58518982 C7.84392793 155.592273 6.47219345 155.58913995 5.10058594 155.57641602 C3.00554912 155.56253676 0.91497289 155.59664064 -1.1796875 155.63476562 C-2.51562609 155.63571683 -3.85157025 155.63385789 -5.1875 155.62890625 C-6.39792969 155.62963135 -7.60835938 155.63035645 -8.85546875 155.63110352 C-12 155 -12 155 -14.40136719 153.09277344 C-16.6952733 148.65489888 -16.49915394 144.810518 -16.390625 139.88671875 C-16.38496521 138.91716751 -16.37930542 137.94761627 -16.37347412 136.94868469 C-16.35113706 133.86111454 -16.30094498 130.77471761 -16.25 127.6875 C-16.22993158 125.59051159 -16.21168141 123.49350493 -16.1953125 121.39648438 C-16.15468746 116.2635106 -16.07639119 111.13306377 -16 106 C-22.93 106 -29.86 106 -37 106 C-36.95359375 107.65128906 -36.9071875 109.30257812 -36.859375 111.00390625 C-36.82184402 113.19008602 -36.78544529 115.37628542 -36.75 117.5625 C-36.71648437 118.64853516 -36.68296875 119.73457031 -36.6484375 120.85351562 C-36.56792745 127.4754676 -36.83779571 131.72645885 -41 137 C-45.52783474 140.64559446 -49.6937974 140.39407047 -55.23828125 140.29296875 C-56.55943184 140.28660149 -56.55943184 140.28660149 -57.90727234 140.28010559 C-60.7093311 140.26336644 -63.51066009 140.2257233 -66.3125 140.1875 C-68.21678646 140.17244699 -70.12108424 140.15875966 -72.02539062 140.14648438 C-76.68387322 140.11347854 -81.34181305 140.06172929 -86 140 C-86.13019531 141.09828125 -86.26039063 142.1965625 -86.39453125 143.328125 C-87.08501338 147.51556502 -87.98513665 149.06661944 -91 152 C-95.81326533 155.17237942 -99.39822397 155.63245858 -105 155 C-108.0370386 152.79588746 -108.90044095 151.58687439 -109.53344727 147.85546875 C-109.54432373 146.64503906 -109.5552002 145.43460938 -109.56640625 144.1875 C-109.57570412 143.21139771 -109.57570412 143.21139771 -109.58518982 142.21557617 C-109.592273 140.84392793 -109.58913995 139.47219345 -109.57641602 138.10058594 C-109.56253676 136.00554912 -109.59664064 133.91497289 -109.63476562 131.8203125 C-109.63571683 130.48437391 -109.63385789 129.14842975 -109.62890625 127.8125 C-109.62963135 126.60207031 -109.63035645 125.39164062 -109.63110352 124.14453125 C-109 121 -109 121 -106.82641602 118.60522461 C-103.63206832 116.7910382 -101.79732205 116.49715884 -98.1484375 116.50390625 C-96.50101563 116.50293945 -96.50101563 116.50293945 -94.8203125 116.50195312 C-93.68335938 116.52193359 -92.54640625 116.54191406 -91.375 116.5625 C-89.65796875 116.55186523 -89.65796875 116.55186523 -87.90625 116.54101562 C-79.53926234 116.60499847 -79.53926234 116.60499847 -77.13916016 118.36303711 C-76 120 -76 120 -76.1875 122.625 C-77 125 -77 125 -79 126 C-81.3329866 126.04022391 -83.66706666 126.04320247 -86 126 C-86 127.98 -86 129.96 -86 132 C-80.76709303 131.88191597 -75.53438249 131.75767964 -70.30175781 131.62768555 C-68.52087397 131.5843167 -66.73994802 131.54264306 -64.95898438 131.50268555 C-62.40221452 131.4450301 -59.84565702 131.3813223 -57.2890625 131.31640625 C-56.09055161 131.29133751 -56.09055161 131.29133751 -54.86782837 131.26576233 C-50.80193632 131.24607009 -50.80193632 131.24607009 -47 130 C-46.67 122.08 -46.34 114.16 -46 106 C-48.97 105.505 -48.97 105.505 -52 105 C-51.94779297 106.89685547 -51.94779297 106.89685547 -51.89453125 108.83203125 C-51.86639323 110.49217423 -51.83909309 112.15233156 -51.8125 113.8125 C-51.78736328 114.64587891 -51.76222656 115.47925781 -51.73632812 116.33789062 C-51.72666016 117.14033203 -51.71699219 117.94277344 -51.70703125 118.76953125 C-51.6913208 119.50792236 -51.67561035 120.24631348 -51.65942383 121.00708008 C-52.09684464 123.56669732 -52.9698397 124.43017558 -55 126 C-57.375 126.3984375 -57.375 126.3984375 -60 126.375 C-61.299375 126.38660156 -61.299375 126.38660156 -62.625 126.3984375 C-65.41585839 125.93023428 -66.34351287 125.26184788 -68 123 C-67.72963853 120.02602384 -67.14553974 119.14553974 -65 117 C-63.35 117 -61.7 117 -60 117 C-60 97.53 -60 78.06 -60 58 C-61.98 58 -63.96 58 -66 58 C-65.97905273 58.78648926 -65.95810547 59.57297852 -65.93652344 60.38330078 C-65.85312247 63.96373598 -65.80126224 67.54396642 -65.75 71.125 C-65.71648437 72.3625 -65.68296875 73.6 -65.6484375 74.875 C-65.52593582 86.26765651 -65.52593582 86.26765651 -70 91 C-73.41457004 93.59036348 -76.83282171 93.43108741 -81 93 C-84.98732389 90.89348927 -87.48172044 89.26512393 -89 85 C-89.20447642 82.13587605 -89.30407814 79.3718048 -89.30078125 76.5078125 C-89.30506638 75.68425262 -89.3093515 74.86069275 -89.31376648 74.01217651 C-89.31950125 72.27228717 -89.32001632 70.53237385 -89.31567383 68.79248047 C-89.31251925 66.14118139 -89.33596406 63.49100452 -89.36132812 60.83984375 C-89.36360187 59.14583473 -89.36430427 57.45182273 -89.36328125 55.7578125 C-89.372491 54.97012482 -89.38170074 54.18243713 -89.39118958 53.37088013 C-89.34512009 47.84276555 -88.38047504 43.55007632 -84.46484375 39.35546875 C-80.71977285 36.49159101 -78.54226006 34.91405507 -73.8671875 34.68359375 C-73.06152344 34.64169922 -72.25585938 34.59980469 -71.42578125 34.55664062 C-70.58402344 34.51732422 -69.74226563 34.47800781 -68.875 34.4375 C-68.02550781 34.39431641 -67.17601562 34.35113281 -66.30078125 34.30664062 C-64.20071777 34.20045764 -62.10038052 34.09971503 -60 34 C-60.05220703 32.37191406 -60.05220703 32.37191406 -60.10546875 30.7109375 C-60.13362388 29.26564058 -60.16092219 27.82032679 -60.1875 26.375 C-60.21263672 25.66214844 -60.23777344 24.94929688 -60.26367188 24.21484375 C-60.33976724 18.68524712 -59.3785817 14.54804808 -55.46484375 10.35546875 C-49.4387178 5.74725479 -45.51390963 5.41546672 -38 6 C-32.50876503 7.89697208 -30.09225066 10.9358173 -26.8984375 15.61328125 C-25.5167177 19.28384993 -25.79126227 22.8658574 -25.875 26.75 C-25.88402344 27.54277344 -25.89304687 28.33554688 -25.90234375 29.15234375 C-25.92582988 31.10169281 -25.96169863 33.05088575 -26 35 C-22.7 35 -19.4 35 -16 35 C-16.03927612 33.77482666 -16.03927612 33.77482666 -16.0793457 32.52490234 C-16.18356213 28.80846546 -16.24840799 25.09233639 -16.3125 21.375 C-16.35439453 20.08980469 -16.39628906 18.80460937 -16.43945312 17.48046875 C-16.57759155 6.81618254 -16.57759155 6.81618254 -13.60546875 3.1640625 C-9.24695236 -0.45605456 -5.55368153 -0.84796144 0 0 Z M-51 18 C-52.3502109 20.70042181 -52.24311007 22.92451627 -52.3125 25.9375 C-52.34988281 26.99839844 -52.38726562 28.05929688 -52.42578125 29.15234375 C-52.24835623 32.0340893 -52.24835623 32.0340893 -50.43359375 33.8671875 C-47.0971732 35.42025645 -44.41234834 35.2892319 -40.75 35.1875 C-39.48671875 35.16042969 -38.2234375 35.13335937 -36.921875 35.10546875 C-35.47554687 35.05326172 -35.47554687 35.05326172 -34 35 C-34 32.69 -34 30.38 -34 28 C-34.78246094 27.93941406 -35.56492187 27.87882812 -36.37109375 27.81640625 C-37.38300781 27.73261719 -38.39492187 27.64882812 -39.4375 27.5625 C-40.95150391 27.44068359 -40.95150391 27.44068359 -42.49609375 27.31640625 C-45 27 -45 27 -46 26 C-46.04063832 24.33382885 -46.042721 22.66611905 -46 21 C-43.59454362 19.79727181 -42.05003047 19.89928528 -39.375 19.9375 C-38.14910156 19.95103516 -38.14910156 19.95103516 -36.8984375 19.96484375 C-35.95871094 19.98224609 -35.95871094 19.98224609 -35 20 C-36.36983503 16.83884224 -36.9890638 16.0072908 -40 14 C-45.10114766 13.33463291 -47.34690944 14.45128345 -51 18 Z M-8 22 C-8.33 28.27 -8.66 34.54 -9 41 C-11.70183055 42.35091528 -14.11808206 42.33858058 -17.125 42.5625 C-18.22070312 42.64628906 -19.31640625 42.73007813 -20.4453125 42.81640625 C-21.28835937 42.87699219 -22.13140625 42.93757813 -23 43 C-23 44.98 -23 46.96 -23 49 C-20.24894578 49.10812003 -17.50214913 49.18734945 -14.75 49.25 C-13.58404297 49.30027344 -13.58404297 49.30027344 -12.39453125 49.3515625 C-11.64042969 49.36445313 -10.88632812 49.37734375 -10.109375 49.390625 C-9.07248535 49.4220459 -9.07248535 49.4220459 -8.01464844 49.45410156 C-5.01026926 48.77691479 -3.84708874 47.4185637 -2 45 C-1.45325201 42.39977877 -1.45325201 42.39977877 -1.609375 39.578125 C-1.62226563 38.55332031 -1.63515625 37.52851563 -1.6484375 36.47265625 C-1.68195313 35.40917969 -1.71546875 34.34570312 -1.75 33.25 C-1.76804687 32.17105469 -1.78609375 31.09210938 -1.8046875 29.98046875 C-1.85178585 27.31941212 -1.917544 24.66015746 -2 22 C-3.98 22 -5.96 22 -8 22 Z M-80 47 C-81.2263757 49.45275141 -81.11415314 51.0505781 -81.09765625 53.7890625 C-81.09443359 54.73007813 -81.09121094 55.67109375 -81.08789062 56.640625 C-81.07951172 57.62546875 -81.07113281 58.6103125 -81.0625 59.625 C-81.05798828 60.61757812 -81.05347656 61.61015625 -81.04882812 62.6328125 C-81.03702145 65.0886016 -81.020554 67.54427104 -81 70 C-78.69 70 -76.38 70 -74 70 C-74.03480469 68.89140625 -74.06960937 67.7828125 -74.10546875 66.640625 C-74.13361349 65.17709852 -74.16091292 63.71355561 -74.1875 62.25 C-74.21263672 61.52039063 -74.23777344 60.79078125 -74.26367188 60.0390625 C-74.30560162 56.96421425 -74.28851381 54.54929526 -72.84179688 51.79492188 C-70.31760501 49.33497244 -68.72518659 49.46142511 -65.23828125 49.390625 C-64.12001953 49.35839844 -63.00175781 49.32617188 -61.84960938 49.29296875 C-60.68236328 49.27878906 -59.51511719 49.26460937 -58.3125 49.25 C-57.13365234 49.22035156 -55.95480469 49.19070312 -54.74023438 49.16015625 C-51.82675368 49.08938344 -48.91407664 49.03672275 -46 49 C-45.3185177 47.10820797 -45.3185177 47.10820797 -45 45 C-48.83399316 41.16600684 -55.64331233 42.63014091 -60.8125 42.625 C-62.09705078 42.60050781 -63.38160156 42.57601562 -64.70507812 42.55078125 C-66.56229492 42.54498047 -66.56229492 42.54498047 -68.45703125 42.5390625 C-69.59116455 42.53084473 -70.72529785 42.52262695 -71.89379883 42.51416016 C-75.6566262 43.10270267 -77.29828811 44.37026433 -80 47 Z M-52 92 C-50.13433512 95.62793998 -50.13433512 95.62793998 -47 98 C-44.25389113 98.13271366 -41.52892432 98.2099135 -38.78125 98.24609375 C-37.11067162 98.27902107 -35.44009884 98.3122329 -33.76953125 98.34570312 C-31.12943227 98.39320817 -28.48935774 98.4376578 -25.84912109 98.47680664 C-23.30542671 98.51641106 -20.76219285 98.56797157 -18.21875 98.62109375 C-17.42601685 98.6295079 -16.63328369 98.63792206 -15.81652832 98.64659119 C-10.22669833 98.77330167 -10.22669833 98.77330167 -8 101 C-7.68115234 104.07275391 -7.68115234 104.07275391 -7.5859375 107.9765625 C-7.56657135 108.66181 -7.5472052 109.3470575 -7.5272522 110.05307007 C-7.46743169 112.24358644 -7.42106244 114.4341553 -7.375 116.625 C-7.33682237 118.10939802 -7.29777076 119.59377384 -7.2578125 121.078125 C-7.16172916 124.71854685 -7.07770718 128.35913436 -7 132 C-5.02 132 -3.04 132 -1 132 C-0.92587235 126.78559487 -0.87140896 121.57149607 -0.83520508 116.35668945 C-0.82011359 114.58254657 -0.79963809 112.80844102 -0.77368164 111.03442383 C-0.73731359 108.48509513 -0.72027762 105.93625941 -0.70703125 103.38671875 C-0.69154739 102.59287277 -0.67606354 101.79902679 -0.66011047 100.98112488 C-0.56913203 96.89433685 -0.56913203 96.89433685 -2.22460938 93.28771973 C-4.53621906 91.61107159 -5.90530679 91.63704966 -8.74682617 91.65942383 C-9.70759567 91.65965042 -10.66836517 91.65987701 -11.6582489 91.66011047 C-13.20993523 91.68333626 -13.20993523 91.68333626 -14.79296875 91.70703125 C-15.85413406 91.71127609 -16.91529938 91.71552094 -18.00862122 91.71989441 C-21.40183765 91.73670294 -24.79446272 91.77435981 -28.1875 91.8125 C-30.48631956 91.827544 -32.78514841 91.84123289 -35.08398438 91.85351562 C-40.72285842 91.88661355 -46.36138697 91.9368347 -52 92 Z " fill="#currentColor" transform="translate(272,151)"/>
<path d="M0 0 C0.78244583 -0.00832352 1.56489166 -0.01664703 2.37104797 -0.02522278 C4.96046916 -0.0493396 7.54963853 -0.05809686 10.13916016 -0.06469727 C11.9389351 -0.07366232 13.73870928 -0.08278414 15.53848267 -0.09205627 C19.31294568 -0.10855339 23.08731991 -0.1162477 26.86181641 -0.11914062 C31.69648017 -0.12452523 36.5303087 -0.16220499 41.36473656 -0.20788479 C45.08282512 -0.23763955 48.80071217 -0.24486383 52.51890945 -0.24586678 C54.30111135 -0.25007224 56.08331368 -0.26251967 57.86539841 -0.28338432 C60.3601075 -0.31026702 62.85287587 -0.30548381 65.34765625 -0.29296875 C66.08237656 -0.30780304 66.81709686 -0.32263733 67.57408142 -0.33792114 C71.25774878 -0.28534574 73.20403119 0.23849514 76.26397705 2.33317566 C78.84279635 6.09309513 78.98220074 9.0739576 78.88671875 13.47729492 C78.88905518 14.28596512 78.8913916 15.09463531 78.89379883 15.92781067 C78.89540918 18.59112882 78.86143333 21.25270019 78.82666016 23.91577148 C78.81986985 25.76710383 78.81514819 27.61844483 78.81240845 29.4697876 C78.80174114 33.34347729 78.77506487 37.21658835 78.73535156 41.09008789 C78.6843426 46.06601261 78.65931776 51.04160564 78.6444149 56.01775742 C78.62965977 60.7546418 78.60441588 65.49144751 78.57666016 70.22827148 C78.57174938 71.13707817 78.56683861 72.04588486 78.56177902 72.98223114 C78.54557666 75.53926783 78.52217642 78.09612346 78.49609375 80.65307617 C78.4918338 81.41773697 78.48757385 82.18239777 78.48318481 82.9702301 C78.41834457 88.19127457 78.41834457 88.19127457 77.30322266 89.30639648 C74.86572266 89.49389648 74.86572266 89.49389648 72.30322266 89.30639648 C70.30322266 87.30639648 70.30322266 87.30639648 70.06271362 85.31954956 C70.06715485 84.50680573 70.07159607 83.69406189 70.07617188 82.85668945 C70.07632294 81.93588593 70.076474 81.0150824 70.07662964 80.06637573 C70.08695221 79.07050446 70.09727478 78.07463318 70.10791016 77.04858398 C70.11074005 76.03039581 70.11356995 75.01220764 70.1164856 73.96316528 C70.12770495 70.70245748 70.1528127 67.44202165 70.17822266 64.18139648 C70.18825019 61.97436919 70.19737643 59.76733761 70.20556641 57.56030273 C70.22764998 52.14224076 70.26114471 46.72433805 70.30322266 41.30639648 C69.38283203 40.89260742 69.38283203 40.89260742 68.44384766 40.47045898 C65.63070546 38.94068458 64.18399157 36.85886858 62.30322266 34.30639648 C58.78130638 34.56727917 58.09046998 35.5495424 55.67822266 38.30639648 C54.89447266 39.29639648 54.11072266 40.28639648 53.30322266 41.30639648 C49.84113289 43.03744137 46.08876544 42.78532997 42.30322266 42.30639648 C38.81156204 40.18103785 36.58706681 37.67206155 34.30322266 34.30639648 C30.78130638 34.56727917 30.09046998 35.5495424 27.67822266 38.30639648 C26.89447266 39.29639648 26.11072266 40.28639648 25.30322266 41.30639648 C21.82897478 43.04352042 18.09339799 42.90415377 14.30322266 42.30639648 C11.42822266 39.99389648 11.42822266 39.99389648 9.30322266 37.30639648 C7.8663031 35.44838409 7.8663031 35.44838409 6.30322266 34.30639648 C4.31213582 34.09087293 4.31213582 34.09087293 2.30322266 35.30639648 C1.3944516 36.29728541 0.52176141 37.32191603 -0.32177734 38.36889648 C-1.10552734 39.33827148 -1.88927734 40.30764648 -2.69677734 41.30639648 C-3.35677734 41.30639648 -4.01677734 41.30639648 -4.69677734 41.30639648 C-4.69677734 70.01639648 -4.69677734 98.72639648 -4.69677734 128.30639648 C20.05322266 128.30639648 44.80322266 128.30639648 70.30322266 128.30639648 C70.30322266 119.39639648 70.30322266 110.48639648 70.30322266 101.30639648 C72.30322266 99.30639648 72.30322266 99.30639648 74.86572266 99.11889648 C77.30322266 99.30639648 77.30322266 99.30639648 78.30322266 100.30639648 C78.40413741 102.88829095 78.44293764 105.44286149 78.43603516 108.02514648 C78.43699188 108.79822144 78.43794861 109.57129639 78.43893433 110.36779785 C78.43961606 112.00537192 78.43776222 113.64294867 78.43359375 115.28051758 C78.42824537 117.79571569 78.43353892 120.31073522 78.43994141 122.82592773 C78.43928062 124.41316771 78.43799946 126.00040758 78.43603516 127.58764648 C78.43805939 128.34493042 78.44008362 129.10221436 78.44216919 129.88244629 C78.41817397 135.19144517 78.41817397 135.19144517 77.30322266 136.30639648 C74.5446869 136.41754411 71.81095412 136.46379248 69.05151367 136.4675293 C68.18651245 136.4724942 67.32151123 136.47745911 66.43029785 136.48257446 C63.55590025 136.497234 60.68155781 136.50400397 57.80712891 136.50952148 C55.81794736 136.51526932 53.82876584 136.52102709 51.83958435 136.52679443 C47.66396831 136.53731489 43.48837158 136.54315087 39.31274414 136.54663086 C33.95110195 136.55212122 28.58971301 136.57615643 23.22815037 136.60460281 C19.11817163 136.62318615 15.00825444 136.62843246 10.89823723 136.62996674 C8.9209956 136.63300298 6.94375529 136.64106396 4.96655464 136.65415192 C2.20561327 136.67112464 -0.55470209 136.66935398 -3.31567383 136.6628418 C-4.13912796 136.67205658 -4.96258209 136.68127136 -5.81098938 136.69076538 C-8.08421326 136.67388916 -8.08421326 136.67388916 -11.69677734 136.30639648 C-13.88870125 133.01851063 -13.94887969 132.05528536 -13.95747375 128.24052429 C-13.96455856 127.193302 -13.97164337 126.14607971 -13.97894287 125.06712341 C-13.97646545 123.91849319 -13.97398804 122.76986298 -13.97143555 121.58642578 C-13.97654648 120.37642914 -13.98165741 119.1664325 -13.98692322 117.91976929 C-13.99845497 114.5993198 -14.00089046 111.27911968 -13.99835992 107.95866752 C-13.99729053 105.18544689 -14.00217298 102.41224931 -14.00696534 99.63903362 C-14.01806539 93.09397365 -14.01849578 86.54897107 -14.01245117 80.00390625 C-14.00641604 73.25730336 -14.0187094 66.51090927 -14.04002124 59.76434201 C-14.05765383 53.96889312 -14.06363582 48.17351057 -14.0603835 42.37803584 C-14.05857243 38.91815665 -14.06118866 35.45842625 -14.07509804 31.9985714 C-14.09004016 28.13714837 -14.0806917 24.27598965 -14.0690918 20.41455078 C-14.07673553 19.27199326 -14.08437927 18.12943573 -14.09225464 16.95225525 C-14.05520455 11.3760713 -14.02015521 7.03564421 -10.69677734 2.30639648 C-7.02593027 -0.1408349 -4.24735506 0.00382136 0 0 Z " fill="#currentColor" transform="translate(321.69677734375,263.693603515625)"/>
<path d="M0 0 C0.76177048 -0.0087616 1.52354095 -0.01752319 2.30839539 -0.02655029 C4.81230587 -0.04845567 7.31443273 -0.03402471 9.81835938 -0.01708984 C11.56661313 -0.02046057 13.31486459 -0.02531532 15.06311035 -0.03158569 C18.72150045 -0.03894496 22.37927884 -0.02828245 26.03759766 -0.00488281 C30.71863751 0.0236049 35.39824395 0.00719578 40.07923126 -0.02274513 C43.6876295 -0.040844 47.29568989 -0.03504833 50.90409851 -0.02210617 C52.62961498 -0.01877929 54.35516249 -0.02283396 56.0806427 -0.03450394 C58.49599013 -0.04725612 60.90904165 -0.02777846 63.32421875 0 C64.03192917 -0.01012115 64.73963959 -0.02024231 65.46879578 -0.03067017 C71.06163131 0.08803318 73.38688304 1.80372605 77.16210938 5.64697266 C77.93505859 7.96655273 77.93505859 7.96655273 77.96679688 10.41650391 C77.99281982 11.36904053 78.01884277 12.32157715 78.0456543 13.30297852 C78.04283447 14.34462158 78.04001465 15.38626465 78.03710938 16.45947266 C78.05555908 17.55718994 78.07400879 18.65490723 78.09301758 19.78588867 C78.13708613 22.98986808 78.15060798 26.19261642 78.15423584 29.39685059 C78.16592798 32.73826541 78.20783596 36.0792258 78.24609375 39.42042542 C78.29489333 43.97502714 78.32237286 48.52970044 78.34960938 53.08447266 C78.35692078 53.98275787 78.36423218 54.88104309 78.37176514 55.80654907 C78.38945437 58.37715902 78.39313464 60.94740331 78.39257812 63.51806641 C78.39969315 64.29509918 78.40680817 65.07213196 78.41413879 65.87271118 C78.3982164 69.67333581 78.32305764 71.40555026 76.16210938 74.64697266 C73.29681882 74.93844798 70.64798889 75.03550066 67.78100586 75.00341797 C66.91425232 75.00546234 66.04749878 75.00750671 65.15447998 75.00961304 C62.28050864 75.0126289 59.40710656 74.99412128 56.53320312 74.97509766 C54.54305666 74.97204159 52.55290807 74.97016431 50.5627594 74.96942139 C46.38884314 74.9648134 42.21511929 74.95036755 38.04125977 74.92822266 C32.67850967 74.89992157 27.31591121 74.88900995 21.95309353 74.88454056 C17.8431495 74.88039311 13.73323645 74.87058161 9.62330818 74.85866547 C7.64525668 74.85294979 5.66720216 74.84819541 3.68914604 74.8443985 C0.93064964 74.83755913 -1.82772408 74.82393837 -4.58618164 74.80810547 C-5.41166 74.80698761 -6.23713837 74.80586975 -7.08763123 74.80471802 C-12.72320433 74.76165896 -12.72320433 74.76165896 -13.83789062 73.64697266 C-13.9636834 71.55747662 -14.01872213 69.46369854 -14.04663086 67.37060547 C-14.05641464 66.71524811 -14.06619843 66.05989075 -14.07627869 65.38467407 C-14.10629655 63.20650276 -14.12763823 61.02839328 -14.14648438 58.85009766 C-14.1530562 58.10704124 -14.15962803 57.36398483 -14.166399 56.59841156 C-14.1990245 52.66344609 -14.22346448 48.72850802 -14.24291992 44.79345703 C-14.26072214 41.53589411 -14.29551758 38.27919869 -14.34545898 35.02197266 C-14.40565907 31.09145926 -14.43639547 27.16174929 -14.44609261 23.23079681 C-14.4546515 21.73322969 -14.47348091 20.23568427 -14.50283623 18.73838043 C-14.54178418 16.63827768 -14.54278402 14.54129655 -14.53491211 12.44091797 C-14.54521957 11.24702454 -14.55552704 10.0531311 -14.56614685 8.82305908 C-13.75628665 5.29107969 -12.5706146 3.69563584 -9.63145542 1.56430054 C-6.52007733 -0.02702969 -3.40732952 -0.04872913 0 0 Z M0.62695312 35.14306641 C0.12292969 35.78373047 -0.38109375 36.42439453 -0.90039062 37.08447266 C-3.6569861 40.55652039 -3.6569861 40.55652039 -5.83789062 41.64697266 C-5.83789062 49.89697266 -5.83789062 58.14697266 -5.83789062 66.64697266 C-2.53789062 66.64697266 0.76210937 66.64697266 4.16210938 66.64697266 C4.07960937 65.45072266 3.99710938 64.25447266 3.91210938 63.02197266 C3.91210938 58.54290025 5.21490891 56.0853732 8.16210938 52.64697266 C11.77069756 50.19648951 15.26169657 50.31464145 19.53710938 50.27197266 C20.82359375 50.24361328 22.11007813 50.21525391 23.43554688 50.18603516 C28.23100977 50.77918466 31.52914141 52.5686498 34.53710938 56.39697266 C35.16210938 58.64697266 35.16210938 58.64697266 35.16210938 66.64697266 C46.38210937 66.64697266 57.60210937 66.64697266 69.16210938 66.64697266 C70.7182782 52.63815946 70.7182782 52.63815946 67.38085938 39.04931641 C65.41923965 36.92537956 63.59026479 35.20792971 61.16210938 33.64697266 C56.51626341 34.44424707 55.08774112 37.06307377 52.16210938 40.64697266 C49.43296225 42.73931879 48.23462977 42.64960976 44.72460938 42.52197266 C39.2394083 41.17473029 36.27892729 38.24017801 33.16210938 33.64697266 C31.32742106 33.70260917 31.32742106 33.70260917 29.16210938 34.64697266 C27.4747866 36.62957691 25.8084488 38.63020686 24.16210938 40.64697266 C21.45201892 42.72470867 20.20998946 42.6478432 16.72460938 42.58447266 C12.48537682 41.46888514 10.98056304 39.93516859 8.16210938 36.64697266 C6.64203096 34.87420007 6.64203096 34.87420007 5.16210938 33.64697266 C2.16292324 33.29800434 2.16292324 33.29800434 0.62695312 35.14306641 Z " fill="#currentColor" transform="translate(164.837890625,325.35302734375)"/>
<path d="M0 0 C4.07391524 2.48014505 6.56201581 4.97168928 8.4375 9.375 C8.7159375 10.674375 8.7159375 10.674375 9 12 C9.73605469 12.07476562 10.47210938 12.14953125 11.23046875 12.2265625 C20.20071821 13.43523548 20.20071821 13.43523548 23.125 16.75 C25.09798917 20.1698479 26.08050728 22.0551431 26 26 C24.62565283 29.57330264 23.09995997 32.30362246 19.828125 34.375 C19.22484375 34.91125 18.6215625 35.4475 18 36 C17.84796791 38.5578366 17.84796791 38.5578366 18.4375 41.3125 C19.05863478 46.1599127 19.04885682 48.93485757 16 53 C13.09400598 55.42166168 11.33638332 55.96330364 7.5625 56.375 C3.71986794 55.97051241 1.41822679 54.7091134 -2 53 C-4.75017435 53.19644103 -6.4859918 53.70872869 -8.875 55.0625 C-12.0863117 56.47925516 -14.52771365 56.35920204 -18 56 C-21.37997975 54.27812352 -23.43341997 53.07323333 -25.21875 49.69140625 C-26.12089201 46.58352702 -25.81459064 44.77398755 -25.1875 41.625 C-24.609249 37.52949691 -24.609249 37.52949691 -26.484375 34.046875 C-27.77865356 32.93897255 -29.07940209 31.83858082 -30.38671875 30.74609375 C-32.3859535 28.58227309 -32.61895806 27.35439662 -32.75 24.4375 C-32.40454989 20.75060524 -31.44364903 17.94953537 -28.82421875 15.1875 C-26.45892817 13.64778194 -24.25240342 13.21931113 -21.5 12.625 C-17.42861918 11.76051382 -17.42861918 11.76051382 -14.3515625 9.1484375 C-13.54822551 7.74131857 -12.77457455 6.31673318 -12.03515625 4.875 C-9.44041778 0.17509636 -5.00097419 -0.90017535 0 0 Z " fill="#currentColor" transform="translate(358,188)"/>
<path d="M0 0 C0.7425 -0.03287109 1.485 -0.06574219 2.25 -0.09960938 C6.32637455 -0.13922079 8.85714058 0.20495516 12.07421875 2.8203125 C15.11705142 5.94236134 16.58933194 7.93564005 16.65234375 12.35546875 C16.30189397 17.14494906 15.15900831 20.00446335 11.625 23.4375 C7.93052595 25.92973427 4.05706839 25.80459712 -0.25 25.8125 C-0.94480469 25.83699219 -1.63960938 25.86148437 -2.35546875 25.88671875 C-7.52253982 25.91591124 -10.45956436 24.76854226 -14.375 21.4375 C-17.29239964 17.24689994 -17.02718785 12.34481587 -16.375 7.4375 C-12.39180168 0.60916002 -7.45601182 0.05764958 0 0 Z " fill="#currentColor" transform="translate(342.375,314.5625)"/>
<path d="M0 0 C1.29550781 -0.03738281 2.59101563 -0.07476562 3.92578125 -0.11328125 C9.16594809 0.47984251 12.2693329 2.56342724 15.5625 6.625 C17.01967435 10.10602761 17.08871989 12.56778098 16.6875 16.3125 C14.85834324 20.45217056 12.47390224 22.86933282 8.6875 25.3125 C5.83679118 25.86131314 3.08174652 25.82747983 0.1875 25.75 C-0.55886719 25.75708984 -1.30523437 25.76417969 -2.07421875 25.77148438 C-6.63384773 25.71902847 -9.58886017 25.19081071 -13.3125 22.3125 C-16.26697885 18.74674966 -16.78308913 15.72953938 -16.60546875 11.23828125 C-15.9749379 7.09359182 -13.46875423 3.94271186 -10.3125 1.3125 C-6.74809582 0.12436527 -3.75775218 0.07062047 0 0 Z " fill="#currentColor" transform="translate(363.3125,355.6875)"/>
</svg>
