<?xml version="1.0" encoding="UTF-8"?>
<svg version="1.1" xmlns="http://www.w3.org/2000/svg" width="550" height="550">
<path d="M0 0 C10.89 0 21.78 0 33 0 C33 40.92 33 81.84 33 124 C22.11 124 11.22 124 0 124 C0 83.08 0 42.16 0 0 Z " fill="#currentColor" transform="translate(345,252)"/>
<path d="M0 0 C5.61 0 11.22 0 17 0 C17.495 2.97 17.495 2.97 18 6 C21.11564069 8.47979565 23.12350238 10.0137221 27.13671875 9.984375 C29.09922831 9.7086805 31.05070838 9.35737013 33 9 C37.22374182 10.40791394 37.97620828 12.82957944 39.9765625 16.6484375 C41.301131 19.69191169 41.68314227 21.73609806 41 25 C40.01 25.928125 40.01 25.928125 39 26.875 C36.7530541 29.26238001 36.63785699 29.90902124 36.5 33.0625 C36.54068915 37.0089192 36.54068915 37.0089192 39 38.625 C39.99 39.305625 39.99 39.305625 41 40 C42.25428303 45.85332081 38.98053089 50.20986107 36 55 C32.65747276 55.07427838 30.1964086 55.06546953 27 54 C23.67750207 55.17161769 20.76526295 56.81980266 18 59 C16.94824448 62.12688428 16.94824448 62.12688428 17 65 C14.02958551 66.48520725 11.30235553 66.1705822 8 66.1875 C6.1128125 66.20876953 6.1128125 66.20876953 4.1875 66.23046875 C1 66 1 66 -1 64 C-1.2475 63.030625 -1.495 62.06125 -1.75 61.0625 C-2.75507136 57.83558427 -2.75507136 57.83558427 -5.5625 56.125 C-9.29120735 54.90469578 -12.16897333 54.79433537 -16.046875 54.9921875 C-18 55 -18 55 -20 54 C-21.2890625 52.109375 -21.2890625 52.109375 -22.625 49.75 C-23.29402344 48.59757812 -23.29402344 48.59757812 -23.9765625 47.421875 C-25.10346743 44.75515341 -25.19303612 42.86506237 -25 40 C-23.68 39.34 -22.36 38.68 -21 38 C-20.89184775 36.23050905 -20.81433917 34.45912513 -20.75 32.6875 C-20.70359375 31.70136719 -20.6571875 30.71523437 -20.609375 29.69921875 C-20.71788646 26.86467063 -20.71788646 26.86467063 -22.984375 25.29296875 C-23.64953125 24.86628906 -24.3146875 24.43960938 -25 24 C-25.5 21.625 -25.5 21.625 -25 19 C-23.125 16.4375 -23.125 16.4375 -21 14 C-20.67 13.2575 -20.34 12.515 -20 11.75 C-19 10 -19 10 -17.25 9.1875 C-15 9 -15 9 -12.1875 9.6875 C-8.38870523 10.05993086 -6.77516845 9.26535044 -3.515625 7.49609375 C-1.36206858 5.59622075 -1.36206858 5.59622075 0 0 Z M-0.75 26.6875 C-2.60635358 30.12175412 -2.66339136 32.15233011 -2 36 C0.79860326 39.67517727 3.60790227 41.78163173 8.1875 42.5 C10.84449204 42.02764586 12.71232065 41.40780267 15 40 C15 39.34 15 38.68 15 38 C15.66 38 16.32 38 17 38 C17.91368176 33.34022304 18.44465928 30.19084448 16 26 C13.49637242 23.31091852 12.21063788 23.01880695 8.5 22.6875 C4.22495821 23.06920016 2.30358714 23.74296955 -0.75 26.6875 Z " fill="#currentColor" transform="translate(177,146)"/>
<path d="M0 0 C10.89 0 21.78 0 33 0 C33 27.39 33 54.78 33 83 C22.11 83 11.22 83 0 83 C0 55.61 0 28.22 0 0 Z " fill="#currentColor" transform="translate(259,293)"/>
<path d="M0 0 C81.18 0 162.36 0 246 0 C246 2.97 246 5.94 246 9 C164.82 9 83.64 9 0 9 C0 6.03 0 3.06 0 0 Z " fill="#currentColor" transform="translate(152,383)"/>
<path d="M0 0 C8.3872628 0.64517406 16.15913897 1.39743846 24.3125 3.0625 C27.509375 3.701875 30.70625 4.34125 34 5 C34 14.57 34 24.14 34 34 C25.75 34 17.5 34 9 34 C9 42.91 9 51.82 9 61 C11.64 61 14.28 61 17 61 C17 64.3 17 67.6 17 71 C8.75 71 0.5 71 -8 71 C-8 67.7 -8 64.4 -8 61 C-5.36 61 -2.72 61 0 61 C0 40.87 0 20.74 0 0 Z " fill="#currentColor" transform="translate(357,170)"/>
<path d="M0 0 C13.5 1.125 13.5 1.125 17.984375 1.97265625 C18.84772461 2.13258057 19.71107422 2.29250488 20.60058594 2.45727539 C22.1595459 2.75686157 22.1595459 2.75686157 23.75 3.0625 C27.1325 3.701875 30.515 4.34125 34 5 C34 14.57 34 24.14 34 34 C25.75 34 17.5 34 9 34 C9 42.91 9 51.82 9 61 C11.64 61 14.28 61 17 61 C17 64.3 17 67.6 17 71 C8.75 71 0.5 71 -8 71 C-8 67.7 -8 64.4 -8 61 C-5.36 61 -2.72 61 0 61 C0 40.87 0 20.74 0 0 Z " fill="#currentColor" transform="translate(271,211)"/>
<path d="M0 0 C7.98513619 0.66542802 15.46328833 1.48698104 23.25 3.0625 C26.4675 3.701875 29.685 4.34125 33 5 C33 14.57 33 24.14 33 34 C25.08 34 17.16 34 9 34 C9 42.91 9 51.82 9 61 C11.64 61 14.28 61 17 61 C17 64.3 17 67.6 17 71 C8.42 71 -0.16 71 -9 71 C-9 67.7 -9 64.4 -9 61 C-6.03 61 -3.06 61 0 61 C0 40.87 0 20.74 0 0 Z " fill="#currentColor" transform="translate(185,252)"/>
<path d="M0 0 C10.89 0 21.78 0 33 0 C33 13.86 33 27.72 33 42 C22.11 42 11.22 42 0 42 C0 28.14 0 14.28 0 0 Z " fill="#currentColor" transform="translate(173,334)"/>
</svg>
