<?xml version="1.0" encoding="UTF-8"?>
<svg version="1.1" xmlns="http://www.w3.org/2000/svg" width="550" height="550">
<path d="M0 0 C-2.87284264 3.04104186 -5.86487879 5.38981801 -9.3125 7.75 C-20.33677493 15.69568752 -29.08514597 27.52909268 -32 41 C-32.88922749 49.48154624 -33.13198486 58.34817619 -29 66 C-26.42057101 69.10268458 -24.23326789 69.53074754 -20.23046875 70.08203125 C-17.26283084 69.9728887 -14.79154701 68.97085893 -12 68 C-12.00056554 69.20264244 -12.00056554 69.20264244 -12.0011425 70.42958069 C-12.00826431 89.95194433 -11.98232013 109.47400883 -11.9197216 128.99627686 C-11.89024377 138.43719249 -11.8718951 147.87788324 -11.87988281 157.31884766 C-11.88681778 165.54908235 -11.87273193 173.77896893 -11.83356392 182.00911808 C-11.81356033 186.3657174 -11.80397502 190.72177027 -11.81957626 195.07839966 C-11.83394141 199.18269582 -11.82010976 203.28594967 -11.78504753 207.39011192 C-11.77710688 208.89286126 -11.77929349 210.39570519 -11.79260826 211.89841652 C-11.85406727 219.47835878 -11.87642356 225.62604635 -6.58439827 231.54446411 C-0.79224028 236.86553394 3.7549159 237.72712646 11.546875 237.43359375 C23.54993453 235.92642225 36.43162743 228.56837257 45 220 C45.31010265 217.6611429 45.31010265 217.6611429 45.26742554 214.90493774 C45.27595551 213.82569031 45.28448547 212.74644287 45.29327393 211.63449097 C45.29236755 210.44493805 45.29146118 209.25538513 45.29052734 208.02978516 C45.29724457 206.78080444 45.30396179 205.53182373 45.31088257 204.24499512 C45.3266664 200.81045901 45.33324042 197.37616474 45.33451414 193.94160891 C45.33593533 191.79234436 45.34020465 189.64310515 45.34550858 187.49384689 C45.36403601 179.98465113 45.37217717 172.47552645 45.37060547 164.96630859 C45.36940836 157.98747017 45.39041852 151.00894319 45.4220928 144.03018343 C45.44835728 138.02744278 45.45896829 132.02480303 45.45769465 126.02200544 C45.45718731 122.44225922 45.46274059 118.8627887 45.48405075 115.28310013 C45.50724655 111.27657599 45.49785064 107.2707336 45.48583984 103.26416016 C45.49707886 102.09484955 45.50831787 100.92553894 45.51989746 99.72079468 C45.42734034 87.50214385 41.9806205 77.33831942 34 68 C31.75368689 65.81487052 29.48221009 63.92497925 27 62 C29.41981085 59.58018915 30.05467208 59.7036181 33.375 59.6875 C42.63581873 59.88824029 50.96090336 62.51665764 59 67 C59.66644531 66.23816406 60.33289063 65.47632813 61.01953125 64.69140625 C67.19308976 57.73469421 73.59874292 51.67498623 81 46 C81.92296875 45.26136719 82.8459375 44.52273437 83.796875 43.76171875 C104.49988504 27.56301225 129.04551841 17.67325996 155 14 C155 14.66 155 15.32 155 16 C153.56640625 17.41015625 153.56640625 17.41015625 151.5625 19.0625 C130.00453979 37.51368914 113.01574389 63.22114985 110 92 C109.50108338 101.31295887 109.63879983 110.65051778 109.69581819 119.97362018 C109.7147797 123.60504114 109.71635056 127.23647235 109.71989441 130.86793518 C109.72915843 137.72049543 109.7536943 144.5729093 109.78394288 151.42540556 C109.81766444 159.2369504 109.83401718 167.04850284 109.84902918 174.86010253 C109.88025007 190.90682022 109.93289861 206.95339133 110 223 C117.60027506 226.80813782 122.88449532 228.21408489 131.25 225.4375 C140.09335124 221.99235356 147.5726601 216.78261882 154.44140625 210.28515625 C156 209 156 209 158 209 C158.33 208.01 158.66 207.02 159 206 C160.6015625 204.421875 160.6015625 204.421875 162.625 202.75 C166.16368874 199.75964861 169.43662845 196.61807302 172.65234375 193.28515625 C174 192 174 192 175 192 C174.07762966 217.82636952 154.21049001 245.01446326 137.5625 263.25 C136.78193237 264.11020752 136.78193237 264.11020752 135.9855957 264.98779297 C134.70056542 266.3670461 133.35498524 267.68940585 132 269 C131.34 269 130.68 269 130 269 C130 269.66 130 270.32 130 271 C117.94461599 282.62931014 103.03088161 290.92896765 88 298 C74.40711173 283.44641135 74.40711173 283.44641135 69.5625 277.74609375 C67.46674747 275.40409029 65.22718477 273.2165468 63 271 C62.51743744 271.51365112 62.03487488 272.02730225 61.53768921 272.55651855 C56.95727994 277.41882088 52.34274445 282.24580418 47.68816185 287.03720856 C45.29682845 289.50125817 42.92008943 291.97639387 40.57324219 294.48291016 C37.86729919 297.3717365 35.10387494 300.20172073 32.3359375 303.03125 C31.09908707 304.37648743 31.09908707 304.37648743 29.83724976 305.74890137 C24.93883582 310.65363366 21.76381959 312.54841514 14.72143555 312.59985352 C12.47674705 312.45460201 10.23463162 312.25718863 8 312 C6.42421928 311.83929268 6.42421928 311.83929268 4.81660461 311.67533875 C2.00086976 311.35752395 -0.77072255 310.92182676 -3.5625 310.4375 C-4.58408203 310.26186523 -5.60566406 310.08623047 -6.65820312 309.90527344 C-23.16550104 306.86821646 -38.33662084 301.07512701 -53 293 C-54.05445313 292.43539063 -55.10890625 291.87078125 -56.1953125 291.2890625 C-67.96627198 284.74281088 -78.21548289 276.2025384 -88 267 C-88.85464844 266.20722656 -88.85464844 266.20722656 -89.7265625 265.3984375 C-90.86386089 264.31196809 -91.94198526 263.16381622 -93 262 C-93 261.34 -93 260.68 -93 260 C-93.66 260 -94.32 260 -95 260 C-96.9453125 257.8828125 -96.9453125 257.8828125 -99.125 255.125 C-99.84945312 254.22007812 -100.57390625 253.31515625 -101.3203125 252.3828125 C-103 250 -103 250 -103 248 C-102.113125 248.165 -101.22625 248.33 -100.3125 248.5 C-96.66908596 249.00665062 -93.05158902 249.166536 -89.375 249.25 C-87.74691406 249.28867187 -87.74691406 249.28867187 -86.0859375 249.328125 C-82.54141779 248.95123936 -80.76793803 248.23377455 -78 246 C-76.27273566 242.48549102 -75.74708448 239.6387762 -75.73257446 235.74504089 C-75.72404449 234.70637375 -75.71551453 233.6677066 -75.70672607 232.5975647 C-75.70808563 230.90414444 -75.70808563 230.90414444 -75.70947266 229.17651367 C-75.70275543 227.97919113 -75.69603821 226.78186859 -75.68911743 225.54826355 C-75.67339018 222.27122781 -75.66676328 218.99434432 -75.66548586 215.71727538 C-75.66406184 213.66702365 -75.65978748 211.61679828 -75.65449142 209.56655312 C-75.63599985 202.4055984 -75.62781958 195.24471803 -75.62939453 188.08374023 C-75.63059521 181.42228699 -75.60950547 174.76115813 -75.5779072 168.09978694 C-75.55170078 162.36965679 -75.54102908 156.63963229 -75.54230535 150.90944272 C-75.54281377 147.49194856 -75.53719771 144.07474273 -75.51594925 140.65730858 C-75.4963262 136.84182299 -75.50211415 133.02716927 -75.51416016 129.21166992 C-75.49730164 127.5273587 -75.49730164 127.5273587 -75.48010254 125.809021 C-75.53144605 119.40023524 -76.16080115 114.29155903 -80 109 C-84.09180867 105.46616524 -88.58661342 103.33648107 -94 103 C-101.11366091 103.97174352 -106.34468202 107.7065979 -111 113 C-120.68372384 125.7649087 -127.59854756 140.98047742 -133 156 C-133.33 156 -133.66 156 -134 156 C-135.43161673 128.95835072 -128.08673287 102.52298819 -115 79 C-114.66274902 78.37963867 -114.32549805 77.75927734 -113.97802734 77.12011719 C-106.38551102 63.26116239 -96.27862113 49.11511123 -84 39 C-83.34 39 -82.68 39 -82 39 C-82 38.34 -82 37.68 -82 37 C-80.16154816 35.38448335 -78.32786814 33.9043049 -76.375 32.4375 C-75.78887939 31.99422363 -75.20275879 31.55094727 -74.59887695 31.09423828 C-56.2925056 17.42710283 -36.16623551 6.98051352 -13.875 1.625 C-13.17640869 1.45709961 -12.47781738 1.28919922 -11.75805664 1.11621094 C-7.77172811 0.22209922 -4.08100196 -0.16527422 0 0 Z " fill="currentColor" transform="translate(252,120)"/>
<path d="M0 0 C1.32 0.33 2.64 0.66 4 1 C3.34 2.32 2.68 3.64 2 5 C0 2 0 2 0 0 Z " fill="currentColor" transform="translate(351,31)"/>
<path d="" fill="currentColor" transform="translate(0,0)"/>
<path d="" fill="currentColor" transform="translate(0,0)"/>
<path d="" fill="currentColor" transform="translate(0,0)"/>
</svg>
