<?xml version="1.0" encoding="UTF-8"?>
<svg version="1.1" xmlns="http://www.w3.org/2000/svg" width="550" height="550">
<path d="M0 0 C22.40762928 18.7888261 37.3818418 42.38208538 40 72 C41.50127009 100.05498474 32.17709701 124.98617421 14 146 C13.41734375 146.68449219 12.8346875 147.36898437 12.234375 148.07421875 C5.68250953 155.17207301 -3.20178004 161.09305662 -11.75 165.5 C-16.21317907 168.36619574 -16.21317907 168.36619574 -17 178 C-44.06 178 -71.12 178 -99 178 C-99.66 174.7 -100.32 171.4 -101 168 C-103.8484171 165.53601326 -106.10033323 163.92092002 -109.3125 162.125 C-110.95737029 161.11707042 -112.59666703 160.09999274 -114.23046875 159.07421875 C-115.0404834 158.56681152 -115.85049805 158.0594043 -116.68505859 157.53662109 C-126.23832133 151.19531803 -133.85154862 142.60355458 -140 133 C-140.60328125 132.08992187 -141.2065625 131.17984375 -141.828125 130.2421875 C-148.39476139 119.76411988 -153.11129571 107.2643136 -155 95 C-155.10957031 94.31421875 -155.21914062 93.6284375 -155.33203125 92.921875 C-158.6993941 67.95849173 -152.25589771 42.67816322 -138 22 C-134.64825592 17.69096097 -130.85779995 13.8520248 -127 10 C-126.34515625 9.27425781 -125.6903125 8.54851562 -125.015625 7.80078125 C-115.38932355 -2.66885003 -102.15763009 -9.11641975 -89 -14 C-87.83984375 -14.43570313 -86.6796875 -14.87140625 -85.484375 -15.3203125 C-57.19898318 -24.07531473 -23.5396613 -17.81098266 0 0 Z M-63.3125 24.8125 C-66.35296217 28.75383985 -66.09094537 32.17989542 -66 37 C-67.485 37.12375 -67.485 37.12375 -69 37.25 C-72.87283338 37.76847262 -75.76738908 39.28623795 -79.10546875 41.2578125 C-81.49149671 42.1925451 -82.63811208 41.90880254 -85 41 C-85.45375 40.505 -85.9075 40.01 -86.375 39.5 C-88.80206035 37.2596366 -90.74593795 37.13016248 -94 37 C-96.91078244 37.82979708 -96.91078244 37.82979708 -99 40 C-100.34250592 43.31205235 -100.34250592 43.31205235 -100 47 C-98.92808622 48.69204305 -98.92808622 48.69204305 -97.5 50.1875 C-96.675 51.115625 -95.85 52.04375 -95 53 C-95.47286361 57.02778472 -97.51918681 60.84039171 -99.0625 64.5625 C-99.8856905 66.7027953 -100.50334689 68.76506102 -101 71 C-101.60328125 71.02578125 -102.2065625 71.0515625 -102.828125 71.078125 C-106.65821171 71.34993761 -109.31015729 71.54571334 -112.5625 73.6875 C-114.46538786 76.74866743 -114.59075079 78.45549525 -114 82 C-112.1329009 84.30275556 -110.64352259 85.67823871 -108 87 C-106.62657169 87.0689472 -105.24997898 87.08467708 -103.875 87.0625 C-102.59625 87.041875 -101.3175 87.02125 -100 87 C-99.9175 87.99 -99.835 88.98 -99.75 90 C-99.23152738 93.87283338 -97.71376205 96.76738908 -95.7421875 100.10546875 C-94.79841648 102.51456845 -95.06252549 103.61725229 -96 106 C-97.051875 107.1446875 -97.051875 107.1446875 -98.125 108.3125 C-100.34569305 110.94933809 -100.34569305 110.94933809 -100 114.625 C-99.24793789 117.95647002 -99.24793789 117.95647002 -97.375 120 C-93.87599825 121.47326389 -91.62561724 120.97114747 -88 120 C-86.64748503 118.68612831 -85.31054623 117.35573748 -84 116 C-82.30078125 116.26171875 -82.30078125 116.26171875 -80 117 C-78.95585937 117.27714844 -77.91171875 117.55429687 -76.8359375 117.83984375 C-73.28420705 118.96629551 -70.19597532 120.07371827 -67 122 C-65.72331337 124.71350007 -65.44816977 126.71201716 -65.37109375 129.6953125 C-65.21167438 132.15075696 -65.21167438 132.15075696 -63.16015625 133.78125 C-60.22945416 135.43473834 -58.31720307 135.41465038 -55 135 C-52.76511063 133.85905762 -52.76511063 133.85905762 -51 132 C-50.57083176 129.66116581 -50.57083176 129.66116581 -50.5625 127.125 C-50.15234375 124.44921875 -50.15234375 124.44921875 -49 122 C-44.89488385 119.52575993 -40.61415979 118.22474612 -36 117 C-35.26136719 116.74347656 -34.52273438 116.48695313 -33.76171875 116.22265625 C-33.18035156 116.14917969 -32.59898437 116.07570313 -32 116 C-30.54378988 117.29440899 -29.08860547 118.59010948 -27.6484375 119.90234375 C-25.81840402 121.33508493 -25.81840402 121.33508493 -22.3125 121.0625 C-19.04101473 120.23443212 -19.04101473 120.23443212 -17 118.375 C-15.52673611 114.87599825 -16.02885253 112.62561724 -17 109 C-18.31387169 107.64748503 -19.64426252 106.31054623 -21 105 C-20.42708964 100.93674346 -18.44386289 97.18211407 -16.83984375 93.4375 C-15.78282853 90.79938569 -15.78282853 90.79938569 -16 87 C-14.783125 87.061875 -13.56625 87.12375 -12.3125 87.1875 C-8.41750797 87.19440601 -6.12309875 86.46062325 -3 84 C-1.57958179 81.15916359 -1.68547728 79.14522722 -2 76 C-3.3284596 73.50279176 -3.3284596 73.50279176 -6 72 C-8.99376386 71.38681945 -11.94977179 71.13035163 -15 71 C-15.39832031 69.75283203 -15.39832031 69.75283203 -15.8046875 68.48046875 C-16.15789062 67.39378906 -16.51109375 66.30710938 -16.875 65.1875 C-17.22304688 64.10855469 -17.57109375 63.02960938 -17.9296875 61.91796875 C-18.91959653 58.86684198 -18.91959653 58.86684198 -21 56 C-20.79881976 52.98229642 -19.94854077 51.94400025 -17.875 49.6875 C-15.66367065 47.05050711 -15.66367065 47.05050711 -15.9375 43.375 C-16.71311277 39.92672429 -16.71311277 39.92672429 -19.1875 38 C-22.68402901 36.75678969 -24.47332525 36.87446551 -28 38 C-28.680625 38.70125 -29.36125 39.4025 -30.0625 40.125 C-32 42 -32 42 -34.1875 42 C-37.50575033 40.82017766 -40.6511588 39.38132475 -43.81640625 37.83984375 C-46.23230808 36.76068061 -46.23230808 36.76068061 -50 37 C-49.95875 35.948125 -49.9175 34.89625 -49.875 33.8125 C-49.99296558 30.21454972 -50.30229063 28.12735936 -52 25 C-56.1049773 22.26334847 -59.27871887 21.65088777 -63.3125 24.8125 Z " fill="#currentColor" transform="translate(333,151)"/>
<path d="M0 0 C0.69495575 -0.0087616 1.3899115 -0.01752319 2.10592651 -0.02655029 C4.39287587 -0.04847679 6.67787631 -0.03401834 8.96484375 -0.01708984 C10.55998097 -0.02045999 12.15511569 -0.02531426 13.75024414 -0.03158569 C17.08927927 -0.03894778 20.42764447 -0.02827386 23.76660156 -0.00488281 C28.04089175 0.02360567 32.31361222 0.00719798 36.58784485 -0.02274513 C39.88053151 -0.04083674 43.17284766 -0.03505179 46.46554565 -0.02210617 C48.04117012 -0.01877725 49.61682852 -0.02284121 51.19241333 -0.03450394 C53.39740729 -0.0472448 55.59988075 -0.02779692 57.8046875 0 C59.68401978 0.00596695 59.68401978 0.00596695 61.60131836 0.01205444 C65.78923072 0.81755622 67.27798618 2.35432132 69.90234375 5.64697266 C70.53344727 8.36669922 70.53344727 8.36669922 70.53125 11.28759766 C70.53318359 12.35880859 70.53511719 13.43001953 70.53710938 14.53369141 C70.51326172 15.64357422 70.48941406 16.75345703 70.46484375 17.89697266 C70.47580078 18.99138672 70.48675781 20.08580078 70.49804688 21.21337891 C70.42560875 29.27815717 68.99643917 35.3916899 64.2265625 41.95166016 C63.41638672 42.72896484 63.41638672 42.72896484 62.58984375 43.52197266 C61.79126953 44.32248047 61.79126953 44.32248047 60.9765625 45.13916016 C54.69765196 49.7034906 48.9720884 50.10397336 41.4375 50.08056641 C40.44535995 50.08580826 39.45321991 50.09105011 38.43101501 50.09645081 C36.34081962 50.10285044 34.25058812 50.1015608 32.16040039 50.09301758 C28.97802047 50.08450789 25.79743734 50.11329832 22.61523438 50.14501953 C20.57682345 50.14663187 18.53840937 50.14605338 16.5 50.14306641 C15.08558372 50.15991737 15.08558372 50.15991737 13.64259338 50.17710876 C6.2862741 50.10024018 1.01343452 48.36300428 -4.55859375 43.49853516 C-5.50605469 42.39638672 -5.50605469 42.39638672 -6.47265625 41.27197266 C-7.11976563 40.54236328 -7.766875 39.81275391 -8.43359375 39.06103516 C-12.88863069 32.59809424 -12.49589674 25.66155835 -12.53515625 18.08447266 C-12.56802734 16.96105469 -12.60089844 15.83763672 -12.63476562 14.68017578 C-12.64185547 13.59542969 -12.64894531 12.51068359 -12.65625 11.39306641 C-12.66970459 10.41007568 -12.68315918 9.42708496 -12.69702148 8.41430664 C-11.21673977 1.57968616 -6.36830073 0.02021959 0 0 Z " fill="#currentColor" transform="translate(246.09765625,342.35302734375)"/>
<path d="M0 0 C7.37778837 3.80270762 12.71645556 8.9463858 16.25 16.4375 C18.51646061 23.63775241 18.38593573 31.97518822 15.1875 38.8125 C11.2597345 45.58982086 6.28606356 50.87385731 -1.1015625 53.7734375 C-9.62074148 55.90951483 -17.9454897 55.44790259 -25.56640625 50.98046875 C-32.01821606 46.4214976 -36.77169031 41.24475787 -38.75 33.4375 C-39.69155348 24.7174308 -39.25488781 17.27182802 -34.05078125 10.09375 C-25.63545081 -0.09061847 -12.86944064 -5.24642702 0 0 Z " fill="#currentColor" transform="translate(285.75,203.5625)"/>
<path d="M0 0 C1.81762744 1.22059653 3.43133341 2.59148966 4.98046875 4.140625 C5.55573395 9.07146953 5.75593558 11.07712764 2.79296875 15.140625 C-2.10917947 18.5803185 -8.35762949 18.01610284 -14.01953125 17.140625 C-17.24718093 15.87737971 -17.87718852 15.07869502 -20.01953125 12.140625 C-20.78041309 9.06666236 -20.53815278 7.40794063 -20.01953125 4.140625 C-15.61687203 -1.78019257 -6.67606319 -2.84087795 0 0 Z " fill="#currentColor" transform="translate(400.01953125,221.859375)"/>
<path d="M0 0 C2.75171298 1.90503206 3.71801879 3.2856476 4.9375 6.375 C5.04498468 10.88935637 3.26247304 13.6457613 0.2265625 16.90234375 C-2.79895104 19.73658919 -5.25221231 21.73607493 -9.1875 23.125 C-12.77409435 22.96559581 -14.30716369 22.39363227 -17 20 C-18.7315971 16.17605641 -19.30893841 14.05921742 -18.125 10 C-13.27420387 3.15181723 -8.73690139 -1.60176526 0 0 Z " fill="#currentColor" transform="translate(365,136)"/>
<path d="M0 0 C5.30763828 1.42757168 9.62265588 5.84619967 12.3828125 10.48828125 C13.56526549 13.75097562 13.24642777 15.66590018 12.140625 18.921875 C9.43971407 22.79318067 9.43971407 22.79318067 6.265625 23.609375 C0.81337583 23.73328975 -2.16845739 21.07096258 -5.95703125 17.5078125 C-8.310388 14.99411716 -9.74689904 12.92447287 -10.734375 9.609375 C-10.13118112 6.5330862 -9.21078374 4.40338957 -7.609375 1.734375 C-5.13113761 0.24743257 -2.8720265 -0.10637135 0 0 Z " fill="#currentColor" transform="translate(190.734375,135.390625)"/>
<path d="M0 0 C4.79941317 0.11364731 7.33566088 2.36232437 10.66796875 5.62890625 C12.92647877 8.18717275 14.39530734 10.27353177 15.375 13.5625 C14.63094503 17.35718034 13.64177862 20.34575737 10.375 22.5625 C6.5680146 23.83149513 4.99596626 23.87298313 1.375 22.0625 C-2.82439465 18.56300446 -6.6086398 15.07350754 -8.6875 9.9375 C-8.54388143 4.47999429 -5.19907001 0.80675224 0 0 Z " fill="#currentColor" transform="translate(354.625,301.4375)"/>
<path d="M0 0 C2.75171298 1.90503206 3.71801879 3.2856476 4.9375 6.375 C5.0451829 10.89768166 3.26672249 13.66761586 0.19140625 16.90234375 C-3.42598962 20.24621252 -5.94735324 22.51606143 -11 23 C-14.1098704 21.6671984 -15.7668208 20.27831066 -17.9375 17.6875 C-19 15 -19 15 -18.5625 12.125 C-14.65976623 4.31953247 -9.33175001 -1.52393498 0 0 Z " fill="#currentColor" transform="translate(199,302)"/>
<path d="M0 0 C3.88996583 3.26255199 3.88996583 3.26255199 4.4375 7.4375 C4.30512273 10.89822005 3.9153125 11.65542858 1.75 14.625 C-2.37573704 17.53670437 -7.06978166 17.18566818 -11.94140625 17.19140625 C-15.7405978 16.50194095 -17.42718234 15.42863174 -20.0625 12.625 C-21.04779713 9.19022117 -20.84714435 6.09820514 -20.0625 2.625 C-15.1169163 -2.98890582 -6.5194914 -2.92711859 0 0 Z " fill="#currentColor" transform="translate(166.0625,222.375)"/>
</svg>
