<?xml version="1.0" encoding="UTF-8"?>
<svg version="1.1" xmlns="http://www.w3.org/2000/svg" width="550" height="550">
<path d="M0 0 C0.76183594 -0.01933594 1.52367187 -0.03867188 2.30859375 -0.05859375 C5.51613689 0.64739928 6.57395001 1.83483898 8.5625 4.4375 C9.46612586 6.91748264 10.2048283 9.27390655 10.875 11.8125 C16.92164748 32.58895161 29.34809064 49.1938877 48.38061523 59.75927734 C55.03687268 63.32464354 61.67296946 65.93604771 68.9375 67.9375 C72.7654374 69.05523368 75.247038 70.01464313 77.5625 73.4375 C78.86431774 76.73543827 78.65047168 78.1625885 77.5625 81.5625 C73.95202507 86.75255771 67.40953828 87.83146893 61.5625 89.5625 C42.85824971 95.52869311 26.78596522 108.55101796 17.62109375 126.01171875 C13.87699463 133.56549835 11.14708363 141.3022808 8.80078125 149.390625 C7.47458387 152.6538236 6.63106351 153.79321314 3.5625 155.4375 C0.125 155.9375 0.125 155.9375 -3.4375 155.4375 C-8.34441582 151.57829739 -9.67800526 147.69365877 -11.3125 141.9375 C-18.09939457 120.09363153 -31.30116637 104.29420655 -51.4375 93.4375 C-57.3284039 90.82606838 -63.34727622 88.76814578 -69.5 86.875 C-73.03584745 85.69205104 -75.39574682 84.72205946 -77.4375 81.4375 C-77.98207117 78.65732089 -78.16736804 76.18523851 -77.4375 73.4375 C-74.22308573 69.00411305 -70.01541584 68.08765562 -65 66.625 C-52.58302891 62.72659053 -42.24924264 57.11644819 -32.4375 48.4375 C-31.51904297 47.66019531 -31.51904297 47.66019531 -30.58203125 46.8671875 C-19.14685088 36.4525381 -13.30126452 21.58816774 -8.75 7.1875 C-6.96763676 2.09503359 -5.53459533 0.00933321 0 0 Z " fill="#currentColor" transform="translate(225.4375,132.5625)"/>
<path d="M0 0 C3.1141208 3.2294586 3.97042894 6.8137357 5.1875 11.0625 C8.82982175 22.76113156 16.16099195 32.79200456 27.078125 38.65234375 C32.00387186 40.99493731 36.90516155 43.04116647 42.125 44.625 C44.70486673 45.44866387 45.96218826 45.96791731 48.0625 47.75 C49.43970569 51.05529366 49.43533606 53.45512069 49 57 C47.43766949 60.35901059 45.89521293 61.65452732 42.44921875 62.984375 C40.37647205 63.64034153 38.30074837 64.28695099 36.22265625 64.92578125 C24.45013018 68.84995661 14.83171766 76.20301962 8.96923828 87.24267578 C6.71589055 91.76514589 4.81829291 96.28478566 3.375 101.125 C2.16835011 105.05209691 0.73399972 107.00274434 -3 109 C-6 109.5625 -6 109.5625 -9 109 C-13.42158411 105.37608892 -15.1380136 101.68890555 -16.8125 96.375 C-21.21215897 83.73535064 -28.80327123 73.55083607 -41.0234375 67.50390625 C-44.78091924 65.90910606 -48.56994525 64.48663179 -52.43359375 63.171875 C-55.36616133 62.16027371 -57.68254584 61.28769283 -60 59.1875 C-61.3712961 56.18778979 -61.46681152 54.26768064 -61 51 C-57.82208279 45.68953309 -53.88473297 44.49606006 -48.3125 42.625 C-41.21276988 40.04186764 -35.43525921 37.40142979 -30 32 C-29.29617188 31.31035156 -28.59234375 30.62070313 -27.8671875 29.91015625 C-21.60630891 23.33738887 -17.8457786 16.34860494 -15.4375 7.625 C-14.36676376 3.7715594 -13.35695089 1.41280845 -10 -1 C-5.9761071 -2.34129763 -3.92371185 -1.47139194 0 0 Z " fill="#currentColor" transform="translate(353,217)"/>
<path d="M0 0 C4.23732594 2.3425217 4.95799632 5.10342045 6.3125 9.625 C9.35537467 18.64195887 14.22500731 26.6432931 23 31 C26.57697014 32.25644146 30.15512043 33.42799311 33.79296875 34.49609375 C37.72635735 36.34061825 39.01959414 38.18169888 41 42 C41 45.56882488 40.59181488 47.28156426 38.3203125 50.0390625 C35.5973094 52.34032101 33.25923762 53.15725821 29.875 54.25 C21.13749316 57.46029746 13.73904172 62.4001417 9.08203125 70.64453125 C7.19833276 74.74514566 5.68458579 78.97948675 4.2109375 83.2421875 C3 86 3 86 0 88 C-3.06813534 88.53678243 -5.9284246 88.51379079 -9 88 C-13.21827421 84.69378508 -14.30879167 79.56619731 -16.00390625 74.65234375 C-19.26526024 65.96818941 -25.98271684 60.20514362 -34 56 C-37.10087902 54.70534366 -40.21182238 53.47475459 -43.36328125 52.30859375 C-46.23984582 50.88096541 -47.40821149 49.75910008 -49 47 C-49.54920137 43.31250511 -49.4008006 41.62282683 -47.37109375 38.46875 C-44.58816151 35.57119947 -42.41391784 34.7048886 -38.625 33.4375 C-28.22074317 29.70174335 -21.09443862 23.98711729 -16 14 C-15.30544094 12.09326371 -14.6394092 10.17593132 -14 8.25 C-12.82820732 4.88868237 -12.0106631 3.01268045 -9.6875 0.25 C-6.00707108 -1.4618274 -3.87625723 -1.05716106 0 0 Z " fill="#currentColor" transform="translate(249,304)"/>
</svg>
