<?xml version="1.0" encoding="UTF-8"?>
<svg version="1.1" xmlns="http://www.w3.org/2000/svg" width="550" height="550">
<path d="M0 0 C3.97068227 2.54123665 5.97309732 4.69619464 8.0625 8.875 C11.64569337 15.83265702 17.21929665 21.35026905 22.3828125 27.15625 C25.4872106 30.69556377 28.43149914 34.36232923 31.390625 38.0234375 C33.47745985 40.82459856 33.47745985 40.82459856 36.97167969 41.40136719 C38.92702637 41.59714355 38.92702637 41.59714355 40.921875 41.796875 C42.3542827 41.95205767 43.78657125 42.10834341 45.21875 42.265625 C47.48030559 42.51059419 49.74168592 42.74919379 52.00585938 42.96875 C54.18885922 43.18303219 56.36733542 43.42513822 58.546875 43.671875 C59.85495117 43.8069043 61.16302734 43.94193359 62.51074219 44.08105469 C66.6663948 45.17550448 68.29560438 46.72121947 71 50 C72.45147903 52.90295805 72.37239025 54.77261779 72 58 C70.18689858 60.92937654 68.12704101 63.43647949 65 65 C59.65295367 64.97070112 54.32440254 64.46311978 49 64 C47.51910889 63.8764917 47.51910889 63.8764917 46.00830078 63.75048828 C42.81408011 63.46970479 39.62657913 63.14634836 36.4375 62.8125 C35.4151123 62.72387695 34.39272461 62.63525391 33.33935547 62.54394531 C26.25152934 61.73943799 22.89058191 60.2412046 18 55 C16.02 52.36 14.04 49.72 12 47 C12 56.9 12 66.8 12 77 C15.50367188 78.61068359 15.50367188 78.61068359 19.078125 80.25390625 C21.34761424 81.31473449 23.61360785 82.38270659 25.87939453 83.45141602 C27.44912861 84.18713793 29.02235975 84.91544802 30.59912109 85.63598633 C32.87269313 86.67654409 35.13211379 87.74362125 37.390625 88.81640625 C38.09181458 89.13025772 38.79300415 89.44410919 39.51544189 89.76747131 C44.67101389 92.26415851 46.73227541 94.70756224 49 100 C49.37817383 102.83569336 49.37817383 102.83569336 49.20703125 105.58984375 C49.12799561 107.12632568 49.12799561 107.12632568 49.04736328 108.69384766 C48.9698584 109.76425293 48.89235352 110.8346582 48.8125 111.9375 C48.74788574 113.04399902 48.68327148 114.15049805 48.61669922 115.29052734 C48.48549199 117.50493139 48.34568833 119.71884489 48.19677734 121.93212891 C48.02533174 124.60506378 47.89746699 127.27275633 47.80078125 129.94921875 C47.74247767 131.34115802 47.6839089 132.73308622 47.625 134.125 C47.55152344 135.89230469 47.55152344 135.89230469 47.4765625 137.6953125 C46.7217449 142.92953946 45.30111471 146.84673924 41.25 150.4375 C37.39497128 152.29087919 35.22989818 152.60427117 31 152 C27.29609979 149.97333762 25.34636989 148.51955484 23 145 C22.75708008 143.06152344 22.75708008 143.06152344 22.76953125 140.859375 C22.77082031 140.04243164 22.77210938 139.22548828 22.7734375 138.38378906 C22.78632813 137.51463867 22.79921875 136.64548828 22.8125 135.75 C22.81894531 134.86280273 22.82539063 133.97560547 22.83203125 133.06152344 C22.92079491 125.34185919 23.38444648 117.69441901 24 110 C17.07 106.7 10.14 103.4 3 100 C2.74331543 101.66385742 2.48663086 103.32771484 2.22216797 105.04199219 C0.96753835 112.55219381 -0.7690136 119.93112928 -2.5546875 127.328125 C-2.90105473 128.77152519 -3.24733598 130.21494602 -3.59353638 131.65838623 C-4.31496599 134.66103218 -5.03996296 137.66279145 -5.76708984 140.6640625 C-6.69332134 144.4899965 -7.60654994 148.31890841 -8.51667595 152.14870071 C-9.22554472 155.12218168 -9.94328976 158.09346897 -10.66345596 161.06423187 C-11.00388327 162.47471838 -11.34116289 163.88596883 -11.67507553 165.29801178 C-16.05802069 183.79351552 -16.05802069 183.79351552 -21.75 188.0625 C-25.82369585 189.23760457 -28.96779089 189.38555333 -33 188 C-36.02937769 185.48626107 -38.6824152 183.28100531 -39.24501038 179.24024963 C-39.5307665 171.12070359 -37.45792508 163.56405199 -35.4507122 155.77250481 C-34.79658176 153.23066724 -34.1581038 150.68533165 -33.52345276 148.13856506 C-31.94570879 141.81901825 -30.34548006 135.50523325 -28.73901367 129.19293213 C-27.37773323 123.84356267 -26.0285336 118.49145731 -24.69658089 113.1347065 C-24.07077893 110.63844912 -23.42744942 108.14714297 -22.78355408 105.65550232 C-20.22553268 95.99675475 -20.22553268 95.99675475 -20.6280365 86.11650085 C-21.43186587 81.5426501 -21.12047696 76.81397199 -21.09765625 72.18359375 C-21.0962413 71.08652603 -21.09482635 69.98945831 -21.09336853 68.85914612 C-21.08781012 65.38523531 -21.07526546 61.91139104 -21.0625 58.4375 C-21.05747962 56.06966239 -21.05291766 53.70182377 -21.04882812 51.33398438 C-21.03785435 45.55596722 -21.02115811 39.77798836 -21 34 C-30.98954633 39.47896744 -30.98954633 39.47896744 -37.96655273 48.08776855 C-39.3645749 53.43129999 -39.29321589 58.88658138 -39.25 64.375 C-39.29496457 66.80163646 -39.36204266 69.22592802 -39.44598389 71.65151978 C-39.49107622 73.14685831 -39.51067327 74.64327283 -39.49981689 76.13925171 C-39.56030289 81.21804909 -40.79877195 84.08763668 -44 88 C-47.20173254 89.60086627 -50.52577059 89.49917089 -54 89 C-56.8100346 87.20636089 -58.50940468 85.98119065 -60 83 C-60.65199718 73.90236498 -59.7889954 64.69854486 -59.125 55.625 C-59.04660889 54.50802734 -58.96821777 53.39105469 -58.88745117 52.24023438 C-57.72940367 37.39768498 -57.72940367 37.39768498 -54.50390625 32.92578125 C-48.37570086 27.83332889 -41.84989287 23.38544264 -35.24584961 18.93896484 C-27.31019164 13.58934555 -19.69798985 7.90580681 -12.3359375 1.78515625 C-8.07955466 -1.4676313 -5.0823899 -1.20599082 0 0 Z " fill="#FFFFFF" transform="translate(247,199)"/>
<path d="M0 0 C1.09991064 4.39964257 0.73438251 5.67786196 -0.65234375 9.859375 C-1.19858398 11.53193359 -1.19858398 11.53193359 -1.75585938 13.23828125 C-2.14580078 14.39714844 -2.53574219 15.55601562 -2.9375 16.75 C-3.32357422 17.92433594 -3.70964844 19.09867187 -4.10742188 20.30859375 C-5.06240621 23.20891656 -6.02689967 26.10571525 -7 29 C-10.40212299 27.38617243 -13.10324519 25.41396234 -16 23 C-16.77601563 23.66644531 -17.55203125 24.33289063 -18.3515625 25.01953125 C-19.4425864 25.95066372 -20.53373957 26.88164475 -21.625 27.8125 C-22.12773437 28.24498047 -22.63046875 28.67746094 -23.1484375 29.12304688 C-23.68984375 29.58388672 -24.23125 30.04472656 -24.7890625 30.51953125 C-25.39669434 31.05263916 -26.00432617 31.58574707 -26.63037109 32.13500977 C-28.57109027 33.66243134 -30.44247038 34.9022451 -32.54541016 36.17553711 C-39.44293005 40.44565779 -39.44293005 40.44565779 -43.74310303 47.06137085 C-44.78071649 52.65974132 -44.43627304 58.28252377 -44.125 63.9375 C-44.04112485 66.46170822 -43.97740952 68.98469159 -43.93331909 71.50990295 C-43.90038439 73.06998296 -43.84163518 74.62979518 -43.75344849 76.18772888 C-43.63325841 79.51448458 -43.6196439 81.49532241 -45.65908813 84.20137024 C-48.5915374 86.45450526 -50.10930916 86.48600601 -53.77832031 86.45410156 C-54.9392218 86.45379944 -56.10012329 86.45349731 -57.29620361 86.45318604 C-58.54423767 86.43254089 -59.79227173 86.41189575 -61.078125 86.390625 C-62.35983582 86.38496521 -63.64154663 86.37930542 -64.96209717 86.37347412 C-68.36213628 86.35823468 -71.76148694 86.31896916 -75.16125488 86.2746582 C-78.63345019 86.23366799 -82.10575724 86.21545521 -85.578125 86.1953125 C-92.38569866 86.152472 -99.19281624 86.08424212 -106 86 C-105.99476318 87.08531006 -105.98952637 88.17062012 -105.98413086 89.28881836 C-105.96608164 93.30117982 -105.95456829 97.31353767 -105.94506836 101.32592773 C-105.94002796 103.06519168 -105.9331957 104.80445136 -105.92456055 106.54370117 C-105.91248208 109.03825937 -105.90676892 111.53276173 -105.90234375 114.02734375 C-105.89718246 114.80963852 -105.89202118 115.59193329 -105.88670349 116.39793396 C-105.88650774 118.26567114 -105.93800306 120.13329204 -106 122 C-107.83683222 123.83683222 -110.78655472 123.12774193 -113.24804688 123.12939453 C-113.90007584 123.13114685 -114.5521048 123.13289917 -115.22389221 123.13470459 C-117.38887153 123.13912204 -119.55376979 123.13618551 -121.71875 123.1328125 C-123.21708187 123.13348557 -124.71541363 123.13445562 -126.21374512 123.13571167 C-129.35783933 123.1371885 -132.50190517 123.13503458 -135.64599609 123.13037109 C-139.68486539 123.1246738 -143.72366824 123.12795289 -147.7625351 123.13394356 C-150.8576508 123.13754958 -153.95275065 123.13641039 -157.04786682 123.13381577 C-158.53748075 123.13314661 -160.0270961 123.13397452 -161.51670837 123.13629532 C-163.59516235 123.13882253 -165.67350731 123.13498033 -167.75195312 123.12939453 C-169.5294696 123.12820114 -169.5294696 123.12820114 -171.34289551 123.12698364 C-174 123 -174 123 -175 122 C-175.1875 119.5625 -175.1875 119.5625 -175 117 C-173 115 -173 115 -170.5196228 114.75949097 C-169.47593536 114.76393219 -168.43224792 114.76837341 -167.35693359 114.77294922 C-165.58532364 114.77317581 -165.58532364 114.77317581 -163.77792358 114.77340698 C-162.49769318 114.78372955 -161.21746277 114.79405212 -159.8984375 114.8046875 C-157.93833237 114.80893234 -157.93833237 114.80893234 -155.93862915 114.81326294 C-152.46317919 114.82090224 -148.98789617 114.8405531 -145.51251221 114.8626709 C-141.96669778 114.88312304 -138.4208564 114.89226329 -134.875 114.90234375 C-127.91659805 114.92379884 -120.95830704 114.95793827 -114 115 C-114.01571045 113.37989014 -114.01571045 113.37989014 -114.03173828 111.72705078 C-114.06788194 107.72773541 -114.09087984 103.72843454 -114.10986328 99.72900391 C-114.11993376 97.99655735 -114.13359089 96.26412784 -114.15087891 94.53173828 C-114.17508162 92.04455361 -114.18647239 89.55759325 -114.1953125 87.0703125 C-114.20563507 86.29317902 -114.21595764 85.51604553 -114.22659302 84.71536255 C-114.22699271 82.80874507 -114.1223214 80.90268964 -114 79 C-112 77 -112 77 -109.5196228 76.75949097 C-108.47593536 76.76393219 -107.43224792 76.76837341 -106.35693359 76.77294922 C-104.58532364 76.77317581 -104.58532364 76.77317581 -102.77792358 76.77340698 C-101.49769318 76.78372955 -100.21746277 76.79405212 -98.8984375 76.8046875 C-96.93833237 76.80893234 -96.93833237 76.80893234 -94.93862915 76.81326294 C-91.46317919 76.82090224 -87.98789617 76.8405531 -84.51251221 76.8626709 C-80.96669778 76.88312304 -77.4208564 76.89226329 -73.875 76.90234375 C-66.91659805 76.92379884 -59.95830704 76.95793827 -53 77 C-53.06807861 75.96705811 -53.13615723 74.93411621 -53.20629883 73.86987305 C-53.44392484 69.98923759 -53.59160721 66.10921934 -53.71411133 62.22338867 C-53.77898249 60.55138667 -53.86733423 58.8801077 -53.98071289 57.21069336 C-54.86827896 43.79278277 -54.86827896 43.79278277 -51.79586792 39.20001221 C-48.34478418 35.44974135 -44.26004375 32.75261949 -40 30 C-38.66329365 28.96382879 -37.33575389 27.91542978 -36.02734375 26.84375 C-35.00769531 26.0703125 -33.98804688 25.296875 -32.9375 24.5 C-31.89464844 23.7059375 -30.85179687 22.911875 -29.77734375 22.09375 C-27.52067951 20.39252351 -25.26281166 18.69303894 -23 17 C-23.28875 16.4225 -23.5775 15.845 -23.875 15.25 C-24.91666667 13.16666667 -25.95833333 11.08333333 -27 9 C-18.09 6.03 -9.18 3.06 0 0 Z " fill="#FFFFFF" transform="translate(362,277)"/>
<path d="M0 0 C6.20671756 3.77453488 10.42484481 9.52031605 12.5 16.4375 C13.62003905 24.51422604 12.13561891 30.73114777 7.5 37.4375 C2.97621842 42.87981592 -2.580032 45.32137613 -9.5 46.4375 C-16.35059405 46.81744891 -22.0827282 44.57173374 -27.5 40.4375 C-32.67009387 35.06855637 -35.49202982 29.56150213 -35.8125 22.0625 C-35.63595754 15.49732737 -33.58416478 9.70529542 -29.05078125 4.82421875 C-21.03449925 -2.34399311 -10.08850783 -4.45365989 0 0 Z " fill="#FFFFFF" transform="translate(263.5,151.5625)"/>
</svg>
