<?xml version="1.0" encoding="UTF-8"?>
<svg version="1.1" xmlns="http://www.w3.org/2000/svg" width="550" height="550">
<path d="M0 0 C4.42878087 2.98995349 6.81952045 6.53869025 9.375 11.125 C9.78782227 11.84494141 10.20064453 12.56488281 10.62597656 13.30664062 C11.55986631 14.93672729 12.4892683 16.56939025 13.41503906 18.20410156 C15.84740436 22.49483591 18.30470038 26.77113741 20.76416016 31.04638672 C22.06204598 33.30356559 23.35615662 35.56292053 24.64599609 37.82470703 C28.21257577 44.04561772 31.9206729 50.10136082 36 56 C36.45479736 55.42668945 36.90959473 54.85337891 37.37817383 54.26269531 C41.90231332 48.648213 46.15207359 44.66315975 53.484375 43.66015625 C59.0694683 43.44859969 63.06546203 44.42545845 68 47 C68.3403125 46.40832031 68.680625 45.81664062 69.03125 45.20703125 C73.16532902 38.46716306 77.45486521 34.51504493 85 32 C91.2992218 31.31749107 95.92723403 31.89148238 101.40625 35.125 C102.9891681 36.1604196 102.9891681 36.1604196 105 36 C105.5775 35.0925 106.155 34.185 106.75 33.25 C109.75558207 28.90860368 113.01164806 26.66278398 118 25 C124.58194941 24.31742747 130.6397672 24.05373825 136.07324219 28.22753906 C142.88326239 34.49220539 147.18055474 43.60321826 151.5625 51.625 C156.99379533 61.45765724 162.56347792 71.194051 168.29321289 80.85595703 C179.891361 100.53381045 185.00462081 119.63512596 180.19140625 142.734375 C174.2102663 162.3541697 160.26294752 175.83078567 143 186 C141.53409424 186.87011719 141.53409424 186.87011719 140.03857422 187.7578125 C136.67829026 189.74611048 133.30984809 191.71973776 129.9375 193.6875 C128.32391602 194.6324231 128.32391602 194.6324231 126.67773438 195.59643555 C106.81128947 207.05285275 87.7575113 213.88670335 64.625 209 C49.50599251 204.31010957 35.76255171 194.8861377 22.24560547 186.90722656 C16.74567622 183.67528378 11.21565419 180.49583238 5.6875 177.3125 C4.60525146 176.68666016 3.52300293 176.06082031 2.40795898 175.41601562 C-2.60619303 172.51798705 -7.62864571 169.63968101 -12.6875 166.8203125 C-13.55850342 166.33006592 -14.42950684 165.83981934 -15.3269043 165.3347168 C-16.92177014 164.43820199 -18.52181249 163.55079943 -20.12817383 162.67504883 C-25.37364372 159.71053004 -29.24235048 156.51529903 -32 151 C-32.87981162 145.73226713 -32.32178632 141.83837481 -29.4375 137.3125 C-24.01050507 130.05120608 -17.92127664 125.2116814 -9 123 C6.33831535 121.15337235 17.26969713 128.60821124 30 136 C25.60628185 127.56847941 21.04800533 119.26954552 16.19458008 111.09375 C12.34927221 104.61262064 8.57408303 98.09254236 4.8125 91.5625 C4.17570312 90.45753174 3.53890625 89.35256348 2.8828125 88.21411133 C0.92133341 84.80971919 -1.03940863 81.40490345 -3 78 C-5.51995295 73.62449211 -8.04083648 69.24952229 -10.5625 64.875 C-11.47866089 63.28461914 -11.47866089 63.28461914 -12.41333008 61.66210938 C-15.59654951 56.14245482 -18.79583502 50.63284379 -22.01953125 45.13671875 C-22.66656006 44.03279785 -23.31358887 42.92887695 -23.98022461 41.79150391 C-25.2167783 39.6842163 -26.45576341 37.57835303 -27.69750977 35.47412109 C-28.52400024 34.06573975 -28.52400024 34.06573975 -29.3671875 32.62890625 C-29.85300293 31.80463135 -30.33881836 30.98035645 -30.83935547 30.13110352 C-34.00929227 24.31066213 -34.09452676 16.97590143 -32.3515625 10.64453125 C-29.59693774 4.55845859 -25.06591753 0.43511033 -19.0625 -2.375 C-12.11414852 -3.79303091 -6.26963986 -3.35381933 0 0 Z " fill="#currentColor" transform="translate(219,177)"/>
<path d="M0 0 C11.88458145 8.53905584 20.95978946 20.64419444 24.578125 34.9765625 C25.2591587 39.26865859 24.72586612 41.90726778 22.2890625 45.46875 C18.9605009 47.74618688 16.863224 47.65791593 12.9140625 47.09375 C8.83268465 43.99967689 7.71155781 40.17077767 6.2265625 35.46875 C3.58650208 27.82391777 -0.00140899 22.54402553 -6.0859375 17.09375 C-6.65054688 16.57425781 -7.21515625 16.05476563 -7.796875 15.51953125 C-16.9001782 8.1258728 -28.81254616 6.93166821 -40.0859375 8.09375 C-50.93241829 10.28378017 -60.54563099 15.76241079 -66.84375 24.99609375 C-73.35796376 35.99651132 -75.23236333 46.42291363 -73.0859375 59.09375 C-70.95871952 66.14888608 -68.05738982 71.69617319 -63.0859375 77.09375 C-63.0859375 77.75375 -63.0859375 78.41375 -63.0859375 79.09375 C-62.4465625 79.3825 -61.8071875 79.67125 -61.1484375 79.96875 C-59.0859375 81.09375 -59.0859375 81.09375 -58.0859375 83.09375 C-57.39483802 90.23511126 -57.39483802 90.23511126 -60.1484375 93.65625 C-64.00939128 95.54565291 -65.93914175 95.08363028 -70.0859375 94.09375 C-80.7555904 86.33827543 -86.92190597 74.6368088 -90.0859375 62.09375 C-90.6062967 57.74111387 -90.64835007 53.47303202 -90.5859375 49.09375 C-90.60140625 48.00835937 -90.616875 46.92296875 -90.6328125 45.8046875 C-90.55808935 30.15018858 -83.81608304 17.47621442 -73.3046875 6.15625 C-53.20639781 -12.52666717 -22.88387601 -14.24959034 0 0 Z " fill="#currentColor" transform="translate(240.0859375,146.90625)"/>
</svg>
