<?xml version="1.0" encoding="UTF-8"?>
<svg version="1.1" xmlns="http://www.w3.org/2000/svg" width="550" height="550">
<path d="M0 0 C5.49266392 3.79304716 9.82558152 8.69022555 12.8203125 14.6796875 C13.72652344 14.51210937 14.63273437 14.34453125 15.56640625 14.171875 C25.24299301 12.55399065 31.94555833 12.17318672 40.5078125 17.1796875 C46.23852354 21.32466764 49.79798739 26.57883537 51.51171875 33.453125 C52.37128487 39.91344298 51.20467873 44.71877193 48.8203125 50.6796875 C48.46590259 52.00757398 48.12606752 53.3397611 47.8203125 54.6796875 C49.0165625 55.1953125 50.2128125 55.7109375 51.4453125 56.2421875 C57.40067723 59.24622104 61.13458519 63.53394196 63.6953125 69.6796875 C65.84868853 76.4105994 64.94883239 81.83684921 62.234375 88.2421875 C59.87700219 92.30572516 56.50951876 94.86886368 52.8203125 97.6796875 C52.1603125 98.3396875 51.5003125 98.9996875 50.8203125 99.6796875 C51.5628125 100.2159375 52.3053125 100.7521875 53.0703125 101.3046875 C57.32488852 104.97909407 60.4403084 109.17243654 61.05859375 114.87890625 C61.24074447 120.98574891 60.71860245 125.79898668 56.8203125 130.6796875 C51.40518979 135.56287281 46.95035746 137.02534793 39.8203125 137.6796875 C39.87832031 138.79085937 39.93632812 139.90203125 39.99609375 141.046875 C40.36015948 150.94567734 40.19529795 158.82970334 33.140625 166.5078125 C26.87455635 172.24474647 20.33310957 174.89250743 11.8203125 174.6796875 C8.30163479 174.05356985 5.12725592 173.02064738 1.8203125 171.6796875 C0.6240625 171.2053125 -0.5721875 170.7309375 -1.8046875 170.2421875 C-4.61889442 167.20580635 -4.66516287 166.10036029 -4.8671875 162.0546875 C-4.22727757 149.8368723 3.47458638 141.77995108 11.8203125 133.6796875 C5.67489748 136.07789824 0.78219727 140.75591796 -2.1796875 146.6796875 C-2.8396875 146.6796875 -3.4996875 146.6796875 -4.1796875 146.6796875 C-4.5096875 135.4596875 -4.8396875 124.2396875 -5.1796875 112.6796875 C-5.5096875 112.6796875 -5.8396875 112.6796875 -6.1796875 112.6796875 C-6.5096875 144.6896875 -6.8396875 176.6996875 -7.1796875 209.6796875 C-10.4796875 210.6696875 -13.7796875 211.6596875 -17.1796875 212.6796875 C-17.5096875 179.6796875 -17.8396875 146.6796875 -18.1796875 112.6796875 C-18.5096875 112.6796875 -18.8396875 112.6796875 -19.1796875 112.6796875 C-19.5096875 119.2796875 -19.8396875 125.8796875 -20.1796875 132.6796875 C-23.64280575 131.52531475 -23.98796749 130.80703886 -25.9296875 127.8671875 C-28.87981661 123.73848923 -31.63457929 121.86133944 -36.1796875 119.6796875 C-36.1796875 120.6696875 -36.1796875 121.6596875 -36.1796875 122.6796875 C-35.60347656 122.92332031 -35.02726562 123.16695312 -34.43359375 123.41796875 C-28.0021461 127.01824187 -23.39217885 133.78192034 -21.1796875 140.6796875 C-19.83043751 146.59202598 -20.06893942 152.52738852 -20.1171875 158.5546875 C-20.12169922 159.62460937 -20.12621094 160.69453125 -20.13085938 161.796875 C-20.14259001 164.42453736 -20.15900522 167.05208288 -20.1796875 169.6796875 C-27.48868825 173.54072956 -33.44986173 175.97361267 -41.7421875 173.6796875 C-48.12902892 171.21204422 -53.21887923 166.84341952 -56.6796875 160.9296875 C-59.93657535 153.44608298 -58.63512725 145.6614287 -55.8359375 138.26171875 C-55.619375 137.73964844 -55.4028125 137.21757812 -55.1796875 136.6796875 C-56.0253125 136.72609375 -56.8709375 136.7725 -57.7421875 136.8203125 C-67.39222237 137.12735906 -72.90171302 135.91224086 -79.9921875 129.3671875 C-85.83752411 123.02806675 -86.80287924 117.45911268 -86.59765625 108.9765625 C-85.77112455 102.45700401 -83.1439598 97.51300831 -78.3671875 93.0546875 C-77.6453125 92.6009375 -76.9234375 92.1471875 -76.1796875 91.6796875 C-76.76358106 88.40418702 -77.74725976 86.79451394 -80.0546875 84.4296875 C-86.02154372 77.61657042 -86.74781423 71.11494813 -86.52734375 62.15234375 C-85.70755631 53.96368041 -82.2952971 47.19076558 -76.1796875 41.6796875 C-69.37499296 36.46876052 -62.82049332 34.32700155 -54.1796875 34.6796875 C-54.23189453 33.77089844 -54.23189453 33.77089844 -54.28515625 32.84375 C-54.62650589 22.27816606 -51.89891649 13.8973361 -45.1796875 5.6796875 C-32.99864085 -7.15902129 -15.07428111 -9.13101616 0 0 Z " fill="#currentColor" transform="translate(251.1796875,148.3203125)"/>
<path d="M0 0 C8.46002213 6.88395805 10.78390468 15.13264138 11.88671875 25.609375 C12.50417969 25.68414062 13.12164062 25.75890625 13.7578125 25.8359375 C21.34466591 27.01380515 27.64133272 29.51197832 32.5234375 35.67578125 C36.91690786 42.51146723 37.63303836 48.54298909 36.88671875 56.609375 C35.35705726 61.53123917 32.81193945 65.24490012 28.88671875 68.609375 C30.08206787 71.43474564 31.44795916 73.28012574 33.44921875 75.671875 C37.21472482 80.20979258 37.28715351 84.04992145 37.234375 89.75 C36.54308633 95.43565511 33.45275172 99.04334203 29.51171875 102.984375 C24.15754687 106.29886236 19.09138334 106.86262662 12.88671875 106.609375 C13.04527344 107.32351563 13.20382812 108.03765625 13.3671875 108.7734375 C14.43625763 114.60911356 15.11079274 121.05412825 12.32421875 126.484375 C8.87176325 130.9106 5.22629863 133.82951504 -0.11328125 135.609375 C-2.12890625 135.8125 -2.12890625 135.8125 -4.36328125 135.859375 C-5.45382812 135.89804687 -5.45382812 135.89804687 -6.56640625 135.9375 C-10.11357606 135.48050266 -12.87102409 134.11188442 -16.11328125 132.609375 C-17.17719381 108.88903531 -17.17719381 108.88903531 -9.515625 99.69140625 C-7.92578125 97.984375 -7.92578125 97.984375 -5.11328125 95.609375 C-4.45328125 95.609375 -3.79328125 95.609375 -3.11328125 95.609375 C-3.11328125 94.619375 -3.11328125 93.629375 -3.11328125 92.609375 C-8.45272995 95.33144688 -11.4590923 97.8804246 -15.11328125 102.609375 C-15.44328125 102.609375 -15.77328125 102.609375 -16.11328125 102.609375 C-16.11328125 97.329375 -16.11328125 92.049375 -16.11328125 86.609375 C-17.10328125 87.104375 -17.10328125 87.104375 -18.11328125 87.609375 C-18.44328125 117.639375 -18.77328125 147.669375 -19.11328125 178.609375 C-23.11328125 178.609375 -23.11328125 178.609375 -25.3348999 177.14263916 C-27.8448768 173.56723363 -27.64224759 170.28593301 -27.56738281 166.07714844 C-27.56796692 165.21825012 -27.56855103 164.35935181 -27.56915283 163.47442627 C-27.5663687 160.63878805 -27.53526142 157.80420431 -27.50390625 154.96875 C-27.49644503 153.00149103 -27.49075153 151.03422463 -27.48675537 149.06695557 C-27.47148974 143.89151455 -27.43219974 138.71652322 -27.38793945 133.54125977 C-27.3470069 128.25933923 -27.32874865 122.97734596 -27.30859375 117.6953125 C-27.26570654 107.33313586 -27.1974438 96.97129284 -27.11328125 86.609375 C-28.10328125 87.104375 -28.10328125 87.104375 -29.11328125 87.609375 C-29.11328125 96.189375 -29.11328125 104.769375 -29.11328125 113.609375 C-32.95583602 112.32852341 -34.10859827 110.33546911 -36.515625 107.203125 C-38.34974747 105.37348694 -39.58785158 105.0020984 -42.11328125 104.609375 C-41.41203125 105.269375 -40.71078125 105.929375 -39.98828125 106.609375 C-35.47112892 111.12652733 -30.27752352 116.43762124 -30.015625 123.08984375 C-30.02722656 123.98316406 -30.03882813 124.87648438 -30.05078125 125.796875 C-30.05980469 126.69792969 -30.06882812 127.59898437 -30.078125 128.52734375 C-30.08972656 129.21441406 -30.10132813 129.90148437 -30.11328125 130.609375 C-36.6478311 134.4314702 -41.42476551 136.47198896 -49.11328125 135.609375 C-55.04952189 133.8930034 -58.88206497 130.19646863 -62.9609375 125.70703125 C-64.11328125 123.609375 -64.11328125 123.609375 -63.9453125 121.03125 C-62.97186571 118.19774292 -61.330605 116.48019341 -59.390625 114.2421875 C-53.7579176 107.04196826 -54.81079109 98.21353944 -55.11328125 89.609375 C-54.53320312 89.51140625 -53.953125 89.4134375 -53.35546875 89.3125 C-45.73571212 87.85393272 -40.59641051 85.17395712 -36.11328125 78.609375 C-33.32483294 72.62123242 -32.97903473 66.34177243 -34.90625 60 C-36.51565229 56.22622911 -38.06816808 53.40145584 -41.11328125 50.609375 C-40.11328125 47.609375 -40.11328125 47.609375 -37.80078125 45.359375 C-32.58628093 40.02360723 -30.43236718 34.75749214 -29.86328125 27.359375 C-30.28386309 21.05064747 -32.00909609 15.49530972 -36.11328125 10.609375 C-36.11328125 9.949375 -36.11328125 9.289375 -36.11328125 8.609375 C-37.43328125 7.949375 -38.75328125 7.289375 -40.11328125 6.609375 C-40.11328125 5.949375 -40.11328125 5.289375 -40.11328125 4.609375 C-27.87201237 -6.01595785 -14.1790509 -9.33039209 0 0 Z " fill="#currentColor" transform="translate(348.11328125,198.390625)"/>
<path d="M0 0 C5.08184205 3.50889094 8.38739548 7.65631502 11.625 12.8125 C12.800625 12.07 12.800625 12.07 14 11.3125 C18.67662835 9.37734344 22.62613635 9.05534313 27.625 9.8125 C31 11.6875 31 11.6875 33.625 13.8125 C34.9441582 14.50679379 36.27149406 15.18780495 37.625 15.8125 C38.32625 15.19375 39.0275 14.575 39.75 13.9375 C44.89243523 10.13656961 50.27895855 8.8761988 56.625 9.8125 C62.56543833 11.67834226 67.08069583 14.61775769 71.625 18.8125 C73.1409375 17.8534375 73.1409375 17.8534375 74.6875 16.875 C79.03356074 14.43632864 82.82520228 13.25842444 87.85546875 14.25390625 C94.43442796 16.18241188 98.89889341 18.93565569 102.5 24.9375 C103.625 27.8125 103.625 27.8125 103.625 30.8125 C50.495 30.8125 -2.635 30.8125 -57.375 30.8125 C-54.48572635 24.07086149 -52.20687101 19.65385116 -45.375 16.8125 C-40.05235559 16.1544276 -35.3523178 16.77052347 -30.375 18.8125 C-30.21644531 18.16023438 -30.05789062 17.50796875 -29.89453125 16.8359375 C-27.89891389 9.36064154 -25.64021528 4.4955409 -18.75 0.4375 C-12.68908089 -2.30598422 -6.20542165 -2.1833891 0 0 Z " fill="#currentColor" transform="translate(255.375,362.1875)"/>
</svg>
