<?xml version="1.0" encoding="UTF-8"?>
<svg version="1.1" xmlns="http://www.w3.org/2000/svg" width="550" height="550">
<path d="M0 0 C1.0714753 -0.0076664 1.0714753 -0.0076664 2.16459656 -0.01548767 C4.52135644 -0.02936584 6.8778233 -0.02842829 9.23461914 -0.02612305 C10.87602344 -0.03001093 12.51742674 -0.0343458 14.15882874 -0.03910828 C17.59778099 -0.04656664 21.03663058 -0.04628199 24.47558594 -0.04101562 C28.8784412 -0.03522119 33.28087575 -0.052153 37.68366146 -0.0753603 C41.07319081 -0.09010548 44.46261902 -0.09096829 47.85217476 -0.08785057 C49.47525427 -0.08836338 51.0983395 -0.09359358 52.72138786 -0.10366249 C54.99292061 -0.11602521 57.26363619 -0.10923692 59.53515625 -0.09765625 C60.82659042 -0.09828568 62.1180246 -0.0989151 63.44859314 -0.0995636 C67.11423652 0.30584198 68.96164545 0.98928998 71.83227539 3.2746582 C73.85932003 6.47123136 74.0799631 8.98167219 74.07278442 12.72894287 C74.07553375 13.83669571 74.07828308 14.94444855 74.08111572 16.08576965 C74.0703299 17.90161812 74.0703299 17.90161812 74.05932617 19.75415039 C74.05961823 21.03245224 74.05991028 22.31075409 74.06021118 23.62779236 C74.06078491 27.12956623 74.04902746 30.63120304 74.03506327 34.13294506 C74.02255918 37.79380282 74.02138566 41.45466373 74.01901245 45.11553955 C74.01279673 52.04634144 73.99638468 58.97708022 73.97631347 65.90785432 C73.94977693 75.27452435 73.93898257 84.64121164 73.92730904 94.00790977 C73.90850415 108.76353985 73.86865911 123.51903676 73.83227539 138.2746582 C44.79227539 138.2746582 15.75227539 138.2746582 -14.16772461 138.2746582 C-14.28863371 105.62472237 -14.28863371 105.62472237 -14.31420898 91.95239258 C-14.3320162 82.50857664 -14.35296048 73.06484095 -14.39404297 63.62109375 C-14.42394768 56.74353449 -14.44330016 49.86604027 -14.44999009 42.9884178 C-14.45390056 39.34685476 -14.46308897 35.70547778 -14.48491478 32.06397438 C-14.50908425 27.99845759 -14.50969392 23.93326418 -14.50830078 19.86767578 C-14.51908661 18.66070541 -14.52987244 17.45373505 -14.54098511 16.21018982 C-14.53686111 15.10106232 -14.53273712 13.99193481 -14.52848816 12.84919739 C-14.53125354 11.88776731 -14.53401892 10.92633722 -14.5368681 9.9357729 C-14.09590902 6.75694757 -13.01519697 4.87499003 -11.16772461 2.2746582 C-7.72659436 -0.28778413 -4.17732444 0.01491244 0 0 Z M15.83227539 35.2746582 C14.56062534 38.49617167 14.63957454 39.80361167 15.95727539 43.0246582 C18.22010811 45.74005747 19.4409799 45.76318413 22.83227539 46.2746582 C22.81132812 47.04132813 22.79038086 47.80799805 22.76879883 48.59790039 C22.68562381 52.0733528 22.63360965 55.54859583 22.58227539 59.0246582 C22.54875977 60.2312207 22.51524414 61.4377832 22.48071289 62.6809082 C22.46782227 63.84106445 22.45493164 65.0012207 22.44165039 66.1965332 C22.42070312 67.26484375 22.39975586 68.3331543 22.37817383 69.43383789 C22.9443444 72.97575231 24.01402538 74.12311835 26.83227539 76.2746582 C30.36398626 76.86327668 32.04132869 76.83398588 34.98657227 74.7512207 C37.53391938 71.33319304 37.40754228 68.25001738 37.36352539 64.1496582 C37.36926575 62.9737915 37.36926575 62.9737915 37.37512207 61.77416992 C37.37783892 60.12002271 37.3704935 58.46583238 37.35375977 56.81176758 C37.33234431 54.28279659 37.35356636 51.75666606 37.37915039 49.2277832 C37.37650707 47.61840195 37.371382 46.00902245 37.36352539 44.3996582 C37.37162231 43.64539551 37.37971924 42.89113281 37.38806152 42.11401367 C37.32589547 38.62556474 37.09867686 36.63328917 34.99243164 33.79785156 C32.02288996 31.70393536 29.9351639 31.77518191 26.33227539 31.8371582 C25.20821289 31.83844727 24.08415039 31.83973633 22.92602539 31.84106445 C19.59742739 32.30757251 18.20703674 32.94480959 15.83227539 35.2746582 Z " fill="#currentColor" transform="translate(245.167724609375,253.725341796875)"/>
<path d="M0 0 C5.4272169 2.42670712 8.94969257 6.36016503 12.984375 10.6484375 C14.22477539 11.92944336 14.22477539 11.92944336 15.49023438 13.23632812 C17.5233454 15.33995167 19.5411187 17.45627103 21.546875 19.5859375 C24.6222049 18.42014989 27.38849597 17.18609803 30.140625 15.38671875 C30.77871094 14.98259766 31.41679687 14.57847656 32.07421875 14.16210938 C33.39467178 13.31623501 34.70978403 12.4619677 36.01953125 11.59960938 C40.86429375 8.56062199 40.86429375 8.56062199 44.390625 8.69140625 C46.546875 9.5859375 46.546875 9.5859375 48.546875 11.5859375 C49.14587142 19.14934205 47.64293604 26.59020941 46.46484375 34.04296875 C46.24764768 35.43679541 46.03063519 36.8306507 45.813797 38.22453308 C45.35998116 41.13078399 44.90113647 44.03619004 44.43920898 46.94116211 C43.84827009 50.6626981 43.27442469 54.38665364 42.70478344 58.11150074 C42.26279593 60.98414585 41.8096507 63.8549482 41.3533268 66.72534752 C41.13687433 68.09824626 40.92440598 69.47177937 40.7160244 70.84592628 C40.42418009 72.76213832 40.11518712 74.67571489 39.80541992 76.58911133 C39.63443283 77.67750809 39.46344574 78.76590485 39.28727722 79.88728333 C38.47783859 82.83756478 38.14306299 83.97743366 35.546875 85.5859375 C32.43493652 85.98034668 32.43493652 85.98034668 28.55273438 86.00585938 C27.84510452 86.01432892 27.13747467 86.02279846 26.40840149 86.03152466 C24.06895996 86.05492715 21.73017473 86.05591622 19.390625 86.0546875 C17.76541886 86.06178644 16.14021523 86.06948504 14.51501465 86.07775879 C11.10873445 86.0912105 7.70268606 86.09276902 4.29638672 86.08691406 C-0.07222128 86.08101288 -4.43971985 86.1116223 -8.8081131 86.15203094 C-12.16414397 86.17785779 -15.51990578 86.18079007 -18.87602234 86.17713928 C-20.48681938 86.17883483 -22.09762828 86.18851906 -23.70832825 86.20628357 C-25.95930674 86.22837991 -28.20801479 86.21882327 -30.45898438 86.20117188 C-32.38067444 86.20425354 -32.38067444 86.20425354 -34.34118652 86.20739746 C-37.453125 85.5859375 -37.453125 85.5859375 -39.31060791 83.44419861 C-40.55012039 80.34328193 -41.20916097 77.53866288 -41.72753906 74.23852539 C-41.93074768 72.97694107 -42.1339563 71.71535675 -42.34332275 70.4155426 C-42.55230898 69.04663749 -42.76077201 67.67765241 -42.96875 66.30859375 C-43.19038763 64.89511224 -43.41270887 63.48173777 -43.63568115 62.06846619 C-44.09969914 59.11153666 -44.55603389 56.15355247 -45.00683594 53.19458008 C-45.5836708 49.41189798 -46.1785818 45.63232956 -46.77917862 41.85335636 C-47.2408298 38.93670051 -47.69329757 36.01867698 -48.14299774 33.10015678 C-48.35878708 31.70635411 -48.57728398 30.31296772 -48.79859161 28.92003059 C-49.1070517 26.96903835 -49.40193973 25.01591511 -49.69628906 23.06274414 C-49.86710999 21.95419571 -50.03793091 20.84564728 -50.21392822 19.70350647 C-50.46718827 16.40264405 -50.31664482 13.78264282 -49.453125 10.5859375 C-46.453125 8.5859375 -46.453125 8.5859375 -44.30078125 8.63671875 C-39.29224904 10.30622949 -35.01365024 13.39736905 -30.60351562 16.25585938 C-29.87197266 16.70896484 -29.14042969 17.16207031 -28.38671875 17.62890625 C-27.3975647 18.26348755 -27.3975647 18.26348755 -26.38842773 18.91088867 C-24.44829376 19.80383972 -24.44829376 19.80383972 -22.44873047 18.95507812 C-20.16553269 17.3886268 -18.4576552 15.68184081 -16.58984375 13.63671875 C-15.86732422 12.87166016 -15.14480469 12.10660156 -14.40039062 11.31835938 C-12.89345093 9.70461842 -11.39858282 8.07952001 -9.91601562 6.44335938 C-4.49514742 0.76275126 -4.49514742 0.76275126 0 0 Z " fill="#currentColor" transform="translate(275.453125,154.4140625)"/>
<path d="M0 0 C0 35.31 0 70.62 0 107 C-52 107 -52 107 -56 104 C-56.50615788 102.0802927 -56.50615788 102.0802927 -56.5146637 99.86976624 C-56.52738815 99.03000748 -56.54011261 98.19024872 -56.55322266 97.32504272 C-56.54669678 96.40703888 -56.5401709 95.48903503 -56.53344727 94.54321289 C-56.54206284 93.57384293 -56.55067841 92.60447296 -56.55955505 91.60572815 C-56.58229802 88.39443423 -56.57546044 85.18400712 -56.56640625 81.97265625 C-56.57163836 79.7444991 -56.57791332 77.51634416 -56.58518982 75.28819275 C-56.59560962 70.61495554 -56.59101009 65.94202253 -56.57641602 61.26879883 C-56.55923168 55.2749212 -56.58271165 49.28200244 -56.61790562 43.28823185 C-56.63984913 38.68572109 -56.63844537 34.08344079 -56.6301403 29.48089409 C-56.62931901 27.27085761 -56.63621627 25.0608045 -56.65091133 22.85081673 C-56.66829913 19.76200287 -56.65386162 16.67492509 -56.63110352 13.58618164 C-56.64279572 12.67020203 -56.65448792 11.75422241 -56.66653442 10.81048584 C-56.65388046 9.96790726 -56.6412265 9.12532867 -56.62818909 8.25721741 C-56.62760278 7.52736665 -56.62701647 6.79751589 -56.62641239 6.04554844 C-51.06807587 -12.10518859 -18.98273846 0 0 0 Z " fill="#currentColor" transform="translate(217,285)"/>
<path d="M0 0 C8.12625 -0.0825 16.2525 -0.165 24.625 -0.25 C27.18072754 -0.28641602 29.73645508 -0.32283203 32.36962891 -0.36035156 C34.4052649 -0.37203882 36.44091026 -0.38223056 38.4765625 -0.390625 C40.04990356 -0.4213208 40.04990356 -0.4213208 41.6550293 -0.45263672 C43.17664673 -0.45336182 43.17664673 -0.45336182 44.72900391 -0.45410156 C46.04138535 -0.46742523 46.04138535 -0.46742523 47.38027954 -0.48101807 C51.15612755 0.21228152 53.1645881 1.40711432 56 4 C56.60918058 7.0015774 56.80378975 9.20728362 56.74462891 12.20922852 C56.75193024 13.03404724 56.75923157 13.85886597 56.76675415 14.7086792 C56.78295664 17.43292819 56.7557633 20.1547942 56.7265625 22.87890625 C56.72552524 24.77172341 56.72656087 26.66454275 56.72958374 28.55735779 C56.72940434 32.52285964 56.70855669 36.48754782 56.67236328 40.45288086 C56.62695594 45.53992839 56.62590601 50.62578866 56.63939857 55.71298313 C56.64607568 59.62064703 56.63282363 63.52803936 56.61314011 67.43565178 C56.60543373 69.31155922 56.60314067 71.18749685 56.6063118 73.06341743 C56.60705221 75.68292116 56.58184581 78.30089223 56.54931641 80.92016602 C56.55427124 81.69790878 56.55922607 82.47565155 56.56433105 83.27696228 C56.50017782 86.50755853 56.44304509 88.48532184 54.29238892 90.98370361 C51.59675801 92.17877131 49.71987962 92.36203796 46.77246094 92.34057617 C45.71720215 92.34021362 44.66194336 92.33985107 43.57470703 92.33947754 C42.47239746 92.32412964 41.37008789 92.30878174 40.234375 92.29296875 C39.21617676 92.28994751 38.19797852 92.28692627 37.14892578 92.28381348 C33.34918059 92.26812957 29.54958001 92.22624557 25.75 92.1875 C17.2525 92.125625 8.755 92.06375 0 92 C0 61.64 0 31.28 0 0 Z " fill="#currentColor" transform="translate(333,300)"/>
<path d="M0 0 C2.38268836 1.58845891 2.88603501 2.69066646 3.875 5.375 C4.03788731 8.79563345 2.9916082 10.27075913 1 13 C-1 15 -1 15 -4.3125 15.4375 C-8 15 -8 15 -11 12.9375 C-13 10 -13 10 -13.125 6.4375 C-10.82482016 -0.59082729 -6.9137086 -1.92047461 0 0 Z " fill="#currentColor" transform="translate(330,146)"/>
<path d="M0 0 C2.81972931 2.36493426 2.97850831 3.8280665 3.4375 7.5 C3 11 3 11 1.4375 13.4375 C-1.98314143 15.63021887 -4.00951279 15.63007693 -8 15 C-11.42123173 12.52506641 -12.79477021 11.11736219 -13.5625 6.9375 C-12.88178485 3.38265419 -11.79927541 2.222954 -9 0 C-5.8168485 -1.59157575 -3.38676935 -0.77242108 0 0 Z " fill="#currentColor" transform="translate(229,146)"/>
<path d="M0 0 C1.91015625 0.4453125 1.91015625 0.4453125 4.47265625 2.5078125 C6.37466577 6.3945276 6.18079195 8.33443229 4.91015625 12.4453125 C2.72265625 14.9453125 2.72265625 14.9453125 -0.08984375 16.4453125 C-3.68466365 16.4453125 -5.50530822 15.84525786 -8.46484375 13.8203125 C-10.74228063 10.4917509 -10.65400968 8.394474 -10.08984375 4.4453125 C-7.53315462 0.29069266 -4.61630624 -0.25885829 0 0 Z " fill="#currentColor" transform="translate(277.08984375,132.5546875)"/>
<path d="" fill="#currentColor" transform="translate(0,0)"/>
</svg>
