<?xml version="1.0" encoding="UTF-8"?>
<svg version="1.1" xmlns="http://www.w3.org/2000/svg" width="1080" height="1007">
<path d="M0 0 C1.66588596 -0.01248092 3.33174948 -0.02834892 4.99757385 -0.04734802 C9.51864704 -0.088089 14.03829023 -0.07806714 18.55944514 -0.05651021 C22.33443377 -0.04332039 26.10916362 -0.05542999 29.88414198 -0.06771559 C38.79019599 -0.09653505 47.69556039 -0.08493946 56.6015625 -0.046875 C65.78786696 -0.00818952 74.9725195 -0.03106353 84.15870756 -0.0854035 C92.04771795 -0.13026032 99.93622184 -0.1400848 107.82533747 -0.12113374 C112.5363036 -0.10997163 117.24638025 -0.11134066 121.95725822 -0.14506721 C126.38788187 -0.17499527 130.8162477 -0.16098807 135.24669456 -0.11329079 C136.87122526 -0.10300017 138.49593646 -0.10799293 140.12035751 -0.1294899 C152.39635617 -0.27820299 152.39635617 -0.27820299 156.19143867 3.0280323 C157.75017378 5.32254281 158.87282555 7.49013489 159.92211914 10.05102539 C160.75743164 11.5031543 160.75743164 11.5031543 161.60961914 12.98461914 C162.04274414 13.8109082 162.47586914 14.63719727 162.92211914 15.48852539 C165.27652689 19.89157365 167.76341358 24.18064712 170.35180664 28.44946289 C174.14033392 34.72597823 177.84724613 41.0531037 181.35961914 47.48852539 C183.44038613 51.2780017 185.69780658 54.9462621 187.98461914 58.61352539 C190.46457705 62.6128616 192.77096469 66.57264969 194.79321289 70.81665039 C196.41189919 74.02041705 198.19959774 77.12559281 199.98461914 80.23852539 C200.32557617 80.83334717 200.6665332 81.42816895 201.01782227 82.04101562 C202.53125686 84.66998132 204.06325732 87.27741483 205.66821289 89.85180664 C206.92211914 92.05102539 206.92211914 92.05102539 206.92211914 94.05102539 C207.58211914 94.05102539 208.24211914 94.05102539 208.92211914 94.05102539 C209.80963867 95.75258789 209.80963867 95.75258789 210.71508789 97.48852539 C211.51310111 99.00944471 212.31128749 100.53027319 213.10961914 102.05102539 C213.49698242 102.79481445 213.8843457 103.53860352 214.28344727 104.30493164 C216.63541113 108.77560675 219.12866319 113.09466976 221.86328125 117.34277344 C222.92211914 119.05102539 222.92211914 119.05102539 224.29711914 121.86352539 C225.82831753 124.86702992 227.52790226 127.59872566 229.35961914 130.42602539 C231.80367349 134.21482095 233.96241531 137.97815892 235.90649414 142.03930664 C237.526036 145.24724533 239.41946189 148.28264331 241.28540039 151.35180664 C245.30177519 157.9754701 249.19826316 164.66193212 252.85961914 171.48852539 C255.72276442 176.79919809 258.87644426 181.90552582 262.09008789 187.00805664 C263.92211914 190.05102539 263.92211914 190.05102539 265.44946289 193.10961914 C266.8946306 195.99612121 268.51705149 198.61078741 270.29711914 201.30102539 C273.11059328 205.65718178 275.49531827 210.06320996 277.75024414 214.72680664 C279.18001607 217.56252097 280.82928908 220.19714909 282.54321289 222.86743164 C286.57511342 229.25222597 290.29079948 235.83578004 293.85961914 242.48852539 C296.72276442 247.79919809 299.87644426 252.90552582 303.09008789 258.00805664 C304.92211914 261.05102539 304.92211914 261.05102539 306.44946289 264.10961914 C307.8946306 266.99612121 309.51705149 269.61078741 311.29711914 272.30102539 C313.58990906 275.84836073 315.65303703 279.37060236 317.48461914 283.17602539 C319.46490123 287.28543431 321.79278005 290.94174584 324.37915039 294.69165039 C326.66354389 298.1847483 328.57803142 301.85806492 330.53930664 305.53930664 C331.66818687 307.58978683 332.83964032 309.50626887 334.17211914 311.42602539 C335.92211914 314.05102539 335.92211914 314.05102539 336.79321289 316.32446289 C338.13243564 319.55898705 339.86536619 322.34167273 341.73461914 325.30102539 C344.47066388 329.67538724 347.10527003 334.07726789 349.57836914 338.60571289 C354.13025675 346.88908976 358.8265485 355.08919627 363.92211914 363.05102539 C366.64244794 361.69086099 366.96435922 360.16515264 368.23461914 357.42602539 C369.74783188 354.29340955 371.2419248 351.43585931 373.35961914 348.67602539 C375.64985488 345.64630915 377.26511975 342.46673257 378.92211914 339.05102539 C380.89873529 334.97646626 382.96839228 331.41213726 385.70727539 327.82446289 C387.71606154 324.89202266 389.12630439 321.66591077 390.66430664 318.46899414 C392.13409813 315.64352541 393.90456972 313.21827477 395.81274414 310.67993164 C397.22316525 308.60899642 398.06998559 306.377893 398.98461914 304.05493164 C400.20092481 301.45507826 401.72875844 299.14176776 403.29711914 296.73852539 C405.59823572 293.21207629 407.66088948 289.72103566 409.48461914 285.92602539 C411.46490123 281.81661648 413.79278005 278.16030494 416.37915039 274.41040039 C418.66765761 270.91101213 420.58488184 267.23037041 422.55102539 263.54321289 C423.92211914 261.05102539 423.92211914 261.05102539 425.98461914 257.98852539 C427.57468002 255.57778792 428.80106163 253.32615701 430.04711914 250.73852539 C432.79889497 245.09866286 435.99139586 239.75290388 439.19799805 234.36450195 C441.52547801 230.44644761 443.78674388 226.51592831 445.92211914 222.48852539 C448.77793044 217.15821851 452.00165112 212.08663849 455.23266602 206.97949219 C459.50370705 200.19669548 463.36387796 193.2334011 466.92211914 186.05102539 C467.58211914 186.05102539 468.24211914 186.05102539 468.92211914 186.05102539 C469.25211914 184.83415039 469.58211914 183.61727539 469.92211914 182.36352539 C471.7664843 176.78651645 474.79326828 172.12745663 477.93383789 167.19555664 C479.58803922 164.57938361 481.13128957 161.95583594 482.60961914 159.23852539 C484.10794781 156.48659507 485.67360518 153.81709156 487.35961914 151.17602539 C489.95751073 147.09129019 492.21992256 142.84785253 494.51196289 138.58618164 C496.15764444 135.6276018 498.04491104 132.86683755 499.92211914 130.05102539 C500.56196473 128.78760148 501.18591156 127.51604943 501.79711914 126.23852539 C503.65071555 122.40727296 505.90354202 118.99031914 508.35961914 115.51977539 C510.07411887 112.81086582 511.46267161 110.02754153 512.87329102 107.15209961 C514.53229345 103.82868832 516.34566943 100.5971404 518.17211914 97.36352539 C518.75582275 96.32651489 518.75582275 96.32651489 519.35131836 95.26855469 C522.42917305 89.83767073 525.68756988 84.54208023 528.99243164 79.24633789 C532.18352171 73.96230616 535.05864398 68.51847327 537.92211914 63.05102539 C538.58211914 63.05102539 539.24211914 63.05102539 539.92211914 63.05102539 C540.27274414 61.79290039 540.62336914 60.53477539 540.98461914 59.23852539 C542.64089624 54.24625621 545.20862242 50.22360622 548.10180664 45.85961914 C550.38472548 42.33726153 552.34971112 38.68936184 554.33227539 34.99243164 C559.33380073 25.73899532 564.67825183 16.70756241 570.25805664 7.79321289 C572.0697201 4.89197887 572.0697201 4.89197887 573.92211914 1.05102539 C646.19211914 1.05102539 718.46211914 1.05102539 792.92211914 1.05102539 C792.92211914 244.59102539 792.92211914 488.13102539 792.92211914 739.05102539 C744.08211914 739.05102539 695.24211914 739.05102539 644.92211914 739.05102539 C644.59211914 554.25102539 644.26211914 369.45102539 643.92211914 179.05102539 C639.89395708 185.76462882 635.96053844 192.47707015 632.17993164 199.32446289 C629.92957479 203.36559668 627.49723645 207.2047167 624.92211914 211.05102539 C624.26653207 212.30635322 623.63631885 213.57570317 623.04711914 214.86352539 C621.19352273 218.69477782 618.94069626 222.11173164 616.48461914 225.58227539 C614.77011941 228.29118496 613.38156667 231.07450925 611.97094727 233.94995117 C610.31194484 237.27336246 608.49856885 240.50491039 606.67211914 243.73852539 C606.2829834 244.42986572 605.89384766 245.12120605 605.49291992 245.83349609 C602.41506524 251.26438005 599.1566684 256.55997055 595.85180664 261.85571289 C592.66071657 267.13974462 589.7855943 272.58357751 586.92211914 278.05102539 C586.26211914 278.05102539 585.60211914 278.05102539 584.92211914 278.05102539 C584.57149414 279.30915039 584.22086914 280.56727539 583.85961914 281.86352539 C582.20334204 286.85579457 579.63561586 290.87844457 576.74243164 295.24243164 C574.4595128 298.76478925 572.49452716 302.41268895 570.51196289 306.10961914 C565.57636238 315.24108643 560.28624474 324.12855874 554.80493164 332.94165039 C552.47523222 336.78903781 550.34704567 340.72623037 548.22680664 344.69165039 C546.62236116 347.5931027 544.7604945 350.29346236 542.92211914 353.05102539 C542.28846641 354.27440759 541.67257073 355.50708052 541.07055664 356.74633789 C539.05858423 360.81615679 536.90479696 364.78620222 534.67211914 368.73852539 C534.2829834 369.42914063 533.89384766 370.11975586 533.49291992 370.83129883 C530.39629784 376.29090109 527.14441299 381.6357317 523.82836914 386.96508789 C519.64917916 393.73057987 515.67960178 400.60552206 511.92211914 407.61352539 C509.34229132 412.40069252 506.46338182 416.93820287 503.50805664 421.50024414 C501.79931136 424.24854628 500.39942537 427.04724834 499.01196289 429.96508789 C497.65546384 432.56139791 496.08309607 434.97158985 494.48461914 437.42602539 C491.68699974 441.73877343 489.32937082 446.10364124 487.09399414 450.72680664 C485.66422221 453.56252097 484.0149492 456.19714909 482.30102539 458.86743164 C478.26912486 465.25222597 474.5534388 471.83578004 470.98461914 478.48852539 C468.12147386 483.79919809 464.96779402 488.90552582 461.75415039 494.00805664 C459.89270027 497.00955194 459.89270027 497.00955194 458.39477539 500.10961914 C456.94960769 502.99612121 455.32718679 505.61078741 453.54711914 508.30102539 C450.7320326 512.6596783 448.3464958 517.06845521 446.09008789 521.73461914 C444.6844477 524.52239383 443.05831206 527.1032159 441.37133789 529.72680664 C439.47476441 532.76848109 437.69632651 535.87460201 435.92211914 538.98852539 C435.57375 539.59962158 435.22538086 540.21071777 434.86645508 540.84033203 C433.0007428 544.12382707 431.16672492 547.4225161 429.35961914 550.73852539 C427.51815949 554.08663384 425.50322988 557.2840624 423.42211914 560.48852539 C420.66668725 564.75557651 418.36755089 569.08084923 416.16821289 573.65258789 C414.49407639 576.87490705 412.45352061 579.78042531 410.39477539 582.76586914 C408.35255632 585.93482976 406.76549271 589.27480565 405.12524414 592.66430664 C403.70605036 595.47965535 402.06982143 598.08467277 400.36743164 600.73461914 C395.89033396 607.91007569 391.81723126 615.36223524 387.79711914 622.80102539 C385.79991611 626.47347797 383.77131885 630.123237 381.67211914 633.73852539 C381.19258789 634.56739258 380.71305664 635.39625977 380.21899414 636.25024414 C379.79102539 636.84450195 379.36305664 637.43875977 378.92211914 638.05102539 C378.26211914 638.05102539 377.60211914 638.05102539 376.92211914 638.05102539 C376.83833008 638.91469727 376.75454102 639.77836914 376.66821289 640.66821289 C375.80218271 644.59482096 374.29823951 646.90432354 371.98461914 650.17602539 C368.64316781 654.93218456 368.64316781 654.93218456 365.92211914 660.05102539 C363.53771393 659.67877648 362.26216022 659.44113387 360.64868164 657.59008789 C360.28516602 656.95844727 359.92165039 656.32680664 359.54711914 655.67602539 C359.12817383 654.95930664 358.70922852 654.24258789 358.27758789 653.50415039 C356.2719239 649.87430316 354.29241508 646.23089335 352.32836914 642.57836914 C350.8921797 639.91310563 350.8921797 639.91310563 348.85961914 636.98852539 C347.17622167 634.43627762 345.87292029 631.98272333 344.54711914 629.23852539 C342.45929287 624.95366348 340.02276774 621.11599447 337.32446289 617.19555664 C335.63017762 614.60457443 334.31038021 611.925344 332.97680664 609.13696289 C331.33194492 605.88379193 329.39803745 602.81364151 327.50024414 599.70336914 C325.32116979 596.04101398 323.32557548 592.28701367 321.31274414 588.53149414 C320.14975099 586.45705412 318.92834891 584.54432898 317.54711914 582.61352539 C315.92211914 580.05102539 315.92211914 580.05102539 315.92211914 576.05102539 C315.26211914 576.05102539 314.60211914 576.05102539 313.92211914 576.05102539 C312.66040039 574.32055664 312.66040039 574.32055664 311.23461914 571.86352539 C310.70481445 570.95344727 310.17500977 570.04336914 309.62915039 569.10571289 C307.23704873 564.82510993 304.9523969 560.48924868 302.65649414 556.15649414 C301.12196746 553.40886191 299.48347991 550.87010886 297.67211914 548.30102539 C294.78626547 544.14200098 293.23356 539.91716122 291.92211914 535.05102539 C291.26211914 535.05102539 290.60211914 535.05102539 289.92211914 535.05102539 C289.60984375 534.47658691 289.29756836 533.90214844 288.97583008 533.31030273 C287.54415602 530.68062163 286.10817612 528.05331538 284.67211914 525.42602539 C284.18098633 524.52239258 283.68985352 523.61875977 283.18383789 522.68774414 C280.61007748 517.98634178 277.93228992 513.48247948 274.92211914 509.05102539 C274.2873315 507.83738924 273.67806058 506.60961623 273.10961914 505.36352539 C271.44441559 501.92122713 269.50299644 498.75885969 267.42211914 495.55102539 C265.04789129 491.88176416 262.94989366 488.25087736 261.06274414 484.31665039 C256.60856933 475.46931686 251.32399822 467.00598136 246.21508789 458.52636719 C241.63706466 450.92768028 237.11414214 443.30847331 232.92211914 435.48852539 C230.84715676 431.62307128 228.58930918 427.96176981 226.17211914 424.30102539 C223.52584491 420.2293849 221.87252978 416.8030786 220.92211914 412.05102539 C220.26211914 412.05102539 219.60211914 412.05102539 218.92211914 412.05102539 C218.61508057 411.48706055 218.30804199 410.9230957 217.99169922 410.34204102 C216.57519422 407.74365212 215.15493169 405.14733485 213.73461914 402.55102539 C213.25186523 401.66415039 212.76911133 400.77727539 212.27172852 399.86352539 C209.65324089 395.08346744 206.94209569 390.40641875 204.01855469 385.80688477 C202.54335135 383.44445715 201.2263314 381.01124397 199.92211914 378.55102539 C197.81985796 374.64682605 195.59608726 370.8855865 193.20727539 367.15258789 C191.66170631 364.62518313 190.26262714 362.03512798 188.85961914 359.42602539 C187.26562583 356.46225777 185.66615073 353.66707278 183.79711914 350.86352539 C182.33540817 348.67095894 181.18825829 346.65345569 180.04711914 344.30102539 C178.09762931 340.29584784 175.85287008 336.52313701 173.53930664 332.71899414 C170.97281235 328.48489848 168.49228826 324.20135582 166.00708008 319.91918945 C164.7540072 317.76155811 163.49805519 315.60561083 162.24243164 313.44946289 C154.02910838 299.32400529 154.02910838 299.32400529 150.67211914 293.05102539 C148.18272588 288.41039344 145.372355 284.02461187 142.51196289 279.60571289 C140.78518155 276.83098317 139.34690789 274.00646332 137.93774414 271.06274414 C136.31820228 267.85480545 134.42477639 264.81940747 132.55883789 261.75024414 C128.54246309 255.12658068 124.64597512 248.44011866 120.98461914 241.61352539 C118.12147386 236.3028527 114.96779402 231.19652496 111.75415039 226.09399414 C109.92211914 223.05102539 109.92211914 223.05102539 108.39477539 219.99243164 C106.94960769 217.10592957 105.32718679 214.49126338 103.54711914 211.80102539 C100.733645 207.444869 98.34892001 203.03884082 96.09399414 198.37524414 C94.66422221 195.53952981 93.0149492 192.90490169 91.30102539 190.23461914 C87.24401689 183.8100646 83.50932084 177.18463523 79.92211914 170.48852539 C75.19778718 161.21884907 75.19778718 161.21884907 68.92211914 153.05102539 C62.08919991 163.78007908 55.97910174 174.87006332 49.92211914 186.05102539 C49.26211914 186.05102539 48.60211914 186.05102539 47.92211914 186.05102539 C47.79063477 187.09709961 47.79063477 187.09709961 47.65649414 188.16430664 C46.7536283 191.7133378 45.16209645 194.16752658 43.17211914 197.23852539 C40.1479851 201.97833219 37.5007344 206.76932931 35.08227539 211.84399414 C33.94585441 214.00587244 32.66944935 215.81460538 31.17211914 217.73852539 C28.66120628 221.1690401 27.7718755 223.6939597 27.92211914 228.05102539 C29.25212249 231.27686686 31.02671899 234.12916189 32.92211914 237.05102539 C33.73571627 238.34200128 34.54824952 239.63364837 35.35961914 240.92602539 C35.76954102 241.57055664 36.17946289 242.21508789 36.60180664 242.87915039 C38.70846193 246.34453601 40.58513324 249.93250922 42.50415039 253.50415039 C43.64921672 255.56085356 44.83299906 257.49450647 46.17211914 259.42602539 C47.92211914 262.05102539 47.92211914 262.05102539 48.79321289 264.32446289 C50.13243564 267.55898705 51.86536619 270.34167273 53.73461914 273.30102539 C56.47471451 277.68186336 59.11163213 282.09107926 61.59008789 286.62524414 C66.49334395 295.5546342 71.65926827 304.29139261 77.03930664 312.94165039 C79.36811999 316.7875745 81.49616225 320.72270909 83.61352539 324.68774414 C84.98701147 327.24873097 84.98701147 327.24873097 87.10961914 330.30102539 C88.78951998 332.84984046 89.87910638 335.33092088 91.01977539 338.14868164 C92.46103828 341.18718825 94.42520541 343.85020883 96.32446289 346.61743164 C98.53256257 349.98086954 100.39865984 353.49452717 102.29711914 357.03930664 C106.67367352 365.15066102 111.30090876 373.10311504 116.17211914 380.92602539 C118.66230398 384.92776211 120.91067503 388.90745284 122.92993164 393.16040039 C124.49095293 396.13494489 126.42121751 398.8432296 128.35961914 401.58227539 C130.07411887 404.29118496 131.46267161 407.07450925 132.87329102 409.94995117 C134.53228797 413.2733515 136.34550067 416.50501518 138.17211914 419.73852539 C138.56125488 420.42914063 138.95039063 421.11975586 139.35131836 421.83129883 C142.44936661 427.29341555 145.70336932 432.64038212 149.01977539 437.97290039 C153.42245993 445.09675135 157.56534881 452.33832417 161.48461914 459.73852539 C163.53078641 463.59635537 165.6581711 467.23183991 168.17211914 470.80102539 C171.05797281 474.9600498 172.61067828 479.18488956 173.92211914 484.05102539 C174.58211914 484.05102539 175.24211914 484.05102539 175.92211914 484.05102539 C176.22915771 484.61499023 176.53619629 485.17895508 176.85253906 485.76000977 C178.26904406 488.35839866 179.68930659 490.95471593 181.10961914 493.55102539 C181.59237305 494.43790039 182.07512695 495.32477539 182.57250977 496.23852539 C185.18947271 501.01580002 187.89923693 505.68968146 190.82128906 510.28637695 C192.32175712 512.69165154 193.65836126 515.1712821 194.98461914 517.67602539 C196.57861245 520.63979301 198.17808755 523.434978 200.04711914 526.23852539 C201.5012489 528.41972003 202.61496459 530.3952821 203.73461914 532.73852539 C205.3998227 536.18082365 207.34124185 539.3431911 209.42211914 542.55102539 C211.79469981 546.21774096 213.89200119 549.84593903 215.77758789 553.77758789 C220.31515807 562.79078189 225.7155428 571.38187323 231.03930664 579.94165039 C233.36900606 583.78903781 235.49719261 587.72623037 237.61743164 591.69165039 C238.9818408 594.23589045 238.9818408 594.23589045 241.04711914 597.23852539 C242.5012489 599.41972003 243.61496459 601.3952821 244.73461914 603.73852539 C246.3998227 607.18082365 248.34124185 610.3431911 250.42211914 613.55102539 C252.79469981 617.21774096 254.89200119 620.84593903 256.77758789 624.77758789 C261.34551933 633.85108994 266.75690176 642.52053772 272.16040039 651.11352539 C273.92211914 654.05102539 273.92211914 654.05102539 275.40258789 657.01977539 C277.06269715 660.33145863 278.95102672 663.41519654 280.92211914 666.55102539 C283.49105983 670.63797649 285.76481905 674.73642521 287.92211914 679.05102539 C289.02379788 680.81579987 290.14911342 682.56603033 291.29711914 684.30102539 C294.11059328 688.65718178 296.49531827 693.06320996 298.75024414 697.72680664 C300.18001607 700.56252097 301.82928908 703.19714909 303.54321289 705.86743164 C308.20322858 713.24688991 312.43531722 720.89161619 316.56274414 728.57836914 C317.51569194 730.31174833 318.53250483 732.0108141 319.59399414 733.67993164 C320.92211914 736.05102539 320.92211914 736.05102539 320.92211914 739.05102539 C298.87802759 739.28467505 276.83414032 739.46099193 254.78906155 739.56914711 C244.55296361 739.62070164 234.31763522 739.69098061 224.08203125 739.80541992 C215.16012928 739.90512378 206.23878458 739.9696145 197.31634098 739.99191034 C192.59203765 740.00494323 187.86932848 740.03554401 183.14553642 740.10832596 C178.69713804 740.1763082 174.25098681 740.19712286 169.8021183 740.1821022 C168.17141367 740.18484898 166.54063243 740.20468704 164.9103775 740.24308014 C152.61814344 740.51831878 152.61814344 740.51831878 148.4637928 736.9242363 C146.63843652 734.36795233 145.26400316 731.88597805 143.92211914 729.05102539 C143.09724833 727.77511504 143.09724833 727.77511504 142.25571346 726.47342873 C140.92211914 724.05102539 140.92211914 724.05102539 140.92211914 720.05102539 C140.26211914 720.05102539 139.60211914 720.05102539 138.92211914 720.05102539 C137.33618164 717.70727539 137.33618164 717.70727539 135.54711914 714.55102539 C134.9193457 713.44629883 134.29157227 712.34157227 133.64477539 711.20336914 C132.36311563 708.85801897 131.13940383 706.52148449 129.98461914 704.11352539 C127.64456071 699.27202518 124.71735316 694.78861366 121.87524414 690.23071289 C119.82982097 686.90076397 117.93080912 683.51719431 116.06274414 680.08618164 C114.93250943 678.06956422 113.72838482 676.12432922 112.48461914 674.17602539 C109.88921922 670.09520791 107.62817621 665.85645037 105.34008789 661.59790039 C104.19502156 659.54119722 103.01123922 657.60754432 101.67211914 655.67602539 C99.92211914 653.05102539 99.92211914 653.05102539 99.08618164 650.84790039 C97.57969462 647.22828727 95.59617843 644.01076895 93.54711914 640.67602539 C92.76773236 639.39783106 91.98908271 638.11918696 91.21118164 636.84008789 C90.82873291 636.21150879 90.44628418 635.58292969 90.05224609 634.93530273 C88.94923802 633.0962411 87.87703205 631.24306514 86.81665039 629.37915039 C85.24466765 626.61764668 83.63468426 623.89109099 81.98461914 621.17602539 C80.04422406 617.9582848 78.16604186 614.72075866 76.35961914 611.42602539 C74.81647361 608.614945 73.20972754 605.87906148 71.48461914 603.17602539 C67.94506975 597.59485504 64.88786251 591.7401602 61.78149414 585.91040039 C58.6160729 580.06997528 55.08983205 574.47665294 51.48754883 568.89794922 C49.50233517 565.78057944 47.71121385 562.74828168 46.29711914 559.32836914 C45.09485172 556.46273741 43.8475839 554.24457769 42.04711914 551.73852539 C33.92211914 539.91665039 33.92211914 539.91665039 33.92211914 535.05102539 C33.26211914 535.05102539 32.60211914 535.05102539 31.92211914 535.05102539 C31.34204102 533.92825195 30.76196289 532.80547852 30.16430664 531.64868164 C26.45754601 524.52861558 22.79717733 517.53843722 18.18383789 510.95336914 C16.51882835 508.44296776 15.27752135 505.79737004 13.98461914 503.08227539 C12.78112975 500.78148684 11.38914261 498.69287965 9.92211914 496.55102539 C7.61774947 493.18088474 5.73537635 489.81397229 3.97680664 486.13696289 C2.33194492 482.88379193 0.39803745 479.81364151 -1.49975586 476.70336914 C-3.1441959 473.93957016 -4.68076898 471.13384472 -6.20288086 468.30102539 C-7.74030365 465.4492256 -9.27902644 462.74930701 -11.07788086 460.05102539 C-13.49745852 456.42165889 -15.50308116 452.62965128 -17.56616211 448.78930664 C-18.87350949 446.42121745 -20.24378899 444.13970871 -21.70288086 441.86352539 C-23.31883013 439.33956653 -24.72228231 436.81679314 -26.01538086 434.11352539 C-27.4658194 431.1132231 -29.12483057 428.42021701 -31.01538086 425.67602539 C-33.6166248 421.86821942 -35.66761302 417.98423794 -37.67553711 413.84008789 C-42.33723603 404.56863099 -47.84276793 395.72120219 -53.31616211 386.91430664 C-54.76182049 384.56471109 -56.16012286 382.20330581 -57.51538086 379.80102539 C-58.82156922 377.21884329 -58.82156922 377.21884329 -60.07788086 376.05102539 C-62.85946458 380.99850631 -65.59105626 385.9464907 -68.07788086 391.05102539 C-68.73788086 391.05102539 -69.39788086 391.05102539 -70.07788086 391.05102539 C-70.32924805 391.89922852 -70.58061523 392.74743164 -70.83959961 393.62133789 C-72.16917878 397.30389472 -73.9121774 400.56732577 -75.89038086 403.92602539 C-76.2485791 404.54388916 -76.60677734 405.16175293 -76.97583008 405.79833984 C-79.19250678 409.6032849 -81.49311689 413.3444505 -83.86303711 417.05493164 C-85.93629724 420.46147804 -87.77507812 423.99693697 -89.66381836 427.50805664 C-91.31076956 430.46983905 -93.18382309 433.2425949 -95.07788086 436.05102539 C-95.72756836 437.38133789 -95.72756836 437.38133789 -96.39038086 438.73852539 C-97.92476134 441.75045745 -99.61050911 444.4718109 -101.45288086 447.30102539 C-104.23863715 451.61690358 -106.60620769 455.97443756 -108.83959961 460.59399414 C-110.54081402 463.96958993 -112.48905695 467.16780548 -114.46069336 470.39086914 C-116.88959045 474.38622885 -119.21983602 478.43814162 -121.56225586 482.48461914 C-122.67820389 484.37425278 -123.86056284 486.22504836 -125.07788086 488.05102539 C-125.38072337 490.08136498 -125.38072337 490.08136498 -125.33959389 492.3401289 C-125.34705938 493.22043433 -125.35452487 494.10073977 -125.36221659 495.00772113 C-125.36028186 495.97561062 -125.35834712 496.94350012 -125.35635376 497.9407196 C-125.36504236 499.48202198 -125.36504236 499.48202198 -125.37390649 501.05446178 C-125.39097594 504.51387827 -125.39378898 507.97316192 -125.39672852 511.43261719 C-125.40602189 513.90593801 -125.41618967 516.37925567 -125.4271698 518.85256958 C-125.44887132 524.18584526 -125.46446312 529.51908571 -125.4745369 534.8523922 C-125.48911244 542.56348121 -125.51464605 550.27450317 -125.54286818 557.98555288 C-125.58835667 570.49572195 -125.62496296 583.00590065 -125.65600586 595.51611328 C-125.68618299 607.66977636 -125.72055218 619.82341572 -125.76049805 631.97705078 C-125.76297956 632.73364005 -125.76546106 633.49022931 -125.76801777 634.26974553 C-125.7874571 640.18662913 -125.80713985 646.10351191 -125.82689953 652.02039444 C-125.92371788 681.03057597 -125.99930153 710.04077765 -126.07788086 739.05102539 C-174.91788086 739.05102539 -223.75788086 739.05102539 -274.07788086 739.05102539 C-274.40053165 666.62936625 -274.40053165 666.62936625 -274.46850586 636.34204102 C-274.48416756 629.41015472 -274.50033105 622.47826987 -274.51733398 615.54638672 C-274.51944397 614.67765287 -274.52155396 613.80891902 -274.52372789 612.9138599 C-274.55847127 598.91008092 -274.62151314 584.90656618 -274.69510323 570.9029436 C-274.77005868 556.51895981 -274.81438125 542.13511383 -274.83058882 527.75094277 C-274.84153639 518.88330264 -274.87604328 510.01640923 -274.94121259 501.1489991 C-274.9836778 495.05862972 -274.996242 488.9686433 -274.98589188 482.87813681 C-274.9807947 479.37003068 -274.98830347 475.86322415 -275.03152466 472.3553524 C-275.18789429 457.47167627 -275.29385216 445.29337436 -266.07788086 433.05102539 C-265.41788086 433.05102539 -264.75788086 433.05102539 -264.07788086 433.05102539 C-263.8290918 432.20797852 -263.58030273 431.36493164 -263.32397461 430.49633789 C-261.96005313 426.72524465 -260.1594479 423.37140584 -258.14038086 419.92602539 C-257.79297852 419.31887695 -257.44557617 418.71172852 -257.08764648 418.08618164 C-255.25326594 414.91487968 -253.27681636 411.97431612 -251.07788086 409.05102539 C-250.39029492 407.41391601 -249.70401883 405.77621065 -249.03100586 404.13305664 C-247.10326245 399.92204337 -244.79014637 395.80588878 -242.07788086 392.05102539 C-241.41788086 392.05102539 -240.75788086 392.05102539 -240.07788086 392.05102539 C-239.99924805 391.19895508 -239.92061523 390.34688477 -239.83959961 389.46899414 C-238.95032308 385.47865075 -237.17584662 382.66830425 -234.89038086 379.36352539 C-234.0619646 378.12196287 -233.23646065 376.87845242 -232.41381836 375.63305664 C-232.01130859 375.02413574 -231.60879883 374.41521484 -231.1940918 373.7878418 C-229.14188356 370.59462014 -227.38785643 367.25057785 -225.60522461 363.90258789 C-221.62573207 356.47284479 -217.53840462 349.06579573 -212.76538086 342.11352539 C-211.04272762 339.60324193 -209.84748591 337.51009812 -208.64038086 334.67602539 C-206.80015713 330.40670634 -204.37489135 326.76837794 -201.83959961 322.88305664 C-200.22126118 320.28151482 -198.84128363 317.68510463 -197.51538086 314.92602539 C-195.53345586 310.81320717 -193.20053178 307.15482174 -190.61694336 303.39868164 C-187.80986379 299.11681661 -185.48105379 294.5676737 -183.07788086 290.05102539 C-180.24580422 284.79014516 -177.24352573 279.68211409 -174.07788086 274.61352539 C-171.19147642 269.97041413 -168.65477538 265.30161131 -166.28881836 260.37915039 C-164.62553815 257.18136005 -162.5913779 254.29507212 -160.54663086 251.33227539 C-159.02614378 248.9706678 -157.79586961 246.58069433 -156.57788086 244.05102539 C-154.57496644 239.89801754 -152.23485819 236.20037684 -149.62084961 232.41040039 C-147.33234239 228.91101213 -145.41511816 225.23037041 -143.44897461 221.54321289 C-142.07788086 219.05102539 -142.07788086 219.05102539 -140.01538086 215.98852539 C-138.30827347 213.40033032 -136.98619706 210.89710797 -135.64038086 208.11352539 C-134.14729405 205.04972953 -132.62959217 202.27163317 -130.57788086 199.55102539 C-128.07079932 196.20566271 -126.33539984 192.66418955 -124.51538086 188.91040039 C-119.88094094 179.69189491 -114.40505422 170.91407863 -108.96069336 162.16040039 C-106.63099394 158.31301297 -104.50280739 154.37582041 -102.38256836 150.41040039 C-100.77812288 147.50894808 -98.91625622 144.80858842 -97.07788086 142.05102539 C-96.4588304 140.82928704 -95.85587153 139.59932021 -95.26538086 138.36352539 C-93.6001773 134.92122713 -91.65875815 131.75885969 -89.57788086 128.55102539 C-87.20530019 124.88430982 -85.10799881 121.25611175 -83.22241211 117.32446289 C-79.25222837 109.43829587 -74.60963004 101.85714476 -69.95288086 94.36352539 C-65.65232232 87.43861026 -61.68974989 80.35915291 -58.07788086 73.05102539 C-57.41788086 73.05102539 -56.75788086 73.05102539 -56.07788086 73.05102539 C-55.93092773 72.50575195 -55.78397461 71.96047852 -55.63256836 71.39868164 C-54.05752676 66.10328315 -51.92163175 62.0614691 -48.74975586 57.56274414 C-46.12851184 53.62475372 -44.0109904 49.43215001 -41.80053711 45.25415039 C-38.94050164 39.93617061 -35.77208369 34.81429738 -32.61694336 29.66821289 C-29.16578065 23.98931552 -25.97644075 18.20799554 -22.88647461 12.32446289 C-21.9912207 10.70411133 -21.9912207 10.70411133 -21.07788086 9.05102539 C-20.84518714 8.38022729 -20.61249342 7.70942919 -20.37274837 7.01830387 C-16.65733106 -1.6472704 -8.08804938 -0.07972156 0 0 Z " fill="#FFB400" transform="translate(281.077880859375,-1.051025390625)"/>
<path d="M0 0 C59.73 0 119.46 0 181 0 C179.41831569 4.74505292 177.69578722 8.58287361 175.1875 12.8125 C174.46304575 14.05439834 173.73908642 15.29658553 173.015625 16.5390625 C172.49258789 17.43286621 172.49258789 17.43286621 171.95898438 18.34472656 C170.7461241 20.43820739 169.58954632 22.56005447 168.4375 24.6875 C166.59604035 28.03560845 164.58111074 31.23303701 162.5 34.4375 C159.8128446 38.60981441 157.52744929 42.81953283 155.3671875 47.28125 C150.75597012 56.45098513 145.29849404 65.1830586 139.8828125 73.890625 C137.55311308 77.73801242 135.42492653 81.67520498 133.3046875 85.640625 C131.70024202 88.54207731 129.83837536 91.24243697 128 94 C127.38094954 95.22173835 126.77799067 96.45170518 126.1875 97.6875 C124.52229645 101.12979826 122.5808773 104.2921657 120.5 107.5 C118.12741933 111.16671557 116.03011795 114.79491364 114.14453125 118.7265625 C109.60556666 127.74252629 104.20246294 136.33490795 98.87890625 144.8984375 C96.57701635 148.6982308 94.46988256 152.58348043 92.375 156.5 C90.72609625 159.49800681 88.91603634 162.36816554 87.07421875 165.25 C85.87735253 167.13721932 85.87735253 167.13721932 84.625 169.8125 C83.11304175 172.77826426 81.4391027 175.46238098 79.625 178.25 C76.81152586 182.60615639 74.42680087 187.01218457 72.171875 191.67578125 C70.74210307 194.51149558 69.09283006 197.1461237 67.37890625 199.81640625 C63.32189775 206.24096079 59.5872017 212.86639016 56 219.5625 C53.94135622 223.38255023 51.73321435 227.04481145 49.375 230.6875 C47.04569019 234.29057182 44.99712113 237.86371551 43.14453125 241.7265625 C39.22905597 249.50405947 34.66027835 256.98735216 30.0625 264.375 C24.93874215 272.62546047 20.21553362 281.10339474 15.56640625 289.62890625 C12.78870192 294.71984631 9.74374124 299.57933701 6.55078125 304.421875 C5.06426733 306.89315759 3.9872903 309.29589453 3 312 C2.01 312 1.02 312 0 312 C0 209.04 0 106.08 0 0 Z " fill="#FFB400" transform="translate(7,1)"/>
<path d="M0 0 C8.25 0 16.5 0 25 0 C26.41124078 6.92180001 27.80317621 13.82871293 29.00775146 20.78915405 C30.66328256 30.34098925 32.56557563 39.82684155 34.5625 49.3125 C36.5683825 58.84655411 38.5038481 68.36902682 40 78 C40.96683092 73.29143294 41.9267483 68.58152235 42.88085938 63.87036133 C43.20490627 62.2749427 43.5306923 60.6798761 43.85839844 59.08520508 C45.73441405 49.9496996 47.33255656 40.88918416 48.48583984 31.63256836 C49.37167002 25.37413188 50.75172487 19.22909671 52.125 13.0625 C52.40214844 11.79470703 52.67929687 10.52691406 52.96484375 9.22070312 C53.63780983 6.14594429 54.31811032 3.07279217 55 0 C62.92 0 70.84 0 79 0 C79 39.27 79 78.54 79 119 C73.06 119 67.12 119 61 119 C61 96.56 61 74.12 61 51 C59.85366365 56.73168177 58.8072482 62.0005362 58.1640625 67.72265625 C56.83200849 78.07800762 54.56166009 88.2350669 52.375 98.4375 C51.95000664 100.44064618 51.52552395 102.44390079 51.1015625 104.44726562 C50.07358038 109.29944474 49.03873719 114.15011243 48 119 C42.72 119 37.44 119 32 119 C29.94169728 111.79594048 28.23933695 104.84567547 27.1953125 97.43359375 C25.80417823 88.27378755 23.81423246 79.2441615 21.875 70.1875 C19.956875 61.1846875 19.956875 61.1846875 18 52 C18 74.11 18 96.22 18 119 C12.06 119 6.12 119 0 119 C0 79.73 0 40.46 0 0 Z " fill="#FFB400" transform="translate(641,771)"/>
<path d="M0 0 C36 0 36 0 46 5 C53.07684037 16.04677521 52.85832082 32.31609323 50.17578125 44.8515625 C48.80749292 48.62580021 47.2267259 51.65991115 45 55 C45.39832031 55.43828125 45.79664063 55.8765625 46.20703125 56.328125 C55.4458865 67.38777653 54.92583459 81.53292565 53.71875 95.1796875 C52.67784716 102.24581642 50.62083543 109.92370427 45 114.69921875 C30.84562687 123.77987357 20.35007515 119 0 119 C0 79.73 0 40.46 0 0 Z M20 16 C20 26.56 20 37.12 20 48 C27.29710784 47.72855384 27.29710784 47.72855384 29.9375 45.625 C32.74171523 41.33620023 32.25706805 36.54735727 32.3125 31.625 C32.34150391 30.77421875 32.37050781 29.9234375 32.40039062 29.046875 C32.44046425 25.08883387 32.2726363 22.5452726 30.48046875 18.9609375 C27.46882218 16.23204401 27.46882218 16.23204401 20 16 Z M20 63 C20 76.2 20 89.4 20 103 C24.95 102.505 24.95 102.505 30 102 C34.75641291 95.65811613 34.21162405 90.33856506 34.25 82.625 C34.270625 81.59632813 34.29125 80.56765625 34.3125 79.5078125 C34.34114472 73.9507368 34.27128122 69.73825865 31 65 C27.03961492 62.64517644 24.88982537 63 20 63 Z " fill="#FFB400" transform="translate(827,771)"/>
<path d="M0 0 C41.68867925 0 41.68867925 0 46.828125 4.65625 C53.16024702 12.8671335 53.15089162 21.6237981 53.25 31.625 C53.25950684 32.41237549 53.26901367 33.19975098 53.27880859 34.01098633 C53.22735305 43.14625115 51.77853709 49.85286203 46 57 C46.78375 57.9075 47.5675 58.815 48.375 59.75 C55.55840903 70.04083878 53.435353 86.22124421 53.625 98.25 C53.66325739 100.26694252 53.70231338 102.28387005 53.7421875 104.30078125 C53.83881173 109.20043514 53.91904287 114.0999631 54 119 C47.4 119 40.8 119 34 119 C33.94465088 117.53135498 33.88930176 116.06270996 33.83227539 114.54956055 C33.62609347 109.10944307 33.41414557 103.669563 33.20043945 98.22973633 C33.10869135 95.87367749 33.01851474 93.51755691 32.92993164 91.16137695 C32.80245796 87.77798343 32.66936572 84.39485094 32.53515625 81.01171875 C32.47727684 79.42722176 32.47727684 79.42722176 32.41822815 77.81071472 C32.37826218 76.82992447 32.3382962 75.84913422 32.29711914 74.83862305 C32.26380997 73.97480515 32.23050079 73.11098724 32.19618225 72.22099304 C32.07113849 69.82753501 32.07113849 69.82753501 31 67 C27.37 66.01 23.74 65.02 20 64 C20 82.15 20 100.3 20 119 C13.4 119 6.8 119 0 119 C0 79.73 0 40.46 0 0 Z M20 16 C20 26.89 20 37.78 20 49 C28.63559456 48.98910049 28.63559456 48.98910049 32 45 C33.47969145 40.56092566 33.26558625 36.2132164 33.3125 31.5625 C33.35600586 30.13067383 33.35600586 30.13067383 33.40039062 28.66992188 C33.46695865 23.30319138 33.46695865 23.30319138 31.54296875 18.40234375 C28.15944405 16.32464211 28.15944405 16.32464211 20 16 Z " fill="#FFB400" transform="translate(252,771)"/>
<path d="M0 0 C36 0 36 0 44 4 C51.24788341 11.24788341 53.11531555 19.22980719 53.14526367 29.1418457 C53.14862228 29.84173615 53.1519809 30.54162659 53.15544128 31.26272583 C53.16490799 33.5670959 53.16689233 35.87139296 53.16796875 38.17578125 C53.17118463 39.78614837 53.17454895 41.3965152 53.17805481 43.00688171 C53.18403561 46.38016436 53.18589582 49.75342142 53.18530273 53.12670898 C53.18520125 57.43385932 53.19884434 61.74084431 53.21607494 66.04795551 C53.22723398 69.37410728 53.22922073 72.7002196 53.22869301 76.02638817 C53.22986759 77.6134924 53.23425987 79.20059782 53.24202538 80.78768349 C53.25190317 83.0152278 53.24891677 85.24241983 53.24291992 87.4699707 C53.24434494 88.73396194 53.24576996 89.99795319 53.24723816 91.30024719 C52.73998585 98.89093688 50.7375209 107.75796526 45.58203125 113.609375 C32.9329364 124.66513914 16.49708302 119 0 119 C0 79.73 0 40.46 0 0 Z M20 16 C20 44.71 20 73.42 20 103 C29.31325713 103.13846006 29.31325713 103.13846006 32.10073853 99.88684082 C33.188204 96.39582088 33.38130534 93.47233018 33.38818359 89.81054688 C33.39344055 89.10583755 33.39869751 88.40112823 33.40411377 87.67506409 C33.41726902 85.35606425 33.40859206 83.03775628 33.3984375 80.71875 C33.40045953 79.10119495 33.40337205 77.4836408 33.40713501 75.86608887 C33.41155228 72.4801361 33.40514667 69.09442116 33.39111328 65.70849609 C33.37402159 61.37402159 33.38386599 57.0401044 33.40183067 52.70565033 C33.41268473 49.36671774 33.40921476 46.02791671 33.4014473 42.6889801 C33.39944977 41.09102817 33.40188884 39.4930642 33.40888596 37.89512634 C33.41652737 35.65958128 33.40485971 33.4249317 33.38818359 31.18945312 C33.38579681 29.91880005 33.38341003 28.64814697 33.38095093 27.33898926 C32.8587822 22.76224287 31.2116512 20.2116512 28 17 C25.36 16.67 22.72 16.34 20 16 Z " fill="#FFB400" transform="translate(466,771)"/>
<path d="M0 0 C6.6 0 13.2 0 20 0 C20 16.17 20 32.34 20 49 C24.62 49 29.24 49 34 49 C34 32.83 34 16.66 34 0 C40.6 0 47.2 0 54 0 C54 39.27 54 78.54 54 119 C47.4 119 40.8 119 34 119 C34 100.85 34 82.7 34 64 C29.38 64 24.76 64 20 64 C20 82.15 20 100.3 20 119 C13.4 119 6.8 119 0 119 C0 79.73 0 40.46 0 0 Z " fill="#FFB400" transform="translate(89,771)"/>
<path d="M0 0 C6.6 0 13.2 0 20 0 C20.33 14.52 20.66 29.04 21 44 C22.32 39.71 23.64 35.42 25 31 C26.18200064 27.24810121 27.36781206 23.49783002 28.5625 19.75 C28.85318359 18.83476563 29.14386719 17.91953125 29.44335938 16.9765625 C31.25041423 11.30071236 33.11589697 5.6523091 35 0 C41.93 0 48.86 0 56 0 C53.29306769 12.12234903 49.40158668 23.5062126 45.125 35.16015625 C42.84575142 41.37944736 40.72304477 47.60011944 39 54 C38.67 55.19625 38.34 56.3925 38 57.625 C38 61.84430438 39.20566273 64.98618568 40.796875 68.86328125 C41.79787836 71.47304 42.61647912 74.02710313 43.39453125 76.70703125 C44.96629637 82.04595603 46.91120962 87.19462362 48.9375 92.375 C57 113.29726133 57 113.29726133 57 119 C50.07 119 43.14 119 36 119 C33.87477004 113.30741975 31.85774678 107.63685894 30.125 101.8125 C28.35368205 95.91986857 26.25727518 90.1954099 24.01806641 84.46801758 C22.65059698 80.92981308 21.75112561 77.75562804 21 74 C20.67 88.85 20.34 103.7 20 119 C13.4 119 6.8 119 0 119 C0 79.73 0 40.46 0 0 Z " fill="#FFB400" transform="translate(9,771)"/>
<path d="M0 0 C1.03318359 -0.02900391 2.06636719 -0.05800781 3.13085938 -0.08789062 C10.38817257 -0.14840703 14.12100977 0.97463094 19.515625 6.0234375 C28.33000105 16.33916332 26.84348322 30.11920334 26.85546875 43.046875 C26.86046135 44.96212982 26.86046135 44.96212982 26.86555481 46.91607666 C26.87058806 49.60196454 26.87340048 52.28775099 26.87280273 54.97363281 C26.87272155 57.69245058 26.87966105 60.4110996 26.89331055 63.12988281 C27.10101454 105.23880076 27.10101454 105.23880076 19.125 114.1875 C16.6875 116.3125 16.6875 116.3125 14.6875 116.3125 C14.6875 116.9725 14.6875 117.6325 14.6875 118.3125 C9.57066222 120.3707152 5.11236225 120.64737979 -0.3125 120.625 C-1.09367188 120.64111328 -1.87484375 120.65722656 -2.6796875 120.67382812 C-9.94075017 120.67994013 -15.29500146 118.16062621 -20.59191895 113.20089722 C-28.23198182 104.81566396 -26.89812777 92.78526484 -26.84375 82.2421875 C-26.84644923 80.39234209 -26.85033524 78.54249806 -26.85534668 76.69265747 C-26.8612185 72.83126202 -26.85275197 68.97023865 -26.83398438 65.10888672 C-26.81116404 60.17500737 -26.82435205 55.24199708 -26.84827423 50.30814934 C-26.86276773 46.49384071 -26.85811052 42.67973626 -26.84776306 38.8654213 C-26.84510725 37.04666158 -26.84832495 35.22788294 -26.85768127 33.40914536 C-26.86790949 30.8632508 -26.85226118 28.31874133 -26.83007812 25.77294922 C-26.83817505 25.03195984 -26.84627197 24.29097046 -26.85461426 23.52752686 C-26.74456237 16.66510381 -24.35407036 11.55324796 -19.75 6.5 C-18.5434375 5.4171875 -18.5434375 5.4171875 -17.3125 4.3125 C-16.77625 3.735 -16.24 3.1575 -15.6875 2.5625 C-11.69457896 -1.06742822 -5.03088052 0.04655349 0 0 Z M-5.125 18.4375 C-7.20202279 23.4660815 -7.43925899 28.40719145 -7.45776367 33.80175781 C-7.46414352 35.07037659 -7.47052338 36.33899536 -7.47709656 37.64605713 C-7.47862586 39.01924603 -7.47973949 40.39243544 -7.48046875 41.765625 C-7.48368711 43.19040967 -7.48705161 44.61519403 -7.49055481 46.03997803 C-7.49652829 49.02226527 -7.49839662 52.00452361 -7.49780273 54.98681641 C-7.49770137 58.7836939 -7.51133455 62.5803833 -7.52857494 66.37721634 C-7.5397676 69.31999541 -7.5417197 72.2627301 -7.54119301 75.20552826 C-7.54236294 76.60397742 -7.54672836 78.00242811 -7.55452538 79.40085602 C-7.5938443 87.18293575 -7.56524892 94.79685844 -5.3125 102.3125 C-4.32982141 103.51811184 -4.32982141 103.51811184 -2.46484375 103.41015625 C0.61132812 103.36132812 0.61132812 103.36132812 3.6875 103.3125 C6.73059717 98.03779824 6.81332653 92.4850365 6.83276367 86.51611328 C6.83612228 85.86484467 6.8394809 85.21357605 6.84294128 84.54257202 C6.85238054 82.4059657 6.85439079 80.26943833 6.85546875 78.1328125 C6.85868606 76.63597584 6.86205049 75.13913948 6.86555481 73.64230347 C6.8715284 70.51038891 6.87339652 67.37850188 6.87280273 64.24658203 C6.87270118 60.24997307 6.88635447 56.25354202 6.90357494 52.25697517 C6.91473859 49.16672976 6.91672061 46.07652678 6.91619301 42.98626328 C6.91736651 41.51359316 6.92175257 40.04092171 6.92952538 38.56827164 C7.06915401 27.76757988 7.06915401 27.76757988 4.6875 17.3125 C0.93599515 15.43674758 -2.31060781 15.13786778 -5.125 18.4375 Z " fill="#FFB400" transform="translate(571.3125,770.6875)"/>
<path d="M0 0 C1.07185547 -0.01998047 2.14371094 -0.03996094 3.24804688 -0.06054688 C9.33272945 -0.05677927 13.37319905 0.14458334 18.0625 4.4375 C27.62866365 15.49582165 27.21789123 29.13680944 27.23046875 42.984375 C27.23546135 44.91666962 27.23546135 44.91666962 27.24055481 46.88800049 C27.24650848 49.60437864 27.24839865 52.32072517 27.24780273 55.03710938 C27.24770142 58.48049706 27.26133919 61.92367715 27.27857494 65.36701584 C27.29251468 68.69780437 27.29178746 72.02855781 27.29296875 75.359375 C27.30015427 76.57647156 27.30733978 77.79356812 27.31474304 79.04754639 C27.28110476 91.85299586 26.02554144 103.16576427 19.375 114.25 C12.79773157 120.47174041 5.45404162 121.08261279 -3.2565918 121.05493164 C-9.9171074 120.78706383 -14.95544204 119.02984095 -19.9375 114.4375 C-27.95589362 104.77084844 -27.54882784 92.48143669 -27.50390625 80.625 C-27.50915526 78.92211572 -27.51543636 77.21923434 -27.52268982 75.51635742 C-27.53303547 71.96616832 -27.52861652 68.41638152 -27.51391602 64.86621094 C-27.49672295 60.34738372 -27.52026013 55.8298276 -27.55540562 51.31114197 C-27.57750607 47.80033157 -27.57590804 44.28981957 -27.5676403 40.77896118 C-27.56682796 39.1142131 -27.57355215 37.44944149 -27.58841133 35.78475952 C-27.67409172 24.45347247 -26.93364521 14.55777789 -19.4375 5.375 C-12.81332398 0.24126358 -8.2099095 -0.05410965 0 0 Z M-5.1875 18.5625 C-8.12797647 23.39328277 -8.06377818 28.39286962 -8.08276367 33.94262695 C-8.08914352 35.21447342 -8.09552338 36.48631989 -8.10209656 37.79670715 C-8.10362569 39.1730648 -8.10473941 40.54942295 -8.10546875 41.92578125 C-8.10868677 43.35296155 -8.11205125 44.78014154 -8.11555481 46.20732117 C-8.12152768 49.19380456 -8.12339664 52.1802591 -8.12280273 55.16674805 C-8.12270128 58.97269178 -8.13634439 62.77844827 -8.15357494 66.58434772 C-8.16475506 69.53137544 -8.1667201 72.47835876 -8.16619301 75.4254055 C-8.16736443 76.82747225 -8.17173852 78.22954046 -8.17952538 79.63158607 C-8.21753168 87.1820137 -8.12117805 94.17313423 -5.9375 101.4375 C-3.99860754 103.79389408 -3.99860754 103.79389408 -0.5 103.8125 C3.02258834 103.78522316 3.02258834 103.78522316 4.9375 101.8125 C7.22148821 96.99074712 7.19073849 91.86455518 7.20776367 86.609375 C7.21112228 85.9548938 7.2144809 85.3004126 7.21794128 84.62609863 C7.22737826 82.47987937 7.22939045 80.33373867 7.23046875 78.1875 C7.23368543 76.68587208 7.23704981 75.18424446 7.24055481 73.68261719 C7.24652724 70.54231032 7.24839656 67.4020309 7.24780273 64.26171875 C7.247701 60.24697722 7.26137299 56.2324121 7.27857494 52.2177124 C7.28971497 49.1189697 7.29172136 46.02026946 7.29119301 42.92150879 C7.29236934 41.4416035 7.29677157 39.96169697 7.30452538 38.48181152 C7.31436978 36.40962466 7.31143039 34.33781855 7.30541992 32.265625 C7.30755745 30.5007373 7.30755745 30.5007373 7.30973816 28.70019531 C6.99589322 24.55851903 6.15073344 20.9921192 3.75 17.5625 C0.17897521 15.1818168 -2.15203399 15.69567099 -5.1875 18.5625 Z " fill="#FFB400" transform="translate(773.9375,770.5625)"/>
<path d="M0 0 C1.5631897 0.00785522 1.5631897 0.00785522 3.15795898 0.01586914 C4.28266602 0.0190918 5.40737305 0.02231445 6.56616211 0.02563477 C7.75016602 0.03401367 8.93416992 0.04239258 10.15405273 0.05102539 C11.34192383 0.05553711 12.52979492 0.06004883 13.75366211 0.06469727 C16.69967499 0.07652864 19.64558954 0.09301252 22.59155273 0.11352539 C28.59724926 35.01125544 28.59724926 35.01125544 30.33251953 50.43603516 C31.12273571 57.10111554 32.16327159 63.70588074 33.29077148 70.32055664 C33.44684372 71.23814758 33.60291595 72.15573853 33.76371765 73.10113525 C34.55022188 77.70580089 35.35030747 82.30766403 36.16748047 86.90698242 C38.05031612 97.68688345 39.15320916 108.17270675 39.59155273 119.11352539 C33.65155273 119.11352539 27.71155273 119.11352539 21.59155273 119.11352539 C19.83572432 112.09021174 19.08985251 105.33887208 18.59155273 98.11352539 C12.98155273 98.11352539 7.37155273 98.11352539 1.59155273 98.11352539 C1.4587793 99.46188477 1.32600586 100.81024414 1.18920898 102.19946289 C1.01102924 103.96250452 0.83263259 105.72552424 0.65405273 107.48852539 C0.56704102 108.37797852 0.4800293 109.26743164 0.39038086 110.18383789 C0.30336914 111.03461914 0.21635742 111.88540039 0.12670898 112.76196289 C0.04815674 113.54748535 -0.03039551 114.33300781 -0.11132812 115.14233398 C-0.40844727 117.11352539 -0.40844727 117.11352539 -1.40844727 119.11352539 C-7.67844727 119.11352539 -13.94844727 119.11352539 -20.40844727 119.11352539 C-18.7664851 106.58734434 -17.00696373 94.09715889 -14.85473633 81.64697266 C-13.81992141 75.44595448 -13.11694359 69.26405054 -12.54125977 63.00805664 C-11.466195 51.55596634 -9.70584758 40.22564597 -7.89453125 28.87011719 C-7.33635466 25.3658016 -6.78888111 21.85992131 -6.24243164 18.35375977 C-5.89083696 16.12384439 -5.53864689 13.89402279 -5.18579102 11.66430664 C-5.02223618 10.61664627 -4.85868134 9.5689859 -4.69017029 8.48957825 C-4.53653519 7.53314926 -4.38290009 6.57672028 -4.22460938 5.59130859 C-4.0238102 4.32611137 -4.0238102 4.32611137 -3.81895447 3.03535461 C-3.2107582 0.18802489 -2.9624935 0.1396411 0 0 Z M8.59155273 34.11352539 C8.51114746 34.92805176 8.43074219 35.74257813 8.34790039 36.58178711 C6.84614371 51.76859613 5.33774853 66.95243717 3.59155273 82.11352539 C7.88155273 82.11352539 12.17155273 82.11352539 16.59155273 82.11352539 C15.9228437 71.57559338 14.5690608 61.24028675 13.02905273 50.80102539 C12.79232785 49.17412995 12.55599721 47.54717709 12.32006836 45.92016602 C11.74842744 41.98394417 11.17149887 38.04853179 10.59155273 34.11352539 C9.93155273 34.11352539 9.27155273 34.11352539 8.59155273 34.11352539 Z " fill="#FFB400" transform="translate(187.408447265625,770.886474609375)"/>
<path d="M0 0 C13.53 0 27.06 0 41 0 C41 5.28 41 10.56 41 16 C34.07 16 27.14 16 20 16 C20 27.55 20 39.1 20 51 C26.6 51 33.2 51 40 51 C40 55.95 40 60.9 40 66 C33.4 66 26.8 66 20 66 C20 78.21 20 90.42 20 103 C27.26 103 34.52 103 42 103 C42 108.28 42 113.56 42 119 C28.14 119 14.28 119 0 119 C0 79.73 0 40.46 0 0 Z " fill="#FFB400" transform="translate(1019,771)"/>
<path d="M0 0 C13.53 0 27.06 0 41 0 C41 5.28 41 10.56 41 16 C34.07 16 27.14 16 20 16 C20 27.55 20 39.1 20 51 C26.6 51 33.2 51 40 51 C40 55.95 40 60.9 40 66 C33.4 66 26.8 66 20 66 C20 78.21 20 90.42 20 103 C27.26 103 34.52 103 42 103 C42 108.28 42 113.56 42 119 C28.14 119 14.28 119 0 119 C0 79.73 0 40.46 0 0 Z " fill="#FFB400" transform="translate(399,771)"/>
<path d="M0 0 C13.53 0 27.06 0 41 0 C41 5.28 41 10.56 41 16 C34.07 16 27.14 16 20 16 C20 27.55 20 39.1 20 51 C26.6 51 33.2 51 40 51 C40 55.95 40 60.9 40 66 C33.4 66 26.8 66 20 66 C20 78.21 20 90.42 20 103 C27.26 103 34.52 103 42 103 C42 108.28 42 113.56 42 119 C28.14 119 14.28 119 0 119 C0 79.73 0 40.46 0 0 Z " fill="#FFB400" transform="translate(331,771)"/>
<path d="M0 0 C6.6 0 13.2 0 20 0 C20 33.99 20 67.98 20 103 C27.59 103 35.18 103 43 103 C43 108.28 43 113.56 43 119 C28.81 119 14.62 119 0 119 C0 79.73 0 40.46 0 0 Z " fill="#FFB400" transform="translate(954,771)"/>
<path d="M0 0 C6.6 0 13.2 0 20 0 C20 39.27 20 78.54 20 119 C13.4 119 6.8 119 0 119 C0 79.73 0 40.46 0 0 Z " fill="#FFB400" transform="translate(906,771)"/>
<path d="M0 0 C1.2065625 0.0309375 1.2065625 0.0309375 2.4375 0.0625 C6.39964199 9.2754418 6.39964199 9.2754418 7.3125 14.125 C8.78595482 21.65599129 11.83530111 28.87816828 14.4375 36.0625 C14.4375 24.1825 14.4375 12.3025 14.4375 0.0625 C16.4175 0.0625 18.3975 0.0625 20.4375 0.0625 C20.4375 19.8625 20.4375 39.6625 20.4375 60.0625 C18.4575 60.0625 16.4775 60.0625 14.4375 60.0625 C13.32680506 56.64792204 12.22521382 53.23046809 11.125 49.8125 C10.81626953 48.86375 10.50753906 47.915 10.18945312 46.9375 C9.88330078 45.98359375 9.57714844 45.0296875 9.26171875 44.046875 C8.98416748 43.18803711 8.70661621 42.32919922 8.4206543 41.44433594 C6.94211891 36.35849729 5.72206497 31.20075987 4.4375 26.0625 C4.1075 37.2825 3.7775 48.5025 3.4375 60.0625 C1.1275 60.0625 -1.1825 60.0625 -3.5625 60.0625 C-3.58562821 52.38713373 -3.60341753 44.71177104 -3.61431217 37.03637791 C-3.61953995 33.47272578 -3.62663569 29.90909743 -3.63793945 26.34545898 C-3.65084176 22.25243903 -3.65572906 18.1594442 -3.66015625 14.06640625 C-3.66531754 12.78101456 -3.67047882 11.49562286 -3.67579651 10.17127991 C-3.67587204 8.99013107 -3.67594757 7.80898224 -3.67602539 6.59204102 C-3.678246 5.54613297 -3.68046661 4.50022491 -3.68275452 3.42262268 C-3.51414419 0.11346584 -3.32969952 0.08121218 0 0 Z " fill="#FFB400" transform="translate(332.5625,925.9375)"/>
<path d="M0 0 C3.91835603 2.54693142 4.77668588 5.60861598 6 10 C6.1953125 13.4296875 6.1953125 13.4296875 6.125 16.875 C6.10695313 18.02742187 6.08890625 19.17984375 6.0703125 20.3671875 C6.04710937 21.23601563 6.02390625 22.10484375 6 23 C3.36 23 0.72 23 -2 23 C-2.33 18.05 -2.66 13.1 -3 8 C-4.32 8 -5.64 8 -7 8 C-9.11688492 11.43993799 -9.40641083 13.99464991 -9 18 C-7.24438553 20.87487327 -7.24438553 20.87487327 -4.8125 23.5 C-3.99265625 24.45261719 -3.1728125 25.40523437 -2.328125 26.38671875 C-1.00678749 27.86989793 0.31546354 29.35226762 1.640625 30.83203125 C6.88911441 36.8235297 7.40953909 42.34241353 7.24609375 50.08203125 C6.90031797 54.18194403 6.25836455 56.53717436 4 60 C-0.34480675 62.54330151 -4.91355722 62.29363225 -9.7890625 61.6640625 C-12 61 -12 61 -14.0625 58.375 C-16.14003263 50.89588253 -16.11391644 43.70834603 -16 36 C-13.69 36 -11.38 36 -9 36 C-8.92652344 37.68029297 -8.92652344 37.68029297 -8.8515625 39.39453125 C-8.77652144 40.86721203 -8.70097418 42.33986707 -8.625 43.8125 C-8.5940625 44.55048828 -8.563125 45.28847656 -8.53125 46.04882812 C-8.32653852 49.81893115 -8.13566173 51.79650741 -6 55 C-3.94074861 55.72382467 -3.94074861 55.72382467 -2 56 C-0.96489356 48.62954332 0.00341097 41.62102584 -4 35 C-5.92272733 33.09356697 -7.95195444 31.42584062 -10.05859375 29.7265625 C-14.09127837 26.14015083 -15.7298463 22.35685813 -16.33984375 17.03515625 C-16.51501178 11.3667187 -16.39140626 6.7730903 -13 2 C-8.76183953 -0.82544031 -4.97601515 -0.65366373 0 0 Z " fill="#FFB400" transform="translate(568,925)"/>
<path d="M0 0 C3.91835603 2.54693142 4.77668588 5.60861598 6 10 C6.1953125 13.4296875 6.1953125 13.4296875 6.125 16.875 C6.10695313 18.02742187 6.08890625 19.17984375 6.0703125 20.3671875 C6.04710937 21.23601563 6.02390625 22.10484375 6 23 C3.69 23 1.38 23 -1 23 C-1.07347656 21.64455078 -1.07347656 21.64455078 -1.1484375 20.26171875 C-1.22320313 19.08222656 -1.29796875 17.90273438 -1.375 16.6875 C-1.44460938 15.51574219 -1.51421875 14.34398437 -1.5859375 13.13671875 C-1.78613747 9.84300113 -1.78613747 9.84300113 -4 7 C-7.11785113 7.64644661 -7.11785113 7.64644661 -8 10 C-8.73728977 14.03833716 -8.93193711 17.55899897 -6.6484375 21.08984375 C-4.82197515 23.12148138 -2.92001344 25.05690023 -1 27 C5.96191288 35.31343547 7.93387124 42.0999716 7 53 C6.17164487 56.74701265 5.09781553 59.29861786 1.75 61.4375 C-2.83289609 62.37491056 -6.47386957 62.67828019 -10.8125 60.75 C-14.50864424 57.79308461 -15.26840197 54.85904032 -15.84765625 50.21484375 C-16.17307208 45.48379826 -16.07003426 40.73898495 -16 36 C-13.66705225 35.95758277 -11.33297433 35.95907063 -9 36 C-6.88074396 38.11925604 -7.58168983 42.6196093 -7.4375 45.5625 C-7.39431641 46.36880859 -7.35113281 47.17511719 -7.30664062 48.00585938 C-7.20024738 50.00368805 -7.09959112 52.0018207 -7 54 C-5.34385343 54.38218767 -3.67542976 54.71395102 -2 55 C0.48003007 52.51996993 -0.02881162 47.30373258 0 44 C-0.9129077 37.28889477 -5.12345927 33.65355203 -9.8359375 29.140625 C-14.52404363 24.50329258 -16.22334086 20.62585475 -16.4375 13.9375 C-16.2745672 9.28809607 -15.75820026 5.88191147 -13 2 C-8.76183953 -0.82544031 -4.97601515 -0.65366373 0 0 Z " fill="#FFB400" transform="translate(677,925)"/>
<path d="M0 0 C2.65563802 1.8968843 3.57242527 3.14485055 5 6 C5.07194869 8.88370333 5.09291708 11.74239664 5.0625 14.625 C5.05798828 15.42679688 5.05347656 16.22859375 5.04882812 17.0546875 C5.03703168 19.03649006 5.01909605 21.01825433 5 23 C2.69 23 0.38 23 -2 23 C-2.03738281 22.01257813 -2.07476562 21.02515625 -2.11328125 20.0078125 C-2.17902344 18.72648438 -2.24476563 17.44515625 -2.3125 16.125 C-2.37050781 14.84882812 -2.42851562 13.57265625 -2.48828125 12.2578125 C-2.65714844 11.18273437 -2.82601563 10.10765625 -3 9 C-3.99 8.34 -4.98 7.68 -6 7 C-7.808164 9.56156566 -8.92774182 11.682064 -9.625 14.75 C-8.39931366 21.12356897 -3.37851655 25.81162821 1.3125 30.0625 C6.5959415 35.83742443 6.3499801 42.66892999 6.1796875 50.15234375 C5.94156946 53.92599704 5.64082514 56.5691838 4 60 C-0.39362964 62.63617778 -4.80784216 62.02816791 -9.73046875 61.58203125 C-12.42931241 60.88990095 -13.3825862 60.25837035 -15 58 C-16.42809537 53.53618189 -16.11305402 48.82680367 -16.0625 44.1875 C-16.05573242 43.00510742 -16.05573242 43.00510742 -16.04882812 41.79882812 C-16.03711312 39.86585239 -16.01917998 37.93291607 -16 36 C-13.69 36 -11.38 36 -9 36 C-8.92652344 37.68029297 -8.92652344 37.68029297 -8.8515625 39.39453125 C-8.77652144 40.86721203 -8.70097418 42.33986707 -8.625 43.8125 C-8.5940625 44.55048828 -8.563125 45.28847656 -8.53125 46.04882812 C-8.32653852 49.81893115 -8.13566173 51.79650741 -6 55 C-4.02 54.505 -4.02 54.505 -2 54 C-0.86695167 47.33822184 -0.51030969 41.98232624 -4 36 C-6.29151077 33.37505218 -6.29151077 33.37505218 -9 31 C-10.10152636 29.80822811 -11.18441686 28.59901517 -12.25 27.375 C-12.75015625 26.80523438 -13.2503125 26.23546875 -13.765625 25.6484375 C-16.44511784 22.07012744 -16.16476278 18.42688151 -16.1875 14.125 C-16.20167969 12.91070313 -16.21585937 11.69640625 -16.23046875 10.4453125 C-16.00688497 7.10292442 -15.58203973 4.93281785 -14 2 C-9.56313179 -0.95791214 -5.20591533 -0.65561752 0 0 Z " fill="#FFB400" transform="translate(427,925)"/>
<path d="M0 0 C2.31 0 4.62 0 7 0 C7.01030746 0.61752136 7.02061493 1.23504272 7.03123474 1.87127686 C7.13936746 8.29515018 7.25396011 14.71888516 7.37231445 21.14257812 C7.41564155 23.54033515 7.45731822 25.9381226 7.49731445 28.3359375 C7.55507063 31.78134326 7.61875006 35.22659625 7.68359375 38.671875 C7.70030624 39.74491882 7.71701874 40.81796265 7.73423767 41.92352295 C7.75418289 42.92425842 7.77412811 43.9249939 7.79467773 44.95605469 C7.81022202 45.83541687 7.8257663 46.71477905 7.84178162 47.62078857 C7.99132687 49.86957771 8.37538172 51.83990498 9 54 C10.98 54 12.96 54 15 54 C15.33 36.18 15.66 18.36 16 0 C17.98 0 19.96 0 22 0 C22.07614689 7.58050086 22.1286408 15.16090284 22.16479492 22.74169922 C22.17986905 25.31986171 22.20033167 27.89799862 22.22631836 30.47607422 C22.26276086 34.18463461 22.27974052 37.89285554 22.29296875 41.6015625 C22.30845261 42.75177887 22.32393646 43.90199524 22.33988953 45.08706665 C22.34201237 55.21133781 22.34201237 55.21133781 19 60 C14.95711694 62.02144153 9.55849909 61.31878391 5.25 60.4375 C1.97316166 58.34396439 0.98133464 55.63148427 0 52 C-0.39561342 47.97530025 -0.34977986 43.98216372 -0.29296875 39.94140625 C-0.28872391 38.79711655 -0.28447906 37.65282684 -0.28010559 36.47386169 C-0.26337804 32.83649689 -0.22573565 29.19969598 -0.1875 25.5625 C-0.17244556 23.08920074 -0.15875848 20.61589275 -0.14648438 18.14257812 C-0.11349386 12.09486126 -0.06335313 6.04747093 0 0 Z " fill="#FFB400" transform="translate(619,926)"/>
<path d="M0 0 C1.98 0 3.96 0 6 0 C6.00808685 0.61752136 6.01617371 1.23504272 6.02450562 1.87127686 C6.11052587 8.29525438 6.21002857 14.71892243 6.31738281 21.14257812 C6.35567905 23.54031174 6.39053076 25.93810293 6.421875 28.3359375 C6.46751105 31.78145942 6.5255087 35.22658472 6.5859375 38.671875 C6.59748871 39.74491882 6.60903992 40.81796265 6.62094116 41.92352295 C6.64081085 42.92425842 6.66068054 43.9249939 6.68115234 44.95605469 C6.69447601 45.83541687 6.70779968 46.71477905 6.7215271 47.62078857 C7.01771889 50.15138633 7.72683054 51.81140921 9 54 C10.98 54 12.96 54 15 54 C15.33 36.18 15.66 18.36 16 0 C17.98 0 19.96 0 22 0 C22.07614689 7.58050086 22.1286408 15.16090284 22.16479492 22.74169922 C22.17986905 25.31986171 22.20033167 27.89799862 22.22631836 30.47607422 C22.26276086 34.18463461 22.27974052 37.89285554 22.29296875 41.6015625 C22.30845261 42.75177887 22.32393646 43.90199524 22.33988953 45.08706665 C22.3420099 55.19955569 22.3420099 55.19955569 19 60 C17.3125 60.875 17.3125 60.875 15 61 C13.700625 61.0825 12.40125 61.165 11.0625 61.25 C7.26444916 61.1792728 4.92730754 60.58291842 2 58 C-0.72069425 52.24682825 -0.25332897 46.25780593 -0.1953125 40.0390625 C-0.1924826 38.89335785 -0.18965271 37.7476532 -0.18673706 36.56723022 C-0.17557135 32.91971245 -0.15047299 29.27244315 -0.125 25.625 C-0.11496555 23.14713897 -0.10584051 20.66927408 -0.09765625 18.19140625 C-0.0756438 12.12751986 -0.04220194 6.06377769 0 0 Z " fill="#FFB400" transform="translate(704,926)"/>
<path d="M0 0 C2.31 0 4.62 0 7 0 C8.43471341 7.25706644 9.8576122 14.51637853 11.27246094 21.77734375 C11.75479104 24.24532008 12.23978737 26.71277693 12.72753906 29.1796875 C13.42961068 32.73302954 14.12195869 36.28815155 14.8125 39.84375 C15.14060669 41.48796936 15.14060669 41.48796936 15.4753418 43.16540527 C16.57678559 48.8895887 17.24595765 54.17080379 17 60 C14.69 60 12.38 60 10 60 C9.67 56.37 9.34 52.74 9 49 C4.05 49.495 4.05 49.495 -1 50 C-1.66 53.3 -2.32 56.6 -3 60 C-4.98 60 -6.96 60 -9 60 C-8.44108071 52.52298249 -7.43334084 45.24311128 -6.0625 37.875 C-4.65880117 30.11374145 -3.4903716 22.38810057 -2.65307617 14.54663086 C-2.1102328 9.57989069 -1.23166163 4.83867071 0 0 Z M3 19 C2.49387936 21.8740422 1.99493459 24.74902873 1.5 27.625 C1.28537109 28.83736328 1.28537109 28.83736328 1.06640625 30.07421875 C0.32123749 34.43877864 -0.17272306 38.55238129 0 43 C2.64 43 5.28 43 8 43 C7.68957083 40.12476286 7.37672481 37.24982273 7.0625 34.375 C6.97548828 33.56675781 6.88847656 32.75851562 6.79882812 31.92578125 C6.32290463 27.58958942 5.77162811 23.29609164 5 19 C4.34 19 3.68 19 3 19 Z " fill="#FFB400" transform="translate(754,926)"/>
<path d="M0 0 C2.31 0 4.62 0 7 0 C8.47117677 2.94235354 8.65984702 6.08574111 9.125 9.3125 C10.94922972 21.48106846 13.33642574 33.54796348 15.66259766 45.62817383 C15.81599106 46.42785583 15.96938446 47.22753784 16.12742615 48.05145264 C16.41968136 49.5738826 16.71360984 51.09599255 17.00941467 52.61773682 C18 57.77640658 18 57.77640658 18 60 C15.69 60 13.38 60 11 60 C9.48940272 55.9402698 9 53.45389333 9 49 C4.05 49.495 4.05 49.495 -1 50 C-1.66 53.3 -2.32 56.6 -3 60 C-4.98 60 -6.96 60 -9 60 C-8.44108071 52.52298249 -7.43334084 45.24311128 -6.0625 37.875 C-4.65880117 30.11374145 -3.4903716 22.38810057 -2.65307617 14.54663086 C-2.1102328 9.57989069 -1.23166163 4.83867071 0 0 Z M3 19 C2.49387936 21.8740422 1.99493459 24.74902873 1.5 27.625 C1.28537109 28.83736328 1.28537109 28.83736328 1.06640625 30.07421875 C0.32123749 34.43877864 -0.17272306 38.55238129 0 43 C2.64 43 5.28 43 8 43 C7.45423097 34.89963866 6.45852964 26.98651182 5 19 C4.34 19 3.68 19 3 19 Z " fill="#FFB400" transform="translate(517,926)"/>
<path d="M0 0 C5.61 0 11.22 0 17 0 C17 1.98 17 3.96 17 6 C13.7 6 10.4 6 7 6 C7 12.93 7 19.86 7 27 C10.3 27 13.6 27 17 27 C17 28.65 17 30.3 17 32 C13.7 32 10.4 32 7 32 C7 39.59 7 47.18 7 55 C10.3 55 13.6 55 17 55 C17 56.65 17 58.3 17 60 C11.39 60 5.78 60 0 60 C0 40.2 0 20.4 0 0 Z " fill="#FFB400" transform="translate(374,926)"/>
<path d="M0 0 C5.61 0 11.22 0 17 0 C17 1.98 17 3.96 17 6 C13.7 6 10.4 6 7 6 C7 12.6 7 19.2 7 26 C10.3 26 13.6 26 17 26 C17 27.65 17 29.3 17 31 C13.7 31 10.4 31 7 31 C7 40.57 7 50.14 7 60 C4.69 60 2.38 60 0 60 C0 40.2 0 20.4 0 0 Z " fill="#FFB400" transform="translate(264,926)"/>
<path d="M0 0 C5.94 0 11.88 0 18 0 C18 1.98 18 3.96 18 6 C16.35 6 14.7 6 13 6 C13 23.82 13 41.64 13 60 C10.69 60 8.38 60 6 60 C6 42.18 6 24.36 6 6 C4.02 6 2.04 6 0 6 C0 4.02 0 2.04 0 0 Z " fill="#FFB400" transform="translate(450,926)"/>
<path d="M0 0 C2.31 0 4.62 0 7 0 C7 18.15 7 36.3 7 55 C10.3 55 13.6 55 17 55 C17 56.65 17 58.3 17 60 C11.39 60 5.78 60 0 60 C0 40.2 0 20.4 0 0 Z " fill="#FFB400" transform="translate(791,926)"/>
<path d="M0 0 C2.31 0 4.62 0 7 0 C7 19.8 7 39.6 7 60 C4.69 60 2.38 60 0 60 C0 40.2 0 20.4 0 0 Z " fill="#FFB400" transform="translate(301,926)"/>
</svg>
