<svg xmlns="http://www.w3.org/2000/svg" viewBox="0 0 182.74 360.73"><defs><style>.cls-1{fill:#2681b0;}.cls-2,.cls-3,.cls-6{fill:#f3f5f5;}.cls-3{font-size:34.72px;font-family:Roboto-Black, Roboto;font-weight:800;letter-spacing:-0.03em;}.cls-4{letter-spacing:-0.02em;}.cls-5{letter-spacing:-0.03em;}.cls-6{font-size:17.38px;font-family:Roboto-Bold, Roboto;font-weight:700;letter-spacing:0em;}.cls-7{letter-spacing:-0.02em;}.cls-8{letter-spacing:-0.01em;}.cls-9{letter-spacing:0.01em;}.cls-10{letter-spacing:-0.01em;}</style></defs><g id="Layer_2" data-name="Layer 2"><g id="Brand_Manual" data-name="Brand Manual"><rect class="cls-1" x="40.51" width="103.52" height="35.11" rx="8.8"/><path class="cls-2" d="M182.74,50.74V284.46H167.43V63.3a6.59,6.59,0,0,0-6.59-6.59h-139A6.59,6.59,0,0,0,15.3,63.3V284.46H0V50.74a6.63,6.63,0,0,1,6.64-6.63H176.1A6.63,6.63,0,0,1,182.74,50.74Z"/><path class="cls-1" d="M30.61,80.13V284.46H88.22V79.91a4.29,4.29,0,0,0-4.29-4.29H35.12A4.51,4.51,0,0,0,30.61,80.13ZM60.78,193a13,13,0,1,1,11.59-11.6A13,13,0,0,1,60.78,193Z"/><path class="cls-1" d="M95.42,80.13V284.46H153V80.13a4.51,4.51,0,0,0-4.52-4.51H99.94A4.51,4.51,0,0,0,95.42,80.13Zm30,112.83A13,13,0,1,1,137,181.36,13,13,0,0,1,125.38,193Z"/><text class="cls-3" transform="translate(1.52 316.45)">LIFT <tspan class="cls-1" x="72.06" y="0">ON</tspan><tspan x="118.5" y="0"> </tspan><tspan class="cls-4" x="126.11" y="0">H</tspan><tspan class="cls-5" x="149.88" y="0">AI</tspan></text><text class="cls-6" transform="translate(0.9 336.56)">COMFO<tspan class="cls-7" x="59.93" y="0">R</tspan><tspan x="70.61" y="0">T &amp; SECUR</tspan><tspan class="cls-8" x="155.44" y="0">I</tspan><tspan class="cls-9" x="160.33" y="0">T</tspan><tspan x="170.47" y="0">Y</tspan><tspan x="22.64" y="19.46">IS OUR PRIOR</tspan><tspan class="cls-10" x="132.8" y="19.46">I</tspan><tspan class="cls-9" x="137.69" y="19.46">T</tspan><tspan x="147.83" y="19.46">Y</tspan></text></g></g></svg>