<svg xmlns="http://www.w3.org/2000/svg" viewBox="0 0 4522.35 1336.22"><defs><style>.cls-1{fill:#eee;}.cls-2{fill:#0094c6;}</style></defs><g id="Layer_2" data-name="Layer 2"><g id="Layer_1-2" data-name="Layer 1"><path class="cls-1" d="M644.21,683.12q0,30-10.69,51.67a113.66,113.66,0,0,1-28.06,36.53,157,157,0,0,1-38.2,24.17,238.78,238.78,0,0,1-41.67,14.3,314.69,314.69,0,0,1-38.19,7Q470,818.69,459.48,819l-10.83.28q2.49,46.39,6,82.5a637.31,637.31,0,0,0,11.25,72.51H305l5.55-70.56q5.57-70.28,6.53-164.45t-11-173.35q195-28,266.54,13.89T644.21,683.12ZM446.42,714.79c1.12,0,3.43.09,6.95.28a141.28,141.28,0,0,0,17.78,0A112.83,112.83,0,0,0,492,712a29.89,29.89,0,0,0,14.72-9.72,26.23,26.23,0,0,0,6.39-16.67v-1.94q-2.22-13.6-15.14-19a80.81,80.81,0,0,0-28.61-6q-15.69-.55-26.25,0l2.78,55.55Z" transform="translate(-305.03 -539.83)"/><path class="cls-1" d="M706.27,564.78H862.11q-26.94,234.47,3.61,409.47H705.44Q729.88,801.74,706.27,564.78Z" transform="translate(-305.03 -539.83)"/><path class="cls-1" d="M1125,668.4q23.88-40.85,38.33-103.62h153.34q-57.5,87.51-89.17,137t-31.67,66.67q0,15.84,28.06,60.14t90.56,146.54H1161.13q-21.39-45.84-36.11-84.73-15,38.89-33.62,84.73h-145q61.38-104.45,84.44-147.65t23.06-59q0-17.22-26.11-58.47T946.4,564.78h142.78Q1100.57,612.84,1125,668.4Z" transform="translate(-305.03 -539.83)"/><path class="cls-1" d="M1612.65,879.24q21.11,0,39.73-12.78,17.77-12.21,30.27-33.89,2.5,86.11,21.67,141.68H1400.7q1.93-6.39,4.16-18.06,3.06-15,5.56-32.22,7.5-47.24,10.56-97,9.43-146.68-20.84-262.24h305v.56a8.89,8.89,0,0,0-.28,2.22,67,67,0,0,0-1.39,7.5q-2.51,13.07-4.72,28.06-7.23,47.51-11.39,94.72-12-25.55-31.39-40.55-20-15.56-43.34-15.56-32.78,0-57.5,28.89-24.45,28.62-29.17,71.67,20.55-15.27,42-21.39a95.22,95.22,0,0,1,55.28.28q24.72,7.5,33.61,21.94a47.91,47.91,0,0,1,8.61,27.78A47.9,47.9,0,0,1,1617.37,819a46,46,0,0,1-29.72-10.56,46.45,46.45,0,0,1-16.94-26.11,48.09,48.09,0,0,0-25.28,23.06,46.06,46.06,0,0,0-4.17,32.5q4.17,17.77,20.83,28.89Q1581.26,879.24,1612.65,879.24Z" transform="translate(-305.03 -539.83)"/><path class="cls-1" d="M1978.62,888.69q20.82,0,43.05-14.45,17.77-11.38,35.56-31.67a272.56,272.56,0,0,0,33.06-46.39V974.25H1786.66q17.22-93.9,20.28-142.51,9.43-143.61-20.83-267h159.17q-11.67,53.34-16.11,79.17Q1915,725.36,1915,785.9a268.53,268.53,0,0,0,2,34.73q2.22,19.73,8.33,33.33Q1940.28,888.69,1978.62,888.69Z" transform="translate(-305.03 -539.83)"/><path class="cls-1" d="M2530,965.63q-78.06,20.83-225.29,6.12a2656.35,2656.35,0,0,0,0-402.52q200.85-18.06,265.85,19.16,41.1,23.07,64.44,65.84,34.44,64.17,27.78,141.12-3.62,38.89-18.33,71.95Q2609.71,943.7,2530,965.63Zm-88.89-112q61.93,1.68,81.39-33T2535.81,754q-6.39-31.11-30.28-53.62-26.12-24.17-64.44-26.66Q2440.25,767.57,2441.09,853.68Z" transform="translate(-305.03 -539.83)"/><path class="cls-1" d="M3102.06,841.74a214.84,214.84,0,0,1,9,47.92,106.34,106.34,0,0,1-7.36,47.64,15,15,0,0,0-1.39,3.06,81.53,81.53,0,0,1-65.14,47.08,101.6,101.6,0,0,1-84.73-29.17,112.37,112.37,0,0,1-26.25-42.92,229.68,229.68,0,0,1-10-50q-.55-5.26-1.39-10.28v-.55a105.92,105.92,0,0,0-8.19-31,44.1,44.1,0,0,0-21.81-22.64,34.69,34.69,0,0,0-15.56-2.5c.19,4.82.46,9.73.84,14.73q1.93,42.78,5.41,84a625.79,625.79,0,0,0,10.42,74.59H2725.1l5.56-70.56q5.55-70.56,6.52-164.59t-11-173.48q185.57-13.89,259.74,6.11T3062.89,667a26.89,26.89,0,0,1,.28,3.89q.27,39.72-22.22,65.28t-56.67,38.33Q3000.12,789.24,3008,813t18.47,39.72q10.56,16,33.06,17.09a44.72,44.72,0,0,0,24-6.81Q3094.56,856.18,3102.06,841.74Zm-168.89-171.4q-2.24-11.94-15.14-16.66a92.45,92.45,0,0,0-28.62-5.28,235.62,235.62,0,0,0-26.25.28q.28,8.88.84,20.14t1.94,28.47q14.71.56,25.28.14a121.24,121.24,0,0,0,20.83-2.64,28.71,28.71,0,0,0,14.73-8.34,21.51,21.51,0,0,0,6.39-14.44Z" transform="translate(-305.03 -539.83)"/><path class="cls-1" d="M3386.63,879.24q21.12,0,39.73-12.78,17.78-12.21,30.28-33.89,2.49,86.11,21.66,141.68H3174.68q1.93-6.39,4.17-18.06,3-15,5.55-32.22,7.5-47.24,10.56-97,9.43-146.68-20.84-262.24h305v.56a8.89,8.89,0,0,0-.28,2.22,67,67,0,0,0-1.39,7.5q-2.5,13.07-4.72,28.06-7.23,47.51-11.39,94.72-12-25.55-31.39-40.55-20-15.56-43.34-15.56-32.77,0-57.5,28.89-24.45,28.62-29.17,71.67,20.57-15.27,41.95-21.39a95.22,95.22,0,0,1,55.28.28q24.72,7.5,33.61,21.94a47.91,47.91,0,0,1,8.61,27.78,47.9,47.9,0,0,1-48,48.06,46,46,0,0,1-29.73-10.56,46.5,46.5,0,0,1-16.94-26.11,48.09,48.09,0,0,0-25.28,23.06,46.06,46.06,0,0,0-4.17,32.5q4.17,17.77,20.84,28.89Q3355.23,879.24,3386.63,879.24Z" transform="translate(-305.03 -539.83)"/><path class="cls-1" d="M3770.65,974.25q13.33-38.89,11.67-93.06-37.23,16.93-88.34,2.22-1.38,52.79,11.95,90.84H3543.42Q3609,729.51,3621.2,564.78h234.18q-3.06,148.9,77.5,409.47Zm-66.11-179.18q35,5.28,66.11-5.56-11.12-54.43-32.5-116.39Q3715.92,738.13,3704.54,795.07Z" transform="translate(-305.03 -539.83)"/><path class="cls-1" d="M4270.23,974.25h-88.89q-9.17-111.94-35.83-187.51-14.73,69.16-11.67,187.51H3994.11q50.83-184.46,61.39-409.47h143.62q3.06,89.73,34.45,168.34,21.11-79.17,18.89-168.34H4415a1633.13,1633.13,0,0,0,43.62,409.47H4324.4q-.82-81.12-16.94-182.23Q4279.4,871.74,4270.23,974.25Z" transform="translate(-305.03 -539.83)"/><path class="cls-1" d="M4751.76,744.51q27.77,16.95,45,36.12,32,40.83,30.56,87.22t-40.84,81.39q-48.06,39.18-109.86,39.73t-111.26-37a115.1,115.1,0,0,1-33.61-42.36q-12-25.42-3.06-52.36a79.65,79.65,0,0,1,32.78-39.17,81.45,81.45,0,0,1,50.28-12.5q26.67,2.49,42.23,15.55,18.6,14.73,15.55,40.28Q4667,882,4651.48,889.24q-9.18,4.46-16.67,1.25a40.55,40.55,0,0,1-13.89-10.14,29.6,29.6,0,0,0,3.33,13.89,21.54,21.54,0,0,0,10.84,9.72,32.66,32.66,0,0,0,25-2.22,46.41,46.41,0,0,0,20.42-19.58,52.36,52.36,0,0,0,6.52-27.64q-1.66-24.72-17.64-40a187.16,187.16,0,0,0-36.25-26.95q-7.79-4.73-15-9.72-29.73-20-48.75-46.67T4547,668.68q-3.9-46.68,25.55-83.62,25.56-28,66.39-38.75a198.26,198.26,0,0,1,83.2-3.75q42.36,6.95,71.95,31.67t32.64,67.5a91.25,91.25,0,0,1-11.8,50.56q-13.2,23.33-43.2,26.94-25.29,1.95-41.95-13.05-14.45-12.78-16.11-30.56-1.39-18.89,15.56-28.33,9.43-5,21.94-1.95,12.23,3.33,17.78,13.06-5.28-14.17-11.94-20-7-6.1-23.62-8.89-36.1-4.72-44.16,29.72-3.61,25.83,12.22,44.45T4740.92,737Q4746.2,740.63,4751.76,744.51Z" transform="translate(-305.03 -539.83)"/><path class="cls-2" d="M706.75,1456.55q23.52,14.4,45.61,29.77a201,201,0,0,1,39.38,36q42.24,50.91,47.54,113.8,4.32,88.36-52.34,147.18T643.6,1861.82Q556.93,1881.5,471,1852.7a278.71,278.71,0,0,1-81.39-45.86q-37.23-30-57.14-69.87t-11.77-84.51q9.6-45.14,46.82-75.15t91-19q41.29,10.56,62.67,40.57t-1.68,66q-12.5,16.32-30.74,19.92T454.17,1675a45.45,45.45,0,0,0,7.2,23q6.24,10.08,20.65,15.36a73.27,73.27,0,0,0,47.54-3.36Q555,1699,568,1678.39q13.44-21.12,11.53-45.14-3.86-40.8-34.57-65.3l-15.85-13q-33.62-26.4-65.55-54.26a566.63,566.63,0,0,1-59.3-60Q356.7,1384.53,344,1319.22t32.89-125.81Q421,1142,497.87,1125a364.65,364.65,0,0,1,155.1-.72q78.25,16.34,126.76,65.31,36,38.9,46.58,92t-18.73,97.24q-26.42,33.62-68.66,36.25t-78.27-21.37a96.09,96.09,0,0,1-28.57-31.21q-10.33-18.24-5-37.93A46.36,46.36,0,0,1,644.56,1301a60.92,60.92,0,0,1,28.57-11q34.1-1.9,56.18,22.57-8.64-25-35-37.45t-53.78-4.8q-33.62,12-40.09,37.45t4.8,52.82a137,137,0,0,0,31,46.58,363,363,0,0,0,43.7,33.13Z" transform="translate(-305.03 -539.83)"/><path class="cls-2" d="M1668,1381.16a162.69,162.69,0,0,0-49.46-53.78q-31.69-21.12-62.9-21.13-62,0-87.88,60.5-16.82,39.39-16.8,103.24,0,22.58,1.92,54.26l1.92,26.41q1,15.85,1.44,24.49,3.84,67.23,46.58,279.95h-266.5q3.35,0,23-112.36t27.85-243.94l1.45-19.68,1-19.69a279.59,279.59,0,0,0-1-40.82q-3.86-46.09-25-73.94-40.83-52.34-116.21-14.41a255.43,255.43,0,0,0-67.22,49V1147.31H1668Z" transform="translate(-305.03 -539.83)"/><path class="cls-2" d="M2539.4,1147.31v.48L2526,1216.46a1513.55,1513.55,0,0,0-14.4,208.4q0,21.6.48,43.21.94,39.38-.24,78.75a479.76,479.76,0,0,1-8.89,78.27q-13.44,70.11-52.1,124.61t-103,85.23q-114.28,51.38-235.76,21.13-69.15-17.76-117.17-69.63a179.61,179.61,0,0,1-22.09-29.29,273.08,273.08,0,0,1-26.41-67.71,421.75,421.75,0,0,1-11-72.5q-2.41-37-2.4-72.51,0-194.48-8.4-271.3t-19.93-125.81H2186a709.66,709.66,0,0,0-31,147.42q-7.44,74.43-7.44,150.29v4.32a518.25,518.25,0,0,0,1.92,62.43q2.88,32.65,17.29,58.82t48,36.73q26.41,7.7,49.94-4.8a80,80,0,0,0,32.9-39.37,177.84,177.84,0,0,0,11.76-53.54q1.92-28.56.48-85.48t-23-170.7q-5.28-19.68-29.29-105.16Z" transform="translate(-305.03 -539.83)"/><path class="cls-2" d="M3416.11,1480.08q11.52,135.89-47.06,247.29-39.37,74.43-109,112.36-110.45,61.95-450.41,18.25,39.86-352,0-710.67,249.21-17.28,381.74,24.49,134.92,43.21,193.52,180.55Q3409.86,1410.94,3416.11,1480.08ZM3035.8,1662.54q64.83-1.9,109-43.21,40.33-37.93,51.37-93.16,10.56-55.7-22.32-118.12t-138.06-62.9Q3028.12,1509.85,3035.8,1662.54Z" transform="translate(-305.03 -539.83)"/><path class="cls-2" d="M3656.1,1147.31h269.38q-46.58,405.27,6.24,707.79H3654.66Q3696.9,1556.9,3656.1,1147.31Z" transform="translate(-305.03 -539.83)"/><path class="cls-2" d="M4274.47,1789.79a254.74,254.74,0,0,1-70.59-98.91,526.53,526.53,0,0,1-34.57-193.52q0-91.23,35.54-177.66T4322.49,1179q74.42-46.56,163.26-50.18t165.18,42q76.83,48.51,115.49,124.13a393.85,393.85,0,0,1,43,161.1q4.32,86.91-21.12,176.94T4696.07,1786q-59.07,51.85-138,69.87a337,337,0,0,1-157.26-1.2Q4328.73,1836.38,4274.47,1789.79ZM4414.2,1375.4a223,223,0,0,0-33.37,110.2,231.41,231.41,0,0,0,23.77,112.12q12.48,27.38,39.37,52.1t64.83,19.45a77.13,77.13,0,0,0,36.49-20.65q38.9-37.45,54.5-93.64t4.09-111.88q-11.54-55.69-54.75-91.71-35.54-25-73.94-16.81T4414.2,1375.4Z" transform="translate(-305.03 -539.83)"/></g></g></svg>